<?xml version="1.0" standalone="no"?>
<!DOCTYPE svg PUBLIC "-//W3C//DTD SVG 20010904//EN"
 "http://www.w3.org/TR/2001/REC-SVG-20010904/DTD/svg10.dtd">
<svg version="1.0" xmlns="http://www.w3.org/2000/svg"
 width="590.000000pt" height="590.000000pt" viewBox="0 0 590.000000 590.000000"
 preserveAspectRatio="xMidYMid meet">
<metadata>
Created by potrace 1.11, written by Peter Selinger 2001-2013
</metadata>
<g transform="translate(0.000000,590.000000) scale(0.100000,-0.100000)"
fill="#000000" stroke="none">
<path d="M2818 5835 c-2 -1 -30 -5 -63 -9 -90 -9 -127 -15 -207 -31 -40 -9
-89 -18 -108 -21 -201 -32 -505 -130 -733 -238 -204 -97 -471 -263 -613 -384
-11 -9 -42 -35 -70 -57 -125 -101 -385 -365 -418 -424 -5 -9 -12 -18 -15 -21
-23 -19 -221 -309 -221 -323 0 -2 -17 -35 -38 -73 -21 -38 -51 -100 -67 -139
-16 -38 -32 -75 -36 -80 -14 -19 -99 -276 -119 -363 -36 -148 -65 -308 -75
-412 -3 -36 -9 -78 -12 -95 -9 -52 -10 -396 -2 -489 39 -428 145 -775 352
-1146 49 -89 245 -371 276 -400 3 -3 29 -32 56 -65 282 -338 665 -624 1060
-791 398 -169 720 -229 1225 -229 124 0 254 3 290 8 146 16 169 20 260 39 125
25 108 21 245 63 315 95 581 229 844 423 248 183 482 426 673 698 264 378 460
803 523 1135 3 13 7 35 10 49 2 14 7 45 11 70 4 25 8 56 11 70 2 14 6 45 9 70
3 25 8 61 11 80 9 54 15 3080 6 3081 -18 2 -3062 6 -3065 4z m2505 -434 c15 0
38 -11 51 -24 29 -29 28 23 29 -1087 0 -760 -7 -1385 -17 -1510 -6 -68 -18
-184 -21 -199 -1 -9 -10 -61 -20 -116 -9 -55 -18 -102 -20 -106 -2 -3 -6 -19
-9 -35 -3 -16 -21 -81 -40 -144 -111 -372 -298 -684 -576 -960 -297 -294 -702
-533 -1103 -649 -56 -17 -115 -33 -132 -36 -247 -47 -259 -48 -500 -49 -217
-1 -313 4 -400 19 -16 3 -46 8 -65 11 -19 4 -48 8 -64 10 -59 8 -294 73 -391
109 -299 110 -588 290 -815 510 -198 191 -364 401 -489 619 -158 274 -256 598
-287 943 -12 133 -5 472 11 547 2 12 7 44 10 71 17 142 91 401 156 542 16 35
29 65 29 67 0 12 115 209 176 301 406 611 964 986 1644 1104 110 19 149 24
270 37 84 8 391 12 1375 20 495 3 901 7 902 8 2 1 254 -1 296 -3z"/>
<path d="M2897 5184 c-1 -1 -49 -4 -107 -7 -58 -4 -114 -8 -126 -11 -12 -2
-45 -7 -75 -11 -206 -26 -670 -188 -669 -234 1 -9 40 -45 87 -81 48 -36 91
-69 97 -75 6 -5 38 -30 71 -55 33 -25 69 -52 80 -62 11 -9 274 -213 584 -453
311 -241 597 -463 637 -494 39 -31 216 -168 393 -305 176 -137 321 -251 321
-254 0 -2 -17 -2 -38 2 -51 8 -232 101 -832 428 -278 151 -536 292 -575 313
-38 20 -122 66 -185 100 -63 34 -140 76 -170 92 -30 17 -77 43 -105 58 -142
78 -247 136 -305 167 -36 20 -85 47 -110 60 -289 160 -407 221 -438 225 -35 5
-40 1 -91 -54 -93 -101 -101 -111 -101 -121 0 -8 134 -121 390 -327 41 -33 77
-62 80 -65 3 -3 55 -46 115 -95 218 -177 551 -448 595 -485 25 -21 137 -113
250 -205 113 -92 223 -181 245 -200 78 -64 432 -352 588 -479 109 -88 157
-133 153 -143 -3 -8 -6 -17 -6 -20 0 -2 -15 4 -32 15 -18 10 -78 43 -133 72
-55 29 -152 81 -215 115 -63 34 -153 82 -200 107 -85 45 -162 87 -275 148
-167 90 -239 129 -415 223 -41 22 -97 52 -125 67 -27 15 -84 45 -125 67 -41
22 -105 57 -143 77 -37 20 -95 51 -130 69 -170 92 -639 343 -692 372 -209 113
-256 137 -259 134 -6 -9 -69 -177 -75 -204 -9 -35 6 -70 41 -100 13 -11 64
-54 113 -95 50 -41 92 -77 95 -80 4 -5 231 -196 285 -242 11 -9 49 -41 85 -70
344 -287 808 -666 1126 -919 145 -115 140 -111 342 -269 169 -133 262 -216
262 -237 0 -14 -64 17 -325 157 -96 51 -221 117 -340 180 -251 132 -293 154
-340 180 -27 15 -117 62 -200 105 -82 43 -154 81 -160 85 -5 4 -68 37 -140 75
-156 81 -292 153 -400 210 -44 23 -114 61 -155 82 -41 22 -138 73 -215 113
-77 41 -153 82 -170 92 -16 10 -34 18 -39 18 -8 0 -2 -260 7 -305 3 -11 8 -45
13 -75 4 -30 8 -57 9 -60 1 -3 5 -21 9 -40 50 -233 189 -538 363 -796 30 -45
62 -90 71 -101 10 -10 37 -42 62 -72 60 -73 160 -174 245 -248 77 -67 232
-182 255 -191 8 -3 33 -17 55 -32 146 -99 427 -214 645 -265 204 -47 313 -60
520 -59 344 0 615 60 933 206 512 234 907 614 1115 1073 53 117 125 320 135
380 3 17 9 48 15 70 6 22 14 63 18 90 3 28 7 52 9 55 3 5 13 92 21 174 12 137
16 493 16 1368 -1 1117 4 1050 -75 1064 -34 6 -2233 14 -2240 8z"/>
</g>
</svg>
