<svg xmlns="http://www.w3.org/2000/svg" xmlns:xlink="http://www.w3.org/1999/xlink" viewBox="0 0 469.81 468.51"><defs><style>.cls-1{fill:url(#linear-gradient);}.cls-2{fill:url(#linear-gradient-2);}.cls-3{fill:url(#linear-gradient-3);}.cls-4{fill:url(#linear-gradient-4);}.cls-5{fill:url(#linear-gradient-5);}.cls-6{fill:url(#linear-gradient-6);}</style><linearGradient id="linear-gradient" x1="304.85" y1="437.06" x2="71.05" y2="32.11" gradientUnits="userSpaceOnUse"><stop offset="0" stop-color="#cce0f4"/><stop offset="0.54" stop-color="#abdefa"/><stop offset="0.99" stop-color="#94dcff"/></linearGradient><linearGradient id="linear-gradient-2" x1="257.2" y1="1138.39" x2="23.4" y2="733.44" gradientTransform="translate(-425.6 -464.34) rotate(-32)" xlink:href="#linear-gradient"/><linearGradient id="linear-gradient-3" x1="-154.86" y1="1707.9" x2="-388.66" y2="1302.95" gradientTransform="translate(-1032.59 -632.59) rotate(-64)" xlink:href="#linear-gradient"/><linearGradient id="linear-gradient-4" x1="-806.1" y1="1972.51" x2="-1039.89" y2="1567.56" gradientTransform="translate(-1636.5 -453.62) rotate(-96)" xlink:href="#linear-gradient"/><linearGradient id="linear-gradient-5" x1="-1498.6" y1="1851.82" x2="-1732.4" y2="1446.87" gradientTransform="matrix(-0.62, -0.79, 0.79, -0.62, -2053.82, 18.18)" xlink:href="#linear-gradient"/><linearGradient id="linear-gradient-6" x1="-2021.92" y1="1382.49" x2="-2255.72" y2="977.54" gradientTransform="matrix(-0.94, -0.34, 0.34, -0.94, -2157.7, 639.43)" xlink:href="#linear-gradient"/></defs><title>Asset 3</title><g id="Layer_2" data-name="Layer 2"><g id="draft1"><path class="cls-1" d="M408.8,344.2a79.08,79.08,0,0,0-12.61-39.5,121.49,121.49,0,0,0-23.8-27.33c-9-17.31-22.11-33.16-39.44-41.06a121.31,121.31,0,0,1-12-6.3c-1.17-1.13-2.3-2.3-3.43-3.47q-1.88-3-3.6-6.18c-.72-2.35-1.35-4.72-1.95-7.1q0-2.07,0-4.15c.64-2.44,1.32-4.86,2.11-7.28a80.48,80.48,0,0,0,1.9-42.37,78.81,78.81,0,0,0-11.35-37.39,85.76,85.76,0,0,0-3.86-25.89c-8.32-25.71-24.25-50.51-48.83-63.5C226.19,19.08,198.74,15,170.07,22c-10.65,2.57-21.54,7.87-31.33,12.59A54,54,0,0,0,131.27,39c-17.48,12.15-27.92,22.3-40.41,38.47C74.71,98.38,65.52,118.38,55.35,143a179.94,179.94,0,0,0-10.58,34.81c-4,20.63-7.13,42.14-6.95,63.26s3.24,42.58,7.56,63.19,13,39.65,21.43,58.79,21,35.44,34.26,51.64c9,10.93,20.88,19.37,32.26,27.44a60.19,60.19,0,0,0,6.31,4.13,173.31,173.31,0,0,0,32.8,13.8c25,7.19,51.15,6.14,76.81,5.61l55.19-1.14c26.39-.55,56.83-11.18,75.13-31.12l16.61-21.5a79.08,79.08,0,0,0,12.61-39.5A53.5,53.5,0,0,0,408.8,344.2Z"/><path class="cls-2" d="M434.72,230.93a79.08,79.08,0,0,0-31.63-26.82,121.49,121.49,0,0,0-34.67-10.57c-16.84-9.89-36.33-16.41-55.2-13.92a121.31,121.31,0,0,1-13.5,1c-1.59-.34-3.17-.73-4.75-1.13q-3.21-1.59-6.33-3.33c-1.85-1.61-3.65-3.28-5.41-5q-1.13-1.74-2.21-3.51c-.75-2.4-1.46-4.83-2.06-7.29a80.48,80.48,0,0,0-20.84-36.94,78.81,78.81,0,0,0-29.44-25.69,85.76,85.76,0,0,0-17-19.91c-20.68-17.39-47.33-30-75.06-28C107.57,52,82.16,63.11,61.52,84.18c-7.66,7.82-14.09,18.09-19.9,27.28a54,54,0,0,0-4,7.74c-8.38,19.57-11.86,33.7-13.89,54-2.62,26.27.18,48.1,4.62,74.39a179.94,179.94,0,0,0,9.48,35.13c7.58,19.59,16.28,39.52,27.63,57.33s25.31,34.39,39.9,49.58,32,26.74,49.33,38.5,36.57,18.94,56.42,25.64c13.39,4.52,28,5.36,41.9,6.18a60.19,60.19,0,0,0,7.54.16,173.31,173.31,0,0,0,35.13-5.68c25-7.17,46.63-21.89,68.11-35.94L410,388.31c22.09-14.44,42.27-39.6,47.22-66.2l2.69-27a79.08,79.08,0,0,0-10.24-40.18A53.5,53.5,0,0,0,434.72,230.93Z"/><path class="cls-3" d="M396.68,121.14a79.08,79.08,0,0,0-41-6,121.49,121.49,0,0,0-35,9.41c-19.52.54-39.5,5.34-54.19,17.45a121.31,121.31,0,0,1-10.91,8c-1.53.55-3.07,1.06-4.62,1.56q-3.56.35-7.14.53c-2.43-.39-4.84-.85-7.24-1.36q-1.88-.87-3.74-1.8c-1.91-1.64-3.79-3.32-5.61-5.09A80.48,80.48,0,0,0,190,123.58a78.81,78.81,0,0,0-38.58-6.19,85.76,85.76,0,0,0-25-7.88c-26.75-3.79-56-.35-78.48,16.05C24.41,142.75,8.76,165.65,2.42,194.46.06,205.15.05,217.26,0,228.14a54,54,0,0,0,.73,8.67c3.26,21,7.8,34.87,16.86,53.19,11.7,23.66,25.65,40.7,43.34,60.64a179.94,179.94,0,0,0,26.65,24.77c16.81,12.59,34.75,24.88,53.81,34s39.69,15.75,60.11,20.9,41.33,5.71,62.23,6.51,41.05-3.32,61.43-8.16c13.75-3.26,26.56-10.28,38.81-17a60.19,60.19,0,0,0,6.48-3.86,173.31,173.31,0,0,0,26.78-23.43C414.67,365,425.19,341.1,436,317.81l23.17-50.11c11.08-24,14.86-56,5-81.17l-12-24.36a79.08,79.08,0,0,0-30-28.65A53.5,53.5,0,0,0,396.68,121.14Z"/><path class="cls-4" d="M306.24,48.19a79.08,79.08,0,0,0-38,16.67,121.49,121.49,0,0,0-24.69,26.53c-16.27,10.8-30.67,25.46-36.71,43.51a121.31,121.31,0,0,1-5,12.58c-1,1.28-2,2.53-3.09,3.77q-2.83,2.19-5.77,4.23c-2.26,1-4.55,1.84-6.86,2.68q-2.06.26-4.12.45c-2.49-.38-5-.81-7.46-1.34a80.48,80.48,0,0,0-42.33,2.54,78.81,78.81,0,0,0-36,15.2,85.76,85.76,0,0,0-25.34,6.54c-24.7,11-47.7,29.4-58,55.2-10.84,27-12,54.76-2.09,82.54,3.67,10.32,10.08,20.59,15.8,29.85a54,54,0,0,0,5.21,7c13.91,16.11,25.09,25.43,42.48,36.17,22.46,13.87,43.31,20.92,68.89,28.46a179.94,179.94,0,0,0,35.73,6.88c20.93,1.77,42.66,2.69,63.64.3s42-7.67,62.05-14.13,38.08-17.06,56.23-27.45,33.05-24.57,47.77-39.47c9.93-10.05,17.08-22.79,23.92-35a60.19,60.19,0,0,0,3.45-6.71,173.31,173.31,0,0,0,10.3-34.07c4.53-25.64.76-51.51-2.45-77l-6.9-54.77c-3.3-26.18-17.06-55.35-38.8-71.47L374.94,53.65a79.08,79.08,0,0,0-40.61-8.41A53.5,53.5,0,0,0,306.24,48.19Z"/><path class="cls-5" d="M190.88,34.25a79.08,79.08,0,0,0-23.37,34.26,121.49,121.49,0,0,0-6.88,35.58c-8.07,17.78-12.52,37.84-8.07,56.35A121.31,121.31,0,0,1,155,173.77c-.17,1.62-.39,3.23-.62,4.84q-1.25,3.36-2.65,6.65c-1.41,2-2.88,4-4.4,5.91q-1.61,1.31-3.26,2.57c-2.31,1-4.65,2-7,2.81a80.48,80.48,0,0,0-34.55,24.59A78.81,78.81,0,0,0,80,253.1a85.76,85.76,0,0,0-18,19c-15.14,22.38-24.87,50.21-20,77.57,5.13,28.67,18.86,52.78,42,71.11,8.58,6.81,19.46,12.12,29.22,16.94a54,54,0,0,0,8.11,3.15c20.34,6.29,34.76,8.27,55.2,8.16,26.4-.14,47.82-5.21,73.5-12.37a179.94,179.94,0,0,0,33.95-13.1c18.69-9.59,37.6-20.33,54.13-33.47s31.56-28.77,45.14-44.87,23.25-34.64,33.14-53.08,15-38.35,19.6-58.79c3.09-13.79,2.41-28.38,1.77-42.32a60.19,60.19,0,0,0-.63-7.52,173.31,173.31,0,0,0-9.32-34.35c-9.75-24.15-26.65-44.09-42.87-64L350,42.38c-16.67-20.46-43.8-37.9-70.78-40L252,2.48a79.08,79.08,0,0,0-38.89,14.39A53.5,53.5,0,0,0,190.88,34.25Z"/><path class="cls-6" d="M85.67,83.56A79.08,79.08,0,0,0,84,125a121.49,121.49,0,0,0,13,33.82c2.58,19.36,9.44,38.73,23,52.07a121.31,121.31,0,0,1,9.11,10c.71,1.46,1.38,2.95,2,4.43q.72,3.51,1.27,7c-.13,2.45-.34,4.9-.6,7.34q-.67,2-1.4,3.9c-1.43,2.07-2.91,4.12-4.47,6.11a80.48,80.48,0,0,0-16.27,39.16,78.81,78.81,0,0,0-2.12,39,85.76,85.76,0,0,0-5.23,25.64c-1,27,5.51,55.76,24.17,76.37,19.55,21.59,44,34.77,73.27,38.07,10.88,1.22,22.93,0,33.75-1.12a54,54,0,0,0,8.55-1.63c20.58-5.44,33.86-11.4,51.14-22.33C315.54,428.82,331,413.17,349,393.49a179.94,179.94,0,0,0,21.85-29.1c10.77-18,21.11-37.16,28.16-57.07s11.52-41.12,14.5-62,1.36-41.7,0-62.57S405.9,142.3,399,122.54C394.28,109.21,386,97.2,378,85.72a60.19,60.19,0,0,0-4.52-6,173.31,173.31,0,0,0-26.11-24.19c-21.06-15.32-46-23.27-70.26-31.55L224.9,6.14c-25-8.51-57.23-8.93-81.24,3.55l-23,14.52A79.08,79.08,0,0,0,95.33,57,53.5,53.5,0,0,0,85.67,83.56Z"/></g></g></svg>