<svg xmlns="http://www.w3.org/2000/svg" xmlns:xlink="http://www.w3.org/1999/xlink" viewBox="0 0 411.81 386.44"><defs><style>.cls-1{fill:url(#linear-gradient);}.cls-2{fill:url(#linear-gradient-2);}.cls-3{fill:url(#linear-gradient-3);}.cls-4{fill:url(#linear-gradient-4);}.cls-5{fill:url(#linear-gradient-5);}.cls-6{fill:url(#linear-gradient-6);}.cls-7{fill:url(#linear-gradient-7);}</style><linearGradient id="linear-gradient" x1="3083.49" y1="6674.45" x2="2920.59" y2="6392.3" gradientTransform="translate(-5025.73 5065.96) rotate(-108.12)" gradientUnits="userSpaceOnUse"><stop offset="0" stop-color="#ff94d0"/><stop offset="0.57" stop-color="#fdbbec"/><stop offset="1" stop-color="#fcd4ff"/></linearGradient><linearGradient id="linear-gradient-2" x1="3040.56" y1="6660.41" x2="2877.66" y2="6378.25" xlink:href="#linear-gradient"/><linearGradient id="linear-gradient-3" x1="3946.42" y1="6500.63" x2="3783.52" y2="6218.48" gradientTransform="translate(-5190.97 5272.63) rotate(-101.47)" xlink:href="#linear-gradient"/><linearGradient id="linear-gradient-4" x1="1031.45" y1="6864.1" x2="868.55" y2="6581.94" gradientTransform="translate(-4965.93 4541.46) rotate(-121.47)" xlink:href="#linear-gradient"/><linearGradient id="linear-gradient-5" x1="-1731.19" y1="6202.4" x2="-1894.1" y2="5920.25" gradientTransform="translate(-5005.43 3777.53) rotate(-141.47)" xlink:href="#linear-gradient"/><linearGradient id="linear-gradient-6" x1="-4204.03" y1="4638.94" x2="-4366.93" y2="4356.79" gradientTransform="translate(-5305.42 3065.43) rotate(-161.47)" xlink:href="#linear-gradient"/><linearGradient id="linear-gradient-7" x1="-5929" y1="2264.07" x2="-6091.9" y2="1981.92" gradientTransform="translate(-5825.69 2497.55) rotate(178.53)" gradientUnits="userSpaceOnUse"><stop offset="0" stop-color="#ff94d0"/><stop offset="0.32" stop-color="#fdbbec"/><stop offset="0.57" stop-color="#fcd4ff"/></linearGradient></defs><title>Asset 4</title><g id="Layer_2" data-name="Layer 2"><g id="draft2"><path class="cls-1" d="M269.85,43.81c-8.27,6-15.72,13.81-20.58,22.93-2.82,1.39-5.62,2.82-8.4,4.24-9.36,4.79-27.72,13-49.52,31.94-11.42,11.8-21.19,21.27-27.73,43.19-5.33,21-.23-5.32,0,0-1.13,5.34-21.55,81.47-19.86,86.67a45.47,45.47,0,0,0,6.06,18.79,48.62,48.62,0,0,0-4.46,13.24c-2.69,15.67-.93,33,8.71,46.24l10.3,11.85a60.85,60.85,0,0,0,27.4,13.89c15.39,4.58,55.74-33.85,71.2-43.93,18.82-12.28,49.71-23.22,70.43-74,18.19-44.55,32.7-39.21,39-64.48,2.61-10.44,5.32-16.7,8.83-40.84,1.2-8.26-4.72-37-10.57-42.65-4.66-6.38-28.81-23.57-33.6-26.27a45.76,45.76,0,0,0-21-9.54,45.07,45.07,0,0,0-23.63.17A45.87,45.87,0,0,0,269.85,43.81Z"/><path class="cls-2" d="M269.85,89c-8.27,6-15.72,13.81-20.58,22.93-2.82,1.39-5.62,2.82-8.4,4.24-9.36,4.79-27.72,13-49.52,31.94-11.42,11.8-21.19,21.27-27.73,43.19-5.33,21-.23-5.32,0,0-1.13,5.34-21.55,81.47-19.86,86.67a45.47,45.47,0,0,0,6.06,18.79A48.62,48.62,0,0,0,145.36,310c-2.69,15.67-.93,33,8.71,46.24l10.3,11.85A60.85,60.85,0,0,0,191.77,382c15.39,4.58,55.74-33.85,71.2-43.93,18.82-12.28,49.71-23.22,70.43-74,18.19-44.55,32.7-39.21,39-64.48,2.61-10.44,5.32-16.7,8.83-40.84,1.2-8.26-4.72-37-10.57-42.65-4.66-6.38-28.81-23.57-33.6-26.27a45.76,45.76,0,0,0-21-9.54,45.07,45.07,0,0,0-23.63.17A45.87,45.87,0,0,0,269.85,89Z"/><path class="cls-3" d="M308.46,86.21c-8.92,5-17.21,11.89-23.1,20.39-3,1.06-5.91,2.15-8.83,3.24-9.85,3.68-29,9.73-52.88,26-12.71,10.4-23.51,18.68-32.55,39.69-7.72,20.2.39-5.31,0,0-1.74,5.17-30.83,78.43-29.76,83.79a45.47,45.47,0,0,0,3.85,19.36,48.62,48.62,0,0,0-6,12.63c-4.48,15.25-4.74,32.67,3.3,46.94l8.86,13a60.85,60.85,0,0,0,25.61,17c14.76,6.34,59.28-27.16,75.81-35.4,20.12-10,52.06-17.31,78.52-65.32,23.23-42.14,37-35.16,46.23-59.53,3.8-10.06,7.22-16,13.5-39.55,2.15-8.06-.41-37.27-5.56-43.59-3.89-6.87-25.89-26.75-30.34-30A45.76,45.76,0,0,0,355.4,82.91a45.07,45.07,0,0,0-23.49-2.56A45.87,45.87,0,0,0,308.46,86.21Z"/><path class="cls-4" d="M259.8,83.34c-6.66,7.77-12.11,17.06-14.73,27.06-2.42,2-4.82,4-7.19,6.07-8,6.83-24,19.07-40.8,42.52-8.39,14.12-15.71,25.59-17,48.43-.35,21.62-1.45-5.13,0,0,.13,5.46-2.15,84.25.69,88.92A45.47,45.47,0,0,0,191,313.2a48.62,48.62,0,0,0-1.29,13.91c1,15.86,6.72,32.33,19.15,43l12.76,9.15a60.85,60.85,0,0,0,29.87,7.19c16,.91,46.41-45.8,59.13-59.19,15.48-16.29,43-34.07,51.45-88.24,7.41-47.54,22.76-45.7,23.08-71.75.13-10.76,1.32-17.48-.84-41.78-.74-8.31-13.13-34.88-20.13-39.06-6-5.13-33.48-16.28-38.76-17.8a45.76,45.76,0,0,0-22.63-4.43,45.07,45.07,0,0,0-23,5.62A45.87,45.87,0,0,0,259.8,83.34Z"/><path class="cls-5" d="M129.41,39.48c-3.6,9.58-5.54,20.17-4.59,30.47-1.59,2.72-3.14,5.45-4.68,8.16-5.19,9.15-16,26.12-23.8,53.91-3.05,16.14-6,29.42.58,51.32,7.07,20.43-3.12-4.32,0,0,2,5.08,26.79,79.9,31.06,83.32A45.47,45.47,0,0,0,143.37,279a48.62,48.62,0,0,0,3.55,13.51c6.37,14.56,17.37,28.08,32.7,33.84l15.12,4.24a60.85,60.85,0,0,0,30.53-3.46c15.38-4.63,28-58.91,35.32-75.85,9-20.61,28.75-46.73,18.16-100.51-9.29-47.21,5.76-50.73-2.85-75.32-3.56-10.16-4.74-16.88-15.08-39-3.54-7.56-24.27-28.29-32.28-29.82-7.39-2.77-37-3.85-42.51-3.47a45.76,45.76,0,0,0-22.78,3.58A45.07,45.07,0,0,0,143.6,19.91,45.87,45.87,0,0,0,129.41,39.48Z"/><path class="cls-6" d="M89.07,64.83C89,75.06,90.77,85.68,95.18,95c-.57,3.1-1.09,6.19-1.61,9.27-1.74,10.37-6.1,30-3.93,58.79,2.65,16.21,4.42,29.7,18.1,48,13.63,16.78-4.41-3,0,0,3.61,4.1,52.51,65.92,57.68,67.67a45.47,45.47,0,0,0,18.69,6.35,48.62,48.62,0,0,0,8,11.48c11,11.51,25.92,20.44,42.3,20.62L250,316a60.85,60.85,0,0,0,27.5-13.69c12.87-9.61,6.11-64.92,7.25-83.35,1.38-22.43,11-53.74-17.31-100.66C242.59,77.15,255.53,68.7,239,48.54c-6.81-8.33-10.22-14.24-27.5-31.47C205.63,11.18,179.06-1.21,171,.1c-7.89-.07-36.11,9-41.14,11.28a45.76,45.76,0,0,0-20.19,11.15,45.07,45.07,0,0,0-14,19.06A45.87,45.87,0,0,0,89.07,64.83Z"/><path class="cls-7" d="M2.58,162.68c3.4,9.65,8.72,19,16.07,26.29.53,3.1,1.09,6.19,1.66,9.26,1.91,10.34,4.54,30.29,16.42,56.59,8,14.32,14.31,26.4,33.44,38.94,18.55,11.11-5.16-1.31,0,0,4.79,2.62,71.89,44,77.35,43.86a45.47,45.47,0,0,0,19.74-.42,48.62,48.62,0,0,0,11.4,8.07c14.24,7.06,31.35,10.35,46.8,4.9l14.3-6.47a60.85,60.85,0,0,0,21.16-22.27c8.8-13.43-16.46-63.1-21.69-80.81-6.37-21.55-8-54.28-50.69-88.67-37.47-30.19-28.2-42.56-50.6-55.86-9.25-5.49-14.48-9.89-36.6-20.16-7.57-3.51-36.77-6.07-43.89-2.09C50,76.46,26.6,94.68,22.64,98.49A45.76,45.76,0,0,0,7.49,115.88,45.07,45.07,0,0,0,.88,138.57,45.87,45.87,0,0,0,2.58,162.68Z"/></g></g></svg>