<svg id="Layer_1" xmlns="http://www.w3.org/2000/svg" viewBox="0 0 1213.6 1156.5"><style>.st0{fill:url(#SVGID_1_);} .st1{fill:url(#SVGID_2_);} .st2{fill:url(#SVGID_3_);} .st3{fill:url(#SVGID_4_);} .st4{fill:url(#SVGID_5_);} .st5{fill:url(#SVGID_6_);} .st6{fill:url(#SVGID_7_);} .st7{fill:url(#SVGID_8_);} .st8{fill:url(#SVGID_9_);} .st9{fill:url(#SVGID_10_);} .st10{fill:url(#SVGID_11_);} .st11{fill:url(#SVGID_12_);} .st12{fill:url(#SVGID_13_);} .st13{fill:url(#SVGID_14_);} .st14{fill:url(#SVGID_15_);} .st15{fill:url(#SVGID_16_);} .st16{fill:url(#SVGID_17_);} .st17{fill:url(#SVGID_18_);} .st18{fill:url(#SVGID_19_);} .st19{fill:url(#SVGID_20_);} .st20{fill:url(#SVGID_21_);} .st21{fill:url(#SVGID_22_);} .st22{fill:url(#SVGID_23_);} .st23{fill:url(#SVGID_24_);} .st24{fill:url(#SVGID_25_);} .st25{fill:url(#SVGID_26_);} .st26{fill:url(#SVGID_27_);} .st27{fill:url(#SVGID_28_);} .st28{fill:url(#SVGID_29_);} .st29{fill:url(#SVGID_30_);} .st30{fill:url(#SVGID_31_);} .st31{fill:url(#SVGID_32_);} .st32{fill:url(#SVGID_33_);} .st33{fill:url(#SVGID_34_);} .st34{fill:url(#SVGID_35_);} .st35{fill:url(#SVGID_36_);} .st36{fill:url(#SVGID_37_);} .st37{fill:url(#SVGID_38_);} .st38{fill:url(#SVGID_39_);}</style><linearGradient id="SVGID_1_" gradientUnits="userSpaceOnUse" x1="-2464.666" y1="-3522.899" x2="-3259.481" y2="-4899.558" gradientTransform="rotate(69.28 -3214.2 567.427) scale(.713)"><stop offset="0" stop-color="#F7DBEA"/><stop offset=".064" stop-color="#F0DBEB"/><stop offset=".694" stop-color="#B4DAF4"/><stop offset=".994" stop-color="#99DBF9"/></linearGradient><path class="st0" d="M815.8 612.8c30.1-13 55.4-32.5 76-58.5 20.7-7.9 62.2-19.8 62.2-19.8s87.7-35.2 114.1-98.2c23.8-56.7 29.8-139.8-10.9-199.6-15.1-22.2-36.8-42.6-56.1-61-5.3-5-74.1-78.2-74.1-78.2s-70.4-58.1-118.4-72.8C746.6 5.9 692.7 2.2 627.3.2c-29.9-.9-59.6.8-89.1 5.9-50.8 8.8-102.9 20.2-151.3 39-48.3 18.8-94.9 44.4-138.5 72.2-43.4 27.8-79.8 64.3-116.4 100.3-36.7 36.1-63.2 78.9-88.8 123.5-17.3 30.1-26.3 64.8-35 97.9-1.6 6-3.2 11.9-4 18.1-3.7 28.1-5.5 59.3-3.2 87.3C6.3 608 31.3 667.1 54.8 725.6c16.8 41.9 33.7 83.8 50.5 125.7 24.2 60.1 75 120.8 136.7 145.5l63.8 19.5c34.7 7.2 68.6 5.5 101.6-5.4 23.8-2.4 45.4-10.5 64.8-24.5 31.9-13.7 58.5-34.8 79.7-63.2 18.3-24.7 32.4-50.9 42.1-78.4.1-.1 33.4-134 221.8-232z"/><linearGradient id="SVGID_2_" gradientUnits="userSpaceOnUse" x1="3858.384" y1="225.742" x2="3063.57" y2="-1150.917" gradientTransform="rotate(-110.72 1945.13 832.693) scale(.713)"><stop offset="0" stop-color="#F7DBEA"/><stop offset=".064" stop-color="#F0DBEB"/><stop offset=".694" stop-color="#B4DAF4"/><stop offset=".994" stop-color="#99DBF9"/></linearGradient><path class="st1" d="M397.7 543.7c-30.1 13-55.4 32.5-76 58.5-20.7 7.9-62.2 19.8-62.2 19.8s-87.7 35.2-114.1 98.2c-23.8 56.7-29.9 139.8 10.9 199.6 15.1 22.2 36.8 42.6 56.1 61 5.3 5 74.1 78.2 74.1 78.2s70.5 58 118.5 72.7c62 18.9 115.9 22.7 181.3 24.6 29.9.9 59.6-.8 89.1-5.9 50.8-8.8 102.9-20.2 151.3-39 48.3-18.8 94.9-44.4 138.5-72.2 43.4-27.7 79.8-64.2 116.4-100.2 36.7-36.1 63.2-78.9 88.8-123.5 17.3-30.1 26.3-64.8 35-97.9 1.6-6 3.2-11.9 4-18.1 3.7-28.1 5.5-59.3 3.2-87.3-5.2-63.7-30.3-122.8-53.8-181.2-16.8-41.9-33.7-83.8-50.5-125.7-24.2-60.1-75-120.8-136.7-145.5l-63.8-19.5c-34.7-7.2-68.6-5.5-101.6 5.4-23.8 2.4-45.4 10.5-64.8 24.5-31.9 13.7-58.5 34.8-79.7 63.2-18.3 24.7-32.4 50.9-42.1 78.4-.2 0-33.5 133.9-221.9 231.9z"/><linearGradient id="SVGID_3_" gradientUnits="userSpaceOnUse" x1="1946.938" y1="2390.318" x2="1152.123" y2="1013.658" gradientTransform="rotate(-153.9 774.84 907.574) scale(.6316)"><stop offset="0" stop-color="#F7DBEA"/><stop offset=".064" stop-color="#F0DBEB"/><stop offset=".694" stop-color="#B4DAF4"/><stop offset=".994" stop-color="#99DBF9"/></linearGradient><path class="st2" d="M359.8 698.1c-11.6 26.6-16 54.6-13.6 83.8-8.6 17.7-28.1 50.5-28.1 50.5s-35.2 75.9-14.1 132.5c19 51 65.4 108.3 128 122.2 23.2 5.2 49.6 5.2 73.2 5.4 6.4 0 95.2 5.6 95.2 5.6s80.7-5.1 120.5-24.8c51.5-25.3 88.5-55.6 132-94 19.8-17.5 38-36.7 53.9-57.8 27.4-36.5 54.2-75.4 74-116.8 19.8-41.4 34.4-86.2 45.6-130.6 11.2-44.2 12.6-89.8 14.4-135.2 1.8-45.5-7.1-89.2-17.5-133.5-7-29.9-22.2-57.8-36.7-84.4-2.6-4.8-5.2-9.6-8.4-14.1-14.6-20.4-32.4-41.6-50.8-58.3-42-38-94-60.9-144.6-84.4-36.3-16.8-72.6-33.7-108.8-50.5-52-24.2-121.6-32.5-176.4-11.1l-53 26.1c-26.8 16.4-47.6 38.1-62.4 65.1-13.9 16-22.9 34.3-27 55.1-12.3 28.2-16.6 57.9-13.2 89.2 3.2 27.1 9.9 52.5 20.3 76.1.1-.1 59.7 106.5-2.5 283.9z"/><linearGradient id="SVGID_4_" gradientUnits="userSpaceOnUse" x1="330.069" y1="2897.45" x2="-464.746" y2="1520.791" gradientTransform="scale(.5743) rotate(-175.535 546.828 1652.38)"><stop offset="0" stop-color="#F7DBEA"/><stop offset=".064" stop-color="#F0DBEB"/><stop offset=".694" stop-color="#B4DAF4"/><stop offset=".994" stop-color="#99DBF9"/></linearGradient><path class="st3" d="M442.4 785.8c-.9 26.4 4.7 51.5 16.6 75.4-1.3 17.8-6.9 52.1-6.9 52.1s-4.4 76 32.5 116.8c33.2 36.8 91.6 69.7 149.2 60.4 21.4-3.4 43.7-12.2 63.7-20 5.4-2.1 82.4-27.2 82.4-27.2s66.5-31.4 93.6-61.4c35-38.7 56.2-76.7 80.1-123.7 10.9-21.5 19.8-43.7 26.2-67 11-40 20.5-82 23.4-123.6 2.9-41.7.2-84.4-5.2-125.7-5.3-41.2-19.5-80.1-33.2-119.2-13.7-39.1-35.9-73.1-59.6-107-16-22.9-38.2-41.4-59.4-59.1-3.8-3.2-7.6-6.4-11.8-9.1-19.2-12.3-41.3-24.3-62.5-32.2-48.2-18-99.9-20-150.5-22.9-36.3-2.1-72.6-4.2-109-6.2-52.1-3-113.7 13.3-152.9 49.8L323 275.8c-17.2 22.8-27.5 48.1-30.9 75.9-6.4 18.2-7.9 36.7-4.3 55.7-.9 28 5.3 54.6 18.8 79.8 11.8 21.8 26 41 42.7 57.5.1 0 86.3 70.2 93.1 241.1z"/><linearGradient id="SVGID_5_" gradientUnits="userSpaceOnUse" x1="-1340.818" y1="2433.771" x2="-2135.632" y2="1057.111" gradientTransform="rotate(162.614 -117.596 940.51) scale(.5647)"><stop offset="0" stop-color="#F7DBEA"/><stop offset=".064" stop-color="#F0DBEB"/><stop offset=".694" stop-color="#B4DAF4"/><stop offset=".994" stop-color="#99DBF9"/></linearGradient><path class="st4" d="M513.9 847.1c8.9 24.4 23.2 45.3 42.8 62.8 5.3 16.7 12.8 50.1 12.8 50.1s23.8 70.9 72.3 94.7c43.7 21.4 109.1 30 158.3.5 18.3-11 35.4-27.1 50.8-41.5 4.2-3.9 65.2-55 65.2-55s49.2-53 63-90.2c17.8-48.1 23.3-90.5 27.8-142.2 2.1-23.6 2.1-47.2-.6-70.7-4.6-40.6-11.2-82.3-23.8-121.4-12.6-39.1-30.7-77.1-50.7-112.8-19.9-35.6-47.1-66-73.9-96.6-26.8-30.7-59.5-53.6-93.5-75.9-23-15.1-50-23.8-75.8-32.2-4.7-1.5-9.3-3.1-14.1-4-22-4.2-46.6-7.1-68.9-6.6-50.6 1.2-98.4 18.3-145.7 34.2l-101.7 34.2c-48.6 16.3-98.9 53.7-121.3 101.3l-18.3 49.5c-7.3 27.1-7.5 54-.5 80.6.8 18.9 6.2 36.4 16.4 52.4 9.4 25.9 24.8 47.8 46.3 66 18.7 15.6 38.7 28 60 36.9 0 0 104.3 32.5 173.1 185.9z"/><linearGradient id="SVGID_6_" gradientUnits="userSpaceOnUse" x1="-2071.568" y1="2314.28" x2="-2866.383" y2="937.621" gradientTransform="rotate(154.402 -284.826 972.68) scale(.5308)"><stop offset="0" stop-color="#F7DBEA"/><stop offset=".064" stop-color="#F0DBEB"/><stop offset=".694" stop-color="#B4DAF4"/><stop offset=".994" stop-color="#99DBF9"/></linearGradient><path class="st5" d="M548.4 845.7c11.5 21.5 27.6 39 48.2 52.6 7.2 14.9 18.6 44.9 18.6 44.9s31.7 62.8 80 78.4c43.6 14 105.5 13.3 147.3-20.8 15.5-12.6 29.3-30 41.7-45.5 3.4-4.2 53.3-59.9 53.3-59.9s38.6-55.9 46.5-92.4c10.1-47.2 9.5-87.4 6.8-136-1.2-22.2-4.4-44.2-10-65.7-9.8-37.1-21.5-75.1-38.5-109.7-17-34.7-38.9-67.6-62.3-98.2-23.3-30.5-52.7-55.1-81.7-80-29.1-24.9-62.5-41.8-97.2-58-23.4-10.9-49.7-15.4-74.8-19.8-4.5-.8-9-1.6-13.7-1.8-21.1-1-44.3-.3-64.9 3.2-46.9 7.9-89.1 30.2-131 51.4-30 15.1-60 30.3-90 45.4-43 21.7-84.8 63.3-99.2 110.6L217 493c-3.2 26.2.3 51.2 10.4 75 3.3 17.5 10.7 33 22.3 46.5 12.2 22.8 29.5 41.2 52 55.1 19.5 12 39.8 20.8 60.8 26.2-.1.2 101.3 16.4 185.9 149.9z"/><linearGradient id="SVGID_7_" gradientUnits="userSpaceOnUse" x1="-2035.017" y1="3361.381" x2="-2829.832" y2="1984.721" gradientTransform="matrix(-.427 .1478 -.1478 -.427 31.33 2137.855)"><stop offset="0" stop-color="#F7DBEA"/><stop offset=".064" stop-color="#F0DBEB"/><stop offset=".694" stop-color="#B4DAF4"/><stop offset=".994" stop-color="#99DBF9"/></linearGradient><path class="st6" d="M536.4 807.4c7.7 19.3 19.6 35.7 35.7 49.2 4.7 13.3 11.4 39.8 11.4 39.8s20.7 56.2 60.1 74c35.5 16.1 88 21.4 126.6-3.3 14.3-9.2 27.6-22.5 39.6-34.4 3.3-3.2 50.9-45.5 50.9-45.5s38.1-43.5 48.2-73.7c13.1-38.9 16.4-73 18.8-114.4 1.1-18.9.6-37.8-2.2-56.6-4.7-32.3-11-65.6-22-96.5-11-30.9-26.4-60.9-43.3-89-16.8-28-39.2-51.7-61.4-75.5-22.2-23.9-48.9-41.4-76.6-58.5-18.7-11.5-40.5-17.8-61.4-23.9-3.8-1.1-7.5-2.2-11.4-2.9-17.7-2.8-37.4-4.6-55.2-3.6-40.4 2.2-78.3 17-115.8 30.8-26.8 9.9-53.7 19.8-80.5 29.7-38.5 14.2-77.8 45.3-94.6 84L290.1 477c-5.2 21.9-4.7 43.4 1.6 64.5 1.1 15.1 5.9 29 14.4 41.5 8.1 20.5 21 37.7 38.6 51.7 15.3 12 31.6 21.4 48.9 28.1-.1 0 84.1 23.4 142.8 144.6z"/><linearGradient id="SVGID_8_" gradientUnits="userSpaceOnUse" x1="-3721.446" y1="2824.528" x2="-4516.261" y2="1447.869" gradientTransform="matrix(-.3348 .233 -.233 -.3348 -215.627 2295.23)"><stop offset="0" stop-color="#F7DBEA"/><stop offset=".064" stop-color="#F0DBEB"/><stop offset=".694" stop-color="#B4DAF4"/><stop offset=".994" stop-color="#99DBF9"/></linearGradient><path class="st7" d="M587.1 802.5c11.4 14.9 25.8 26.2 43.1 34 7.3 10.4 19.7 31.7 19.7 31.7s31.8 43.7 70.4 49.6c34.8 5.3 81.7-2.9 109.2-33.9 10.2-11.5 18.5-26.3 26-39.6 2-3.6 33-52 33-52s22.4-47.2 23.9-75.8c1.9-37-3.6-67.4-11.6-104-3.7-16.7-8.8-33-15.7-48.6-12-26.9-25.6-54.3-42.7-78.5-17.1-24.2-37.9-46.5-59.4-66.8-21.4-20.2-46.8-35.3-71.8-50.6-25.1-15.3-52.6-24-80.9-32-19.1-5.4-39.6-5.6-59.2-5.8-3.5 0-7-.1-10.6.3-16.1 1.9-33.6 5.2-48.9 10.4-34.6 11.8-63.9 33.9-93 55.1l-62.7 45.6c-30 21.8-56.5 58.4-61.6 96.1l-1.9 38.1c.8 20.3 6.5 38.8 17.1 55.6 4.6 12.9 12.2 23.7 22.6 32.6 12.1 15.8 27.5 27.6 46.2 35.4 16.3 6.7 32.7 10.9 49.3 12.4 0 .1 78.9-.1 159.5 90.7z"/><linearGradient id="SVGID_9_" gradientUnits="userSpaceOnUse" x1="-5486.594" y1="838.469" x2="-6281.409" y2="-538.191" gradientTransform="rotate(122.22 -947.948 1130.172) scale(.383)"><stop offset="0" stop-color="#F7DBEA"/><stop offset=".064" stop-color="#F0DBEB"/><stop offset=".694" stop-color="#B4DAF4"/><stop offset=".994" stop-color="#99DBF9"/></linearGradient><path class="st8" d="M654.3 784.1c15.3 8.7 31.9 13.2 49.7 13.6 10.1 6.3 28.6 20.2 28.6 20.2s43.5 26.2 79 17.1c32-8.2 69.6-32.4 82-69.3 4.6-13.7 6.4-29.5 8-43.8.4-3.9 9.5-57.1 9.5-57.1s2.1-49-7.1-74.3c-11.9-32.7-27.8-57-48.1-85.6-9.3-13.1-19.6-25.3-31.4-36.3-20.2-18.9-42-37.6-65.7-52.2-23.7-14.6-49.7-26.3-75.8-36-25.9-9.6-53.3-13.4-80.6-17.4-27.3-4-54.3-1.5-81.7 1.9-18.5 2.3-36.3 9.7-53.3 16.7-3.1 1.3-6.1 2.5-9 4.1-13.2 7.5-27.2 16.8-38.4 26.9-25.6 22.9-42.8 52.7-60.3 81.7-12.5 20.8-25 41.6-37.5 62.3-17.9 29.8-27.5 71.2-18.1 105.6l12.3 33.6c8.1 17.2 19.9 31.2 35.2 41.8 8.7 9.4 19.2 16.1 31.5 19.9 16.2 9.2 33.9 13.8 52.9 13.7 16.5-.2 32.3-2.6 47.2-7.3 0 .2 68.1-28.8 171.1 20.2z"/><linearGradient id="SVGID_10_" gradientUnits="userSpaceOnUse" x1="-4813.001" y1="2243.221" x2="-5607.815" y2="866.562" gradientTransform="rotate(135.21 -665.598 1141.96) scale(.3796)"><stop offset="0" stop-color="#F7DBEA"/><stop offset=".064" stop-color="#F0DBEB"/><stop offset=".694" stop-color="#B4DAF4"/><stop offset=".994" stop-color="#99DBF9"/></linearGradient><path class="st9" d="M611.4 788.6c12.8 11.8 27.8 19.8 44.9 24.2 8.4 8.3 23.1 25.9 23.1 25.9s36.2 35 72.5 34.1c32.7-.8 74.4-15.8 94.6-48.6 7.5-12.2 12.7-27.1 17.5-40.5 1.3-3.6 21.9-53 21.9-53s13-46.8 9.7-73.3c-4.3-34.2-14.1-61.2-27.4-93.4-6.1-14.7-13.3-28.8-22.2-42-15.3-22.8-32.2-45.6-51.8-65-19.6-19.4-42.2-36.5-65.2-51.6-22.9-15.1-48.5-24.8-74-34.8-25.5-10-52.1-13.6-79.3-16.3-18.4-1.9-37.2 1.3-55.2 4.2-3.3.5-6.5 1-9.7 2-14.4 4.3-30 10.2-43.1 17.4-29.8 16.4-53.1 41.4-76.4 65.5l-50.1 51.9c-24 24.8-42.4 62.7-41 98l4.4 35.2c4 18.5 12.2 34.5 24.7 48.2 6.3 11.1 15 19.8 26 26.2 13.6 12.5 29.6 20.9 48.1 25 16 3.5 31.8 4.7 47.2 3.4 0-.1 72.3-13 160.8 57.3z"/><linearGradient id="SVGID_11_" gradientUnits="userSpaceOnUse" x1="-6592.192" y1="1371.606" x2="-7387.007" y2="-5.053" gradientTransform="rotate(122.832 -915.817 1204.49) scale(.3248)"><stop offset="0" stop-color="#F7DBEA"/><stop offset=".064" stop-color="#F0DBEB"/><stop offset=".694" stop-color="#B4DAF4"/><stop offset=".994" stop-color="#99DBF9"/></linearGradient><path class="st10" d="M641.4 757.3c12.9 7.5 26.9 11.5 42 12 8.5 5.4 24.1 17.4 24.1 17.4s36.6 22.6 66.8 15.2c27.2-6.6 59.3-26.9 70.2-58 4-11.6 5.7-25 7.2-37.1.4-3.3 8.6-48.3 8.6-48.3s2.2-41.5-5.4-63.1c-9.8-27.8-23-48.6-40-73.1-7.8-11.2-16.4-21.6-26.3-31-17-16.2-35.3-32.2-55.2-44.9-19.9-12.6-42-22.8-63.9-31.2-21.9-8.4-45.1-11.8-68.2-15.5-23.1-3.7-46-1.8-69.3.9-15.7 1.8-30.8 7.9-45.3 13.7-2.6 1-5.2 2.1-7.7 3.4-11.3 6.2-23.2 14-32.8 22.4-21.9 19.1-36.8 44.3-51.8 68.7L362 561.3c-15.5 25.1-23.9 60.2-16.3 89.4l10.1 28.6c6.7 14.7 16.6 26.6 29.5 35.8 7.3 8.1 16.2 13.8 26.5 17.1 13.7 8 28.6 12 44.7 12.1 14 0 27.4-1.9 40.1-5.8-.1.3 57.9-23.7 144.8 18.8z"/><linearGradient id="SVGID_12_" gradientUnits="userSpaceOnUse" x1="-7161.347" y1="-300.805" x2="-7956.161" y2="-1677.465" gradientTransform="rotate(110.376 -1207.796 1203.57) scale(.321)"><stop offset="0" stop-color="#F7DBEA"/><stop offset=".064" stop-color="#F0DBEB"/><stop offset=".694" stop-color="#B4DAF4"/><stop offset=".994" stop-color="#99DBF9"/></linearGradient><path class="st11" d="M673.4 743.4c14 4.5 28.4 5.3 43.1 2.6 9.4 3.4 27 11.7 27 11.7s40.2 14 67.7.4c24.8-12.2 51.5-38.6 55.3-71 1.4-12 .1-25.3-1-37.3-.3-3.2-2-48.5-2-48.5s-6.7-40.5-18.6-59.7c-15.4-24.8-32.6-42-54.2-62-9.9-9.1-20.5-17.4-32-24.4-19.9-12-40.9-23.6-62.9-31.5-22-7.9-45.4-13-68.4-16.5-22.9-3.4-46.1-1.8-69.1-.4-23.1 1.4-44.8 8.1-66.7 15.6-14.8 5.1-28.1 14.2-40.8 22.9-2.3 1.6-4.6 3.1-6.7 4.9-9.6 8.4-19.4 18.5-26.9 28.7-17.1 23.2-26 50.6-35.4 77.4l-20.1 57.6c-9.6 27.5-10.3 63.2 3.3 89.8l15.9 25.5c9.6 12.7 21.7 22.2 36.1 28.3 8.8 6.2 18.5 9.9 29.3 10.9 14.9 4.8 30.2 5.5 45.8 2.1 13.5-3 26-7.7 37.5-14.1 0 .1 50.9-35.5 143.8-13z"/><linearGradient id="SVGID_13_" gradientUnits="userSpaceOnUse" x1="-7006.449" y1="1346.435" x2="-7801.264" y2="-30.225" gradientTransform="scale(.3104) rotate(121.606 -3022.77 3935.276)"><stop offset="0" stop-color="#F7DBEA"/><stop offset=".064" stop-color="#F0DBEB"/><stop offset=".694" stop-color="#B4DAF4"/><stop offset=".994" stop-color="#99DBF9"/></linearGradient><path class="st12" d="M641.2 747.2c12.5 6.9 25.9 10.4 40.4 10.6 8.2 5 23.4 16.2 23.4 16.2s35.5 20.8 64.2 13.2c25.9-6.9 56.1-26.9 65.8-56.9 3.6-11.1 4.9-24 6.1-35.6.3-3.1 7.2-46.3 7.2-46.3s1.3-39.7-6.4-60.2c-10-26.4-23-46-39.8-69-7.7-10.5-16.1-20.3-25.8-29.1-16.6-15.1-34.4-30.1-53.7-41.7-19.3-11.7-40.6-20.9-61.8-28.5-21.1-7.6-43.4-10.4-65.5-13.4-22.2-3-44-.7-66.2 2.3-15 2-29.3 8.2-43 14-2.5 1.1-5 2.1-7.3 3.4-10.7 6.2-21.9 13.9-30.9 22.1-20.6 18.8-34.2 43.1-48.1 66.8-10 17-19.9 33.9-29.9 50.9-14.3 24.3-21.6 58-13.7 85.8l10.3 27.2c6.8 13.9 16.4 25.1 28.9 33.6 7.2 7.6 15.7 12.8 25.7 15.8 13.2 7.3 27.6 10.9 43 10.6 13.4-.3 26.1-2.4 38.2-6.4 0-.1 55-24.2 138.9 14.6z"/><linearGradient id="SVGID_14_" gradientUnits="userSpaceOnUse" x1="-6727.922" y1="4257.005" x2="-7522.737" y2="2880.346" gradientTransform="rotate(138.59 -583.32 1274.853) scale(.272)"><stop offset="0" stop-color="#F7DBEA"/><stop offset=".064" stop-color="#F0DBEB"/><stop offset=".694" stop-color="#B4DAF4"/><stop offset=".994" stop-color="#99DBF9"/></linearGradient><path class="st13" d="M596.1 733.2c8.7 9 19.1 15.4 31.1 19.2 5.6 6.3 15.5 19.5 15.5 19.5s24.4 26.5 50.4 27.5c23.4.8 53.9-8.2 69.7-30.8 5.9-8.4 10.2-18.9 14.2-28.3 1.1-2.5 17.9-37 17.9-37s11.2-33 10-52.1c-1.6-24.7-7.5-44.4-15.7-68-3.7-10.8-8.3-21.2-14.1-31-10-16.9-21.1-34-34.3-48.7-13.2-14.7-28.6-27.9-44.5-39.7-15.8-11.8-33.7-19.8-51.5-28-17.8-8.2-36.7-11.9-56-15-13.1-2.1-26.7-.7-39.7.7-2.4.2-4.7.5-7 1-10.5 2.5-21.9 6-31.6 10.6-22 10.5-39.7 27.4-57.4 43.6-12.7 11.7-25.4 23.3-38.1 35-18.2 16.7-33 43.1-33.5 68.4l1.7 25.4c2.1 13.4 7.3 25.2 15.6 35.6 4.1 8.2 9.9 14.8 17.5 19.8 9.2 9.5 20.3 16.2 33.3 19.9 11.3 3.2 22.5 4.7 33.6 4.5.3.1 52.5-6.1 112.9 47.9z"/><linearGradient id="SVGID_15_" gradientUnits="userSpaceOnUse" x1="-8976.326" y1="1760.791" x2="-9771.141" y2="384.131" gradientTransform="rotate(119.842 -957.62 1295.612) scale(.25)"><stop offset="0" stop-color="#F7DBEA"/><stop offset=".064" stop-color="#F0DBEB"/><stop offset=".694" stop-color="#B4DAF4"/><stop offset=".994" stop-color="#99DBF9"/></linearGradient><path class="st14" d="M632.5 716.9c10.3 5.3 21.2 7.8 32.9 7.6 6.8 3.9 19.3 12.5 19.3 12.5s29.2 16 52.2 9c20.7-6.2 44.7-23.2 51.8-47.7 2.6-9.1 3.4-19.5 4-28.9.2-2.5 4.7-37.7 4.7-37.7s0-32.2-6.7-48.5c-8.7-21.1-19.8-36.6-33.9-54.8-6.5-8.3-13.6-16-21.6-22.9-13.8-11.8-28.6-23.5-44.5-32.4-15.9-8.9-33.3-15.9-50.7-21.5-17.3-5.6-35.3-7.3-53.3-9.2-18-1.9-35.6.5-53.5 3.5-12.1 2-23.5 7.3-34.5 12.4-2 .9-4 1.8-5.8 3-8.5 5.3-17.4 11.8-24.5 18.7-16.2 15.7-26.6 35.7-37.2 55.2-7.6 14-15.2 27.9-22.9 41.9-10.9 20-16 47.4-9 69.7l9 21.7c5.8 11.1 13.9 19.9 24.2 26.4 6 5.9 13 10 21.2 12.1 10.9 5.6 22.6 8.1 35.1 7.5 10.8-.6 21.1-2.6 30.7-6.1.3.1 44.2-20.8 113 8.5z"/><linearGradient id="SVGID_16_" gradientUnits="userSpaceOnUse" x1="-10916.856" y1="-1628.762" x2="-11711.671" y2="-3005.421" gradientTransform="rotate(100.883 -1399.94 1330.385) scale(.222)"><stop offset="0" stop-color="#F7DBEA"/><stop offset=".064" stop-color="#F0DBEB"/><stop offset=".694" stop-color="#B4DAF4"/><stop offset=".994" stop-color="#99DBF9"/></linearGradient><path class="st15" d="M661.8 686.7c10.1 1.5 20 .4 29.7-3.1 6.8 1.3 19.7 4.9 19.7 4.9s29 5 46.3-7.4c15.6-11.2 30.7-32.2 29.7-54.8-.4-8.4-2.8-17.3-4.9-25.3-.6-2.2-6.9-32.8-6.9-32.8s-9.2-26.9-19.5-38.6c-13.4-15.1-27.1-24.9-44.1-36.1-7.8-5.1-16-9.5-24.6-13-14.9-5.9-30.6-11.4-46.5-14.3-15.9-2.9-32.4-3.7-48.6-3.4-16.1.3-31.7 4-47.2 7.6-15.6 3.6-29.6 10.6-43.7 18.3-9.5 5.2-17.6 12.9-25.3 20.3-1.4 1.3-2.8 2.6-4 4.1-5.6 6.8-11.1 14.8-15.1 22.6-9 17.8-12 37.5-15.3 56.9-2.4 13.9-4.7 27.7-7.1 41.6-3.4 19.9.2 44.3 12.5 60.9l13.8 15.6c8 7.6 17.3 12.6 27.9 15.2 6.7 3.3 13.8 4.6 21.2 4.1 10.7 1.6 21.2.3 31.5-3.8 8.9-3.6 16.9-8.2 24-13.9-.2-.2 30.5-30.3 96.5-25.6z"/><linearGradient id="SVGID_17_" gradientUnits="userSpaceOnUse" x1="-12136.45" y1="-2574.684" x2="-12931.265" y2="-3951.343" gradientTransform="rotate(96.728 -1500.156 1361.182) scale(.2)"><stop offset="0" stop-color="#F7DBEA"/><stop offset=".064" stop-color="#F0DBEB"/><stop offset=".694" stop-color="#B4DAF4"/><stop offset=".994" stop-color="#99DBF9"/></linearGradient><path class="st16" d="M662.6 674.5c9.2.7 18.1-.9 26.6-4.8 6.2.7 18.1 3.1 18.1 3.1s26.5 2.6 41.3-9.7c13.3-11.1 25.6-31.1 23.2-51.3-.9-7.5-3.7-15.4-6.1-22.5-.7-1.9-8.4-29.2-8.4-29.2s-10.1-23.7-20.1-33.6c-13-12.8-26-20.7-42.1-29.7-7.4-4.1-15-7.5-23-10.1-13.8-4.4-28.4-8.3-42.9-9.9-14.5-1.6-29.5-1.2-44 .1s-28.3 5.7-42.1 9.9c-13.9 4.3-26 11.5-38.2 19.3-8.2 5.3-15 12.8-21.5 19.9-1.2 1.3-2.3 2.6-3.3 4-4.6 6.5-9.1 14.1-12.1 21.4-7 16.6-8.4 34.6-10.1 52.3-1.2 12.7-2.5 25.3-3.7 38-1.8 18.2 3.1 39.9 15.3 54.1l13.4 13.2c7.7 6.3 16.4 10.3 26.1 11.9 6.3 2.5 12.7 3.3 19.4 2.3 9.8.7 19.1-1.1 28.1-5.5 7.8-3.8 14.7-8.5 20.7-14.1-.1 0 25.6-29.1 85.4-29.1z"/><linearGradient id="SVGID_18_" gradientUnits="userSpaceOnUse" x1="-12815.637" y1="-2842.31" x2="-13610.451" y2="-4218.97" gradientTransform="matrix(-.02 .19 -.19 -.02 -305.126 3024.658)"><stop offset="0" stop-color="#F7DBEA"/><stop offset=".064" stop-color="#F0DBEB"/><stop offset=".694" stop-color="#B4DAF4"/><stop offset=".994" stop-color="#99DBF9"/></linearGradient><path class="st17" d="M661.2 669.9c8.7.5 17.1-1.2 25.2-4.9 5.9.6 17.2 2.7 17.2 2.7s25.2 2 39-9.8c12.5-10.7 23.8-29.9 21.2-49-1-7.1-3.7-14.6-6.1-21.3-.7-1.8-8.4-27.6-8.4-27.6s-9.9-22.3-19.6-31.6c-12.6-11.9-25-19.3-40.4-27.5-7-3.8-14.4-6.9-22-9.2-13.2-4-27-7.5-40.8-8.8-13.8-1.3-28-.7-41.8.7-13.7 1.4-26.8 5.8-39.8 10.1-13.1 4.2-24.5 11.3-36 18.9-7.7 5.1-14 12.3-20.1 19.2-1.1 1.2-2.2 2.5-3.1 3.8-4.2 6.3-8.4 13.5-11.2 20.5-6.4 15.9-7.4 33-8.8 49.8-1 12-2 24.1-2.9 36.1-1.4 17.3 3.5 37.8 15.3 51.1l12.9 12.3c7.4 5.9 15.8 9.5 25 10.9 6 2.3 12.1 2.9 18.4 1.9 9.3.5 18.2-1.3 26.6-5.6 7.3-3.7 13.8-8.3 19.4-13.7 0 0 24-28.1 80.8-29z"/><linearGradient id="SVGID_19_" gradientUnits="userSpaceOnUse" x1="-11989.659" y1="-8915.99" x2="-12784.474" y2="-10292.649" gradientTransform="rotate(71.397 -2381.136 1392.887) scale(.177)"><stop offset="0" stop-color="#F7DBEA"/><stop offset=".064" stop-color="#F0DBEB"/><stop offset=".694" stop-color="#B4DAF4"/><stop offset=".994" stop-color="#99DBF9"/></linearGradient><path class="st18" d="M680.5 640.9c7.6-2.9 14-7.6 19.4-13.8 5.2-1.8 15.6-4.3 15.6-4.3s22.1-7.9 29.2-23.3c6.4-13.9 8.7-34.4-.9-49.7-3.6-5.7-8.7-10.9-13.4-15.7-1.3-1.3-17.7-20.1-17.7-20.1s-16.9-15.1-28.7-19.2c-15.2-5.3-28.6-6.7-44.8-7.8-7.4-.5-14.8-.4-22.2.6-12.7 1.7-25.7 4.1-37.9 8.3-12.2 4.2-24 10.1-35.1 16.7-11 6.5-20.4 15.2-29.8 23.8-9.4 8.6-16.4 19-23.2 29.8-4.6 7.3-7.1 15.8-9.6 24-.4 1.5-.9 2.9-1.2 4.5-1.2 6.9-1.9 14.7-1.6 21.6.7 15.9 6.4 30.8 11.7 45.5 3.8 10.6 7.6 21.1 11.4 31.7 5.4 15.1 17.5 30.7 32.6 37.4l15.7 5.4c8.6 2.1 17 2 25.3-.4 5.9-.4 11.4-2.2 16.3-5.5 8-3.1 14.8-8.1 20.4-15 4.8-6 8.5-12.3 11.2-19.1.1.1 9.6-32.9 57.3-55.4z"/><linearGradient id="SVGID_20_" gradientUnits="userSpaceOnUse" x1="-13956.274" y1="-5199.291" x2="-14751.089" y2="-6575.95" gradientTransform="matrix(.008 .172 -.172 .008 -278.78 3096.38)"><stop offset="0" stop-color="#F7DBEA"/><stop offset=".064" stop-color="#F0DBEB"/><stop offset=".694" stop-color="#B4DAF4"/><stop offset=".994" stop-color="#99DBF9"/></linearGradient><path class="st19" d="M668.4 656.6c7.9-.7 15.1-3.3 21.8-7.7 5.3-.3 15.7.1 15.7.1s22.7-1.5 33.5-13.9c9.7-11.2 17.3-29.8 12.5-46.5-1.8-6.2-5.2-12.5-8.3-18.2-.8-1.5-11.1-23.5-11.1-23.5s-11.8-18.6-21.6-25.5c-12.8-9-24.8-13.9-39.7-19.2-6.8-2.4-13.7-4.3-20.8-5.3-12.3-1.8-25.1-3.1-37.6-2.4-12.5.7-25.1 3-37.1 6.1-12 3.1-23.1 8.7-34.2 14.2-11.1 5.5-20.4 13.3-29.6 21.6-6.2 5.6-10.9 12.8-15.4 19.8-.8 1.3-1.6 2.5-2.3 3.8-3 6.1-5.7 13.2-7.3 19.7-3.6 15-2.3 30.4-1.3 45.5.7 10.9 1.4 21.7 2.1 32.6 1 15.6 8.1 33.3 20.4 43.6l13.1 9.2c7.4 4.3 15.3 6.4 23.7 6.4 5.6 1.2 11.2 1 16.7-.7 8.3-.8 16-3.6 23-8.5 6-4.3 11.2-9.2 15.5-14.8.1 0 17.8-28.2 68.3-36.4z"/><linearGradient id="SVGID_21_" gradientUnits="userSpaceOnUse" x1="-15614.768" y1="-7455.525" x2="-16409.582" y2="-8832.185" gradientTransform="rotate(81.536 -1939.95 1437.547) scale(.15)"><stop offset="0" stop-color="#F7DBEA"/><stop offset=".064" stop-color="#F0DBEB"/><stop offset=".694" stop-color="#B4DAF4"/><stop offset=".994" stop-color="#99DBF9"/></linearGradient><path class="st20" d="M666.4 645.4c6.8-1.3 12.8-4.2 18.2-8.6 4.6-.7 13.7-1.3 13.7-1.3s19.6-3.3 27.8-15.1c7.4-10.6 12.4-27.4 6.6-41.5-2.1-5.2-5.7-10.4-8.8-15-.9-1.3-11.7-19.4-11.7-19.4s-11.9-15.1-21.1-20.2c-11.9-6.6-22.8-9.8-36.1-13.1-6.1-1.5-12.3-2.5-18.6-2.8-10.8-.4-22-.4-32.8 1.3-10.8 1.7-21.5 4.9-31.7 8.7-10.2 3.8-19.2 9.6-28.4 15.4-9.1 5.8-16.5 13.4-23.7 21.4-4.9 5.4-8.3 12.1-11.5 18.5-.6 1.2-1.2 2.3-1.6 3.5-2 5.6-3.8 11.9-4.5 17.8-1.8 13.3.8 26.6 3 39.6 1.6 9.4 3.2 18.7 4.8 28.1 2.3 13.4 10 28.1 21.6 36l12.2 6.8c6.8 3 13.8 4.2 21.1 3.4 5 .6 9.8-.1 14.4-2.1 7.2-1.4 13.6-4.5 19.2-9.4 4.9-4.3 8.9-9 12.1-14.2-.1 0 12.7-26 55.8-37.8z"/><linearGradient id="SVGID_22_" gradientUnits="userSpaceOnUse" x1="-14187.247" y1="-12849.186" x2="-14982.061" y2="-14225.846" gradientTransform="matrix(.06 .126 -.126 .06 -205.706 3242.693)"><stop offset="0" stop-color="#F7DBEA"/><stop offset=".064" stop-color="#F0DBEB"/><stop offset=".694" stop-color="#B4DAF4"/><stop offset=".994" stop-color="#99DBF9"/></linearGradient><path class="st21" d="M671.1 628.1c5.6-3 10.2-7.3 13.8-12.7 3.9-1.9 11.8-4.9 11.8-4.9s16.5-8.4 20.6-21.1c3.7-11.4 3.4-27.7-5.5-38.7-3.3-4.1-7.9-7.7-12-10.9-1.1-.9-15.8-14-15.8-14s-14.7-10.1-24.3-12.2c-12.4-2.6-23-2.5-35.7-1.7-5.8.3-11.6 1.2-17.3 2.7-9.7 2.6-19.7 5.7-28.8 10.2-9.1 4.5-17.7 10.3-25.8 16.4-8 6.1-14.4 13.9-21 21.5-6.5 7.6-11 16.4-15.2 25.6-2.9 6.1-4 13.1-5.2 19.7-.2 1.2-.4 2.4-.5 3.6-.2 5.5-.1 11.6.9 17.1 2.1 12.3 8 23.4 13.6 34.4 4 7.9 8 15.8 12 23.6 5.7 11.3 16.7 22.3 29.1 26l12.8 2.7c6.9.8 13.5-.1 19.7-2.8 4.6-.9 8.7-2.8 12.2-5.9 6-3.2 10.8-7.8 14.5-13.7 3.1-5.1 5.4-10.5 6.9-16 0 0 4.2-26.6 39.2-48.9z"/><linearGradient id="SVGID_23_" gradientUnits="userSpaceOnUse" x1="-10783.597" y1="-19674.982" x2="-11578.411" y2="-21051.643" gradientTransform="rotate(43.93 -4199.762 1511.606) scale(.122)"><stop offset="0" stop-color="#F7DBEA"/><stop offset=".064" stop-color="#F0DBEB"/><stop offset=".694" stop-color="#B4DAF4"/><stop offset=".994" stop-color="#99DBF9"/></linearGradient><path class="st22" d="M665.4 608.3c3.7-4.2 6.2-9.1 7.4-14.6 2.6-2.7 8.1-7.6 8.1-7.6s10.9-11.9 10.4-23.5c-.5-10.5-5.6-23.8-16.3-30-4-2.3-8.8-3.9-13.1-5.3-1.2-.4-17.2-6.6-17.2-6.6s-15.1-3.8-23.6-2.5c-10.9 1.6-19.5 5-29.8 9.5-4.7 2.1-9.1 4.5-13.3 7.5-7.2 5.1-14.4 10.7-20.5 17.1-6.1 6.4-11.4 13.8-16.1 21.3-4.7 7.5-7.6 15.8-10.6 24-3 8.3-4 16.8-4.6 25.6-.5 5.9.7 11.9 1.8 17.7.2 1 .4 2.1.7 3.1 1.5 4.6 3.5 9.5 5.9 13.7 5.5 9.4 13.7 16.7 21.6 24 5.7 5.2 11.3 10.5 17 15.7 8.1 7.5 20.4 13.1 31.8 12.4l11.3-1.7c5.9-1.4 11-4.2 15.3-8.3 3.5-2.1 6.2-5 8.2-8.5 3.9-4.5 6.5-9.7 7.7-15.6 1-5.2 1.3-10.2.7-15.2 0-.2-4.7-23.3 17.2-52.2z"/><linearGradient id="SVGID_24_" gradientUnits="userSpaceOnUse" x1="-3365.573" y1="-24180.416" x2="-4160.388" y2="-25557.074" gradientTransform="rotate(21.456 -8914.764 1553.9) scale(.114)"><stop offset="0" stop-color="#F7DBEA"/><stop offset=".064" stop-color="#F0DBEB"/><stop offset=".694" stop-color="#B4DAF4"/><stop offset=".994" stop-color="#99DBF9"/></linearGradient><path class="st23" d="M655.9 589c1.7-5 2.1-10.1 1.3-15.3 1.3-3.3 4.4-9.5 4.4-9.5s5.3-14.2.7-24.1c-4.1-8.9-13.3-18.6-24.8-20.2-4.3-.6-9-.2-13.3.1-1.2.1-17.2.3-17.2.3s-14.5 2.1-21.4 6.2c-8.9 5.3-15.2 11.3-22.4 18.8-3.3 3.4-6.3 7.1-8.9 11.2-4.4 7-8.7 14.4-11.7 22.1-3 7.7-5 16-6.4 24.2-1.4 8.1-1 16.4-.7 24.6.3 8.2 2.5 16 5 23.8 1.7 5.3 4.8 10.1 7.8 14.7.5.8 1.1 1.7 1.7 2.4 2.9 3.5 6.4 7 10 9.8 8.1 6.2 17.8 9.6 27.2 13.2 6.8 2.5 13.5 5 20.3 7.6 9.7 3.6 22.4 4.1 31.9-.5l9.2-5.4c4.6-3.3 8-7.5 10.3-12.6 2.3-3.1 3.6-6.5 4.1-10.3 1.8-5.3 2.2-10.7 1.1-16.2-1-4.8-2.5-9.3-4.7-13.4 0-.3-12.2-18.7-3.5-51.5z"/><linearGradient id="SVGID_25_" gradientUnits="userSpaceOnUse" x1="-6789.661" y1="-26219.023" x2="-7584.476" y2="-27595.682" gradientTransform="matrix(.09 .048 -.048 .09 -49.242 3353.98)"><stop offset="0" stop-color="#F7DBEA"/><stop offset=".064" stop-color="#F0DBEB"/><stop offset=".694" stop-color="#B4DAF4"/><stop offset=".994" stop-color="#99DBF9"/></linearGradient><path class="st24" d="M651.7 597.2c2-4.2 2.9-8.7 2.7-13.4 1.5-2.8 4.8-7.9 4.8-7.9s6.1-12 3.1-21.2c-2.7-8.3-9.9-17.8-19.8-20.4-3.7-1-7.9-1.1-11.7-1.3-1 0-15.3-1.5-15.3-1.5s-13 .3-19.5 3.2c-8.4 3.8-14.6 8.4-21.8 14.3-3.3 2.7-6.3 5.7-9 9-4.6 5.7-9.2 11.8-12.6 18.3-3.4 6.5-6.1 13.7-8.1 20.7-2.1 7-2.6 14.4-3.1 21.7-.6 7.3.6 14.4 2 21.6 1 4.8 3.2 9.4 5.4 13.8.4.8.8 1.6 1.3 2.3 2.2 3.4 5 6.9 7.8 9.7 6.5 6.4 14.7 10.4 22.7 14.5 5.7 2.9 11.5 5.9 17.2 8.8 8.2 4.2 19.4 6 28.3 2.9l8.7-3.9c4.4-2.5 7.9-5.8 10.4-10.1 2.3-2.5 3.9-5.4 4.7-8.7 2.1-4.5 3-9.2 2.7-14.3-.3-4.4-1.3-8.5-2.8-12.4-.3 0-9.2-17.5 1.9-45.7z"/><linearGradient id="SVGID_26_" gradientUnits="userSpaceOnUse" x1="1018.811" y1="-28262.4" x2="223.996" y2="-29639.059" gradientTransform="matrix(.097 .018 -.018 .097 13.79 3386.93)"><stop offset="0" stop-color="#F7DBEA"/><stop offset=".064" stop-color="#F0DBEB"/><stop offset=".694" stop-color="#B4DAF4"/><stop offset=".994" stop-color="#99DBF9"/></linearGradient><path class="st25" d="M643.3 583.9c.6-4.5.1-8.9-1.4-13.1.5-3 2.1-8.7 2.1-8.7s2.1-12.8-3.4-20.5c-5-6.9-14.3-13.5-24.3-13-3.7.2-7.7 1.3-11.2 2.2-1 .3-14.5 3.1-14.5 3.1s-11.9 4.1-17.1 8.7c-6.7 5.9-11 12-15.9 19.6-2.2 3.5-4.2 7.1-5.7 10.9-2.6 6.6-5 13.6-6.3 20.6-1.3 7-1.6 14.4-1.4 21.5.2 7.1 1.8 14 3.5 20.9 1.6 6.9 4.8 13.1 8.2 19.3 2.3 4.2 5.7 7.7 9 11.1l1.8 1.8c3 2.4 6.6 4.9 10 6.6 7.9 4 16.6 5.2 25.2 6.7 6.1 1 12.3 2 18.4 3.1 8.8 1.5 19.6-.2 26.9-5.7l6.9-6.1c3.3-3.6 5.6-7.7 6.7-12.3 1.4-3 2-6.1 1.8-9.4.7-4.7.1-9.4-1.7-13.9-1.6-3.9-3.7-7.5-6.2-10.6 0-.1-13.4-13.6-11.4-42.8z"/><linearGradient id="SVGID_27_" gradientUnits="userSpaceOnUse" x1="-11016.753" y1="-29428.158" x2="-11811.567" y2="-30804.818" gradientTransform="matrix(.072 .048 -.048 .072 -40.544 3313.472)"><stop offset="0" stop-color="#F7DBEA"/><stop offset=".064" stop-color="#F0DBEB"/><stop offset=".694" stop-color="#B4DAF4"/><stop offset=".994" stop-color="#99DBF9"/></linearGradient><path class="st26" d="M643.7 602.2c2.1-3.4 3.2-7.1 3.4-11.1 1.5-2.2 4.8-6.3 4.8-6.3s6.2-9.6 4.4-17.7c-1.6-7.3-6.8-16-15.1-19-3.1-1.1-6.6-1.7-9.8-2.1-.9-.1-12.8-2.6-12.8-2.6s-11-.8-16.8 1.1c-7.5 2.5-13.1 5.9-19.7 10.2-3 2-5.9 4.3-8.4 6.8-4.4 4.4-8.8 9.2-12.3 14.5-3.5 5.2-6.3 11-8.7 16.9-2.4 5.8-3.4 12-4.5 18.1-1.1 6.1-.7 12.2-.2 18.5.4 4.2 1.9 8.3 3.4 12.2.3.7.5 1.4.9 2.1 1.6 3 3.6 6.3 5.8 8.9 5 6 11.6 10.1 18 14.2 4.6 3 9.2 6 13.8 8.9 6.6 4.3 15.9 6.7 23.7 4.9l7.7-2.5c4-1.7 7.2-4.3 9.7-7.6 2.2-1.9 3.8-4.2 4.7-7 2.2-3.6 3.4-7.5 3.5-11.9.1-3.7-.3-7.3-1.3-10.7 0-.3-6-15.9 5.8-38.8z"/><linearGradient id="SVGID_28_" gradientUnits="userSpaceOnUse" x1="-1281.105" y1="-36766.352" x2="-2075.92" y2="-38143.012" gradientTransform="matrix(.072 .018 -.018 .072 26.37 3331.43)"><stop offset="0" stop-color="#F7DBEA"/><stop offset=".064" stop-color="#F0DBEB"/><stop offset=".694" stop-color="#B4DAF4"/><stop offset=".994" stop-color="#99DBF9"/></linearGradient><path class="st27" d="M632.9 592.1c.7-3.3.5-6.7-.4-10 .6-2.2 2-6.5 2-6.5s2.3-9.6-1.5-15.6c-3.4-5.4-10.1-10.9-17.7-11-2.8 0-5.8.6-8.6 1.1l-11.1 1.6s-9.2 2.5-13.3 5.7c-5.3 4.2-8.9 8.5-13 14-1.9 2.5-3.5 5.1-4.8 8-2.3 4.9-4.5 10-5.7 15.2-1.3 5.2-1.9 10.8-2.1 16.1-.2 5.4.7 10.7 1.6 15.9.9 5.3 2.9 10.1 5.2 15 1.5 3.3 3.9 6.1 6.2 8.9.4.5.8 1 1.3 1.4 2.2 2 4.7 4 7.3 5.5 5.7 3.4 12.3 4.8 18.7 6.3 4.6 1.1 9.2 2.2 13.8 3.2 6.6 1.5 14.8.8 20.6-2.9l5.5-4.3c2.7-2.5 4.6-5.5 5.6-9 1.2-2.2 1.8-4.5 1.8-7 .7-3.5.5-7.1-.6-10.6-1-3-2.4-5.8-4.2-8.3-.1.1-9.6-10.8-6.6-32.7z"/><linearGradient id="SVGID_29_" gradientUnits="userSpaceOnUse" x1="6248.049" y1="-38057.719" x2="5453.234" y2="-39434.379" gradientTransform="translate(61.575 3337.91) scale(.07)"><stop offset="0" stop-color="#F7DBEA"/><stop offset=".064" stop-color="#F0DBEB"/><stop offset=".694" stop-color="#B4DAF4"/><stop offset=".994" stop-color="#99DBF9"/></linearGradient><path class="st28" d="M627.6 586.7c0-3.3-.8-6.4-2.4-9.3.1-2.2.6-6.5.6-6.5s.2-9.4-4.5-14.3c-4.3-4.4-11.6-8.2-18.7-6.8-2.6.5-5.3 1.7-7.8 2.7-.7.3-10.1 3.7-10.1 3.7s-8.1 4.2-11.3 8c-4.2 4.9-6.6 9.7-9.4 15.6-1.3 2.7-2.3 5.5-3 8.4-1.2 5-2.2 10.2-2.4 15.4-.2 5.2.3 10.4 1.2 15.5.8 5.1 2.8 9.8 4.6 14.6 1.9 4.8 4.8 8.9 7.8 13 2.1 2.8 4.9 5 7.6 7.1.5.4 1 .8 1.5 1.1 2.4 1.4 5.2 2.8 7.9 3.7 6 2 12.4 2 18.7 2.2l13.5.3c6.5.1 14-2.1 18.7-6.8l4.3-5.1c2-2.9 3.2-6.1 3.5-9.5.7-2.3.8-4.6.3-6.9 0-3.5-.9-6.7-2.7-9.8-1.5-2.6-3.4-5-5.5-6.9.1.1-10.8-8.2-12.4-29.4z"/><linearGradient id="SVGID_30_" gradientUnits="userSpaceOnUse" x1="9352.031" y1="-41119.68" x2="8557.217" y2="-42496.336" gradientTransform="matrix(.065 0 0 .065 75.327 3326.417)"><stop offset="0" stop-color="#F7DBEA"/><stop offset=".064" stop-color="#F0DBEB"/><stop offset=".694" stop-color="#B4DAF4"/><stop offset=".994" stop-color="#99DBF9"/></linearGradient><path class="st29" d="M624.3 587c-.2-3-1.1-5.7-2.7-8.3-.1-2 .2-5.9.2-5.9s-.4-8.6-5-12.8c-4.1-3.8-11.1-6.8-17.4-5.1-2.4.6-4.8 1.9-6.9 3-.6.3-8.9 4-8.9 4s-7.1 4.3-9.8 7.9c-3.5 4.7-5.5 9.2-7.6 14.8-1 2.5-1.7 5.1-2.2 7.8-.8 4.6-1.4 9.4-1.2 14.1.1 4.7.9 9.5 2 14.1s3.1 8.8 5.1 13c2 4.2 4.8 7.8 7.9 11.4 2.1 2.4 4.8 4.2 7.3 6 .5.3.9.6 1.4.9 2.3 1.2 4.9 2.3 7.4 2.9 5.6 1.5 11.4 1.1 17.2.9 4.1-.2 8.2-.3 12.3-.5 5.9-.2 12.6-2.8 16.6-7.3l3.6-4.9c1.7-2.8 2.5-5.7 2.6-8.9.5-2.1.5-4.2-.1-6.3-.2-3.2-1.2-6.1-3-8.8-1.6-2.3-3.4-4.3-5.4-6-.2 0-10.7-6.9-13.4-26z"/><linearGradient id="SVGID_31_" gradientUnits="userSpaceOnUse" x1="14123.568" y1="-43985.398" x2="13328.754" y2="-45362.059" gradientTransform="rotate(-6.4 29356.32 815.918) scale(.06)"><stop offset="0" stop-color="#F7DBEA"/><stop offset=".064" stop-color="#F0DBEB"/><stop offset=".694" stop-color="#B4DAF4"/><stop offset=".994" stop-color="#99DBF9"/></linearGradient><path class="st30" d="M621 587.1c-.4-2.7-1.5-5.1-3.1-7.3-.2-1.8-.3-5.4-.3-5.4s-1-7.7-5.6-11.1c-4.1-3.1-10.6-5.2-16.2-3.2-2.1.8-4.2 2.1-6 3.3-.5.3-7.8 4.3-7.8 4.3s-6.1 4.5-8.2 8c-2.8 4.6-4.2 8.8-5.7 14-.7 2.4-1.1 4.8-1.3 7.3-.3 4.3-.5 8.7 0 12.9.5 4.3 1.6 8.5 3 12.6 1.3 4 3.5 7.7 5.7 11.4 2.1 3.7 5 6.7 8.1 9.6 2.1 2 4.7 3.4 7.1 4.8.4.2.9.5 1.4.7 2.2.9 4.6 1.6 6.9 2 5.2.9 10.5.1 15.6-.6l11.1-1.5c5.3-.7 11.2-3.6 14.4-8l2.9-4.7c1.3-2.6 1.8-5.4 1.6-8.3.3-2 .1-3.9-.6-5.7-.5-2.8-1.6-5.4-3.4-7.7-1.6-2-3.4-3.6-5.4-5-.1.1-10.2-5.3-14.2-22.4z"/><linearGradient id="SVGID_32_" gradientUnits="userSpaceOnUse" x1="9013.955" y1="-48525.883" x2="8219.141" y2="-49902.543" gradientTransform="matrix(.055 0 0 .055 75.656 3302.79)"><stop offset="0" stop-color="#F7DBEA"/><stop offset=".064" stop-color="#F0DBEB"/><stop offset=".694" stop-color="#B4DAF4"/><stop offset=".994" stop-color="#99DBF9"/></linearGradient><path class="st31" d="M622 590.3c-.1-2.5-.7-4.9-2-7.1 0-1.7.4-5 .4-5s0-7.3-3.8-11c-3.4-3.3-9.2-6.1-14.6-4.9-2 .5-4.1 1.4-6 2.3-.5.2-7.7 3.1-7.7 3.1s-6.2 3.4-8.6 6.4c-3.1 3.9-4.9 7.7-6.9 12.3-.9 2.1-1.6 4.3-2.1 6.6-.8 3.9-1.5 8-1.5 12s.5 8.1 1.2 12c.7 3.9 2.3 7.6 3.9 11.2 1.5 3.7 3.8 6.8 6.3 9.9 1.7 2.1 3.9 3.7 6 5.3.4.3.8.6 1.2.8 1.9 1.1 4.1 2.1 6.2 2.7 4.7 1.4 9.7 1.3 14.5 1.3H619c5 0 10.8-1.9 14.3-5.6l3.2-4c1.5-2.3 2.4-4.8 2.5-7.4.5-1.8.5-3.6.1-5.3-.1-2.7-.8-5.2-2.3-7.5-1.2-2-2.7-3.8-4.4-5.3-.1-.3-8.7-6.5-10.4-22.8z"/><linearGradient id="SVGID_33_" gradientUnits="userSpaceOnUse" x1="15775.762" y1="-47224.883" x2="14980.947" y2="-48601.543" gradientTransform="matrix(.054 -.007 .007 .054 93.922 3305.423)"><stop offset="0" stop-color="#F7DBEA"/><stop offset=".064" stop-color="#F0DBEB"/><stop offset=".694" stop-color="#B4DAF4"/><stop offset=".994" stop-color="#99DBF9"/></linearGradient><path class="st32" d="M619.6 588c-.4-2.5-1.4-4.7-3-6.7-.2-1.7-.4-5-.4-5s-1.1-7.2-5.3-10.2c-3.8-2.8-9.9-4.7-15.1-2.8-1.9.7-3.8 2-5.5 3.1-.5.3-7.1 4.1-7.1 4.1s-5.6 4.2-7.5 7.5c-2.5 4.3-3.8 8.2-5.1 13.1-.6 2.2-1 4.5-1.2 6.7-.3 3.9-.3 8 .2 12 .5 3.9 1.6 7.9 2.9 11.6 1.3 3.7 3.4 7.1 5.4 10.5 2 3.4 4.7 6.1 7.6 8.8 1.9 1.8 4.3 3.1 6.7 4.4.4.2.8.5 1.3.6 2 .8 4.3 1.5 6.4 1.8 4.8.8 9.7-.1 14.5-.8 3.4-.5 6.8-1 10.3-1.5 4.9-.7 10.3-3.4 13.3-7.6l2.6-4.4c1.2-2.5 1.6-5 1.4-7.7.2-1.8 0-3.6-.7-5.3-.5-2.6-1.5-5-3.3-7.1-1.5-1.8-3.2-3.3-5.1-4.5 0 .1-9.4-4.8-13.3-20.6z"/><linearGradient id="SVGID_34_" gradientUnits="userSpaceOnUse" x1="30039.713" y1="-41681.406" x2="29244.898" y2="-43058.066" gradientTransform="matrix(.048 -.022 .022 .048 133 3300.308)"><stop offset="0" stop-color="#F7DBEA"/><stop offset=".064" stop-color="#F0DBEB"/><stop offset=".694" stop-color="#B4DAF4"/><stop offset=".994" stop-color="#99DBF9"/></linearGradient><path class="st33" d="M613.4 585.2c-1.1-2.1-2.7-3.9-4.8-5.3-.7-1.5-1.8-4.5-1.8-4.5s-3.1-6.3-7.9-7.9c-4.3-1.4-10.5-1.4-14.7 2-1.6 1.2-2.9 3-4.2 4.5-.3.4-5.4 5.9-5.4 5.9s-3.9 5.5-4.7 9.2c-1 4.7-1 8.7-.8 13.5.1 2.2.4 4.4.9 6.6.9 3.7 2.1 7.5 3.7 11 1.7 3.5 3.8 6.8 6.1 9.8 2.3 3.1 5.2 5.5 8.1 8 2.9 2.5 6.2 4.2 9.6 5.9 2.3 1.1 4.9 1.6 7.4 2 .5.1.9.2 1.4.2 2.1.1 4.4.1 6.5-.3 4.7-.8 8.9-2.9 13.1-5l9-4.5c4.3-2.1 8.5-6.2 10-10.9l1.1-4.8c.3-2.6 0-5.1-1-7.5-.3-1.7-1-3.3-2.2-4.7-1.2-2.3-2.9-4.1-5.1-5.5-1.9-1.2-3.9-2.1-6-2.7.1.1-10-1.6-18.3-15z"/><linearGradient id="SVGID_35_" gradientUnits="userSpaceOnUse" x1="35908.242" y1="-40735.57" x2="35113.43" y2="-42112.23" gradientTransform="rotate(-31.162 6016.885 1413.195) scale(.05)"><stop offset="0" stop-color="#F7DBEA"/><stop offset=".064" stop-color="#F0DBEB"/><stop offset=".694" stop-color="#B4DAF4"/><stop offset=".994" stop-color="#99DBF9"/></linearGradient><path class="st34" d="M611 586c-1.3-1.9-2.9-3.4-5-4.5-.8-1.3-2.1-4-2.1-4s-3.5-5.6-8.2-6.6c-4.2-.9-10-.3-13.6 3.2-1.3 1.3-2.5 3.1-3.5 4.6-.3.4-4.5 6.1-4.5 6.1s-3.1 5.6-3.5 9.1c-.5 4.5-.1 8.3.6 12.8.3 2.1.8 4.1 1.5 6.1 1.2 3.4 2.7 6.8 4.6 9.9 1.9 3.1 4.2 6 6.7 8.6 2.4 2.6 5.4 4.7 8.3 6.8 2.9 2.1 6.2 3.4 9.6 4.6 2.3.8 4.8 1 7.2 1.2.4 0 .9.1 1.3.1 2-.1 4.1-.4 6-.9 4.3-1.2 8.1-3.6 11.8-6 2.7-1.7 5.4-3.4 8-5 3.8-2.4 7.4-6.7 8.3-11.2l.5-4.6c.1-2.5-.5-4.8-1.6-6.9-.5-1.6-1.3-3-2.5-4.2-1.3-2-3.1-3.6-5.3-4.7-1.9-1-3.9-1.6-5.9-1.9.1-.2-9.6-.9-18.7-12.6z"/><linearGradient id="SVGID_36_" gradientUnits="userSpaceOnUse" x1="52215.285" y1="-25325.231" x2="51420.469" y2="-26701.889" gradientTransform="matrix(.027 -.038 .038 .027 179.42 3262.472)"><stop offset="0" stop-color="#F7DBEA"/><stop offset=".064" stop-color="#F0DBEB"/><stop offset=".694" stop-color="#B4DAF4"/><stop offset=".994" stop-color="#99DBF9"/></linearGradient><path class="st35" d="M602.8 587.9c-1.8-1.2-3.7-1.8-5.9-2-1.2-.8-3.3-2.7-3.3-2.7s-5.1-3.5-9.4-2.6c-3.9.8-8.6 3.4-10.4 7.8-.7 1.6-1 3.5-1.3 5.2-.1.5-1.6 6.8-1.6 6.8s-.6 5.9.3 9c1.2 4 2.9 7.1 5.2 10.7 1 1.6 2.2 3.2 3.5 4.6 2.3 2.4 4.8 4.8 7.5 6.8 2.8 1.9 5.8 3.5 8.9 4.9 3.1 1.4 6.3 2 9.6 2.7 3.3.7 6.5.6 9.9.4 2.2-.1 4.4-.9 6.6-1.6.4-.1.8-.3 1.1-.4 1.7-.8 3.4-1.8 4.8-3 3.3-2.6 5.6-6.1 7.9-9.4 1.7-2.4 3.3-4.8 5-7.3 2.4-3.5 3.8-8.4 3-12.6L643 601c-.9-2.1-2.2-3.9-3.9-5.3-1-1.2-2.2-2.1-3.7-2.6-1.9-1.2-4-1.9-6.3-2-2-.1-3.9.1-5.8.5 0 0-8.4 3-20.5-3.7z"/><linearGradient id="SVGID_37_" gradientUnits="userSpaceOnUse" x1="53018.344" y1="-28178.713" x2="52223.531" y2="-29555.371" gradientTransform="rotate(-52.336 3425.273 1475.944) scale(.045)"><stop offset="0" stop-color="#F7DBEA"/><stop offset=".064" stop-color="#F0DBEB"/><stop offset=".694" stop-color="#B4DAF4"/><stop offset=".994" stop-color="#99DBF9"/></linearGradient><path class="st36" d="M603.8 588.5c-1.7-1.2-3.6-1.9-5.6-2.2-1.1-.8-3.1-2.7-3.1-2.7s-4.8-3.5-9-2.9c-3.8.6-8.5 3-10.3 7.1-.7 1.5-1.1 3.4-1.4 5-.1.4-1.8 6.5-1.8 6.5s-.8 5.7 0 8.7c1 3.9 2.6 6.9 4.6 10.5.9 1.6 2 3.2 3.2 4.6 2.1 2.4 4.4 4.9 7 6.8 2.6 2 5.5 3.6 8.4 5.1 2.9 1.4 6 2.2 9.2 3 3.1.8 6.3.8 9.5.7 2.2-.1 4.3-.7 6.4-1.3.4-.1.7-.2 1.1-.4 1.6-.7 3.4-1.6 4.8-2.7 3.2-2.4 5.6-5.6 8-8.8 1.7-2.3 3.4-4.5 5.1-6.8 2.4-3.3 4-8 3.3-12.1l-1-4.1c-.7-2.1-2-3.9-3.6-5.3-.9-1.2-2-2.1-3.4-2.7-1.8-1.3-3.8-2-6-2.2-1.9-.2-3.8-.1-5.6.3-.2.2-8.4 2.8-19.8-4.1z"/><linearGradient id="SVGID_38_" gradientUnits="userSpaceOnUse" x1="56031.516" y1="-41416.699" x2="55236.699" y2="-42793.359" gradientTransform="matrix(.028 -.026 .026 .028 153.728 3258.253)"><stop offset="0" stop-color="#F7DBEA"/><stop offset=".064" stop-color="#F0DBEB"/><stop offset=".694" stop-color="#B4DAF4"/><stop offset=".994" stop-color="#99DBF9"/></linearGradient><path class="st37" d="M607.2 591.1c-1.3-1.2-2.8-2.1-4.5-2.6-.8-.9-2.3-2.7-2.3-2.7s-3.6-3.6-7.3-3.7c-3.3 0-7.6 1.4-9.7 4.7-.8 1.2-1.4 2.7-1.9 4.1-.1.4-2.4 5.3-2.4 5.3s-1.4 4.7-1.2 7.4c.3 3.5 1.3 6.2 2.5 9.5.6 1.5 1.3 3 2.1 4.3 1.5 2.3 3.1 4.7 5.1 6.7 1.9 2 4.2 3.8 6.5 5.4 2.3 1.6 4.9 2.6 7.4 3.7 2.6 1.1 5.2 1.5 8 1.9 1.9.2 3.8 0 5.6-.3.3 0 .7-.1 1-.2 1.5-.4 3.1-1 4.4-1.6 3.1-1.6 5.5-4.1 7.9-6.4 1.7-1.7 3.5-3.4 5.2-5.1 2.5-2.4 4.5-6.2 4.4-9.8l-.4-3.6c-.4-1.9-1.1-3.5-2.4-5-.6-1.1-1.5-2-2.6-2.7-1.3-1.3-2.9-2.2-4.8-2.7-1.6-.4-3.2-.6-4.8-.5.3.2-7 1.3-15.8-6.1z"/><linearGradient id="SVGID_39_" gradientUnits="userSpaceOnUse" x1="71355.133" y1="-32305.621" x2="70560.32" y2="-33682.281" gradientTransform="matrix(.02 -.028 .028 .02 162.678 3239.6)"><stop offset="0" stop-color="#F7DBEA"/><stop offset=".064" stop-color="#F0DBEB"/><stop offset=".694" stop-color="#B4DAF4"/><stop offset=".994" stop-color="#99DBF9"/></linearGradient><path class="st38" d="M604 593.7c-1.3-.8-2.8-1.3-4.4-1.4-.9-.6-2.5-1.9-2.5-1.9s-3.8-2.5-7-1.8c-2.9.6-6.3 2.6-7.5 5.9-.5 1.2-.7 2.6-.9 3.9-.1.3-1 5-1 5s-.4 4.3.4 6.6c.9 2.9 2.3 5.2 4 7.8.8 1.2 1.7 2.3 2.7 3.3 1.7 1.8 3.6 3.5 5.7 4.9 2.1 1.4 4.3 2.5 6.6 3.5 2.3.9 4.7 1.4 7.1 1.8 2.4.5 4.8.3 7.3.1 1.7-.1 3.3-.7 4.8-1.3.3-.1.6-.2.8-.3 1.2-.6 2.5-1.4 3.5-2.3 2.4-1.9 4-4.5 5.6-7.1l3.6-5.4c1.7-2.6 2.7-6.2 2-9.3l-1-3c-.7-1.6-1.7-2.8-3-3.8-.7-.9-1.7-1.5-2.7-1.9-1.4-.9-3-1.3-4.7-1.4-1.5 0-2.9.1-4.2.5-.1 0-6.2 2.3-15.2-2.4z"/></svg>