<svg xmlns="http://www.w3.org/2000/svg" xmlns:xlink="http://www.w3.org/1999/xlink" viewBox="0 0 90.96 469.39" preserveAspectRatio="xMinYMin"><defs><style>.cls-1{fill:url(#linear-gradient)}.cls-2{fill:url(#linear-gradient-2)}.cls-12,.cls-15,.cls-18,.cls-21,.cls-24,.cls-27,.cls-3,.cls-6,.cls-9{fill:none;stroke:#f16248;stroke-miterlimit:10}.cls-3{stroke-width:.38px}.cls-4{fill:url(#linear-gradient-3)}.cls-5{fill:url(#linear-gradient-4)}.cls-6{stroke-width:.29px}.cls-7{fill:url(#linear-gradient-5)}.cls-8{fill:url(#linear-gradient-6)}.cls-9{stroke-width:.3px}.cls-10{fill:url(#linear-gradient-7)}.cls-11{fill:url(#linear-gradient-8)}.cls-12{stroke-width:.44px}.cls-13{fill:url(#linear-gradient-9)}.cls-14{fill:url(#linear-gradient-10)}.cls-15{stroke-width:.45px}.cls-16{fill:url(#linear-gradient-11)}.cls-17{fill:url(#linear-gradient-12)}.cls-18{stroke-width:.18px}.cls-19{fill:url(#linear-gradient-13)}.cls-20{fill:url(#linear-gradient-14)}.cls-21{stroke-width:.25px}.cls-22{fill:url(#linear-gradient-15)}.cls-23{fill:url(#linear-gradient-16)}.cls-24{stroke-width:.58px}.cls-25{fill:url(#linear-gradient-17)}.cls-26{fill:url(#linear-gradient-18)}.cls-27{stroke-width:.37px}</style><linearGradient id="linear-gradient" x1="715.97" y1="-359.06" x2="748.83" y2="-359.06" gradientTransform="rotate(79.6 127.1 -565.575)" gradientUnits="userSpaceOnUse"><stop offset=".15" stop-color="#f6916b"/><stop offset=".69" stop-color="#f27052"/><stop offset="1" stop-color="#f16248"/></linearGradient><linearGradient id="linear-gradient-2" x1="715.96" y1="-359.01" x2="748.83" y2="-359.01" gradientTransform="rotate(79.6 127.1 -565.575)" gradientUnits="userSpaceOnUse"><stop offset="0" stop-color="#f16248"/><stop offset=".15" stop-color="#f37153"/><stop offset=".42" stop-color="#f48360"/><stop offset=".69" stop-color="#f68d68"/><stop offset="1" stop-color="#f6916b"/></linearGradient><linearGradient id="linear-gradient-3" x1="-1079.97" y1="354.55" x2="-1047.1" y2="354.55" gradientTransform="matrix(.77 -.3 .25 .65 779.27 -536.03)" xlink:href="#linear-gradient"/><linearGradient id="linear-gradient-4" x1="-1079.49" y1="354.82" x2="-1046.62" y2="354.82" gradientTransform="matrix(.77 -.3 .25 .65 779.27 -536.03)" xlink:href="#linear-gradient-2"/><linearGradient id="linear-gradient-5" x1="-1139.64" y1="-243.75" x2="-1141.97" y2="-258.52" gradientTransform="matrix(-.55 .43 -.39 -.51 -692.45 756.49)" xlink:href="#linear-gradient"/><linearGradient id="linear-gradient-6" x1="-1136.1" y1="-245.79" x2="-1130.86" y2="-231.78" gradientTransform="matrix(-.55 .43 -.39 -.51 -692.45 756.49)" xlink:href="#linear-gradient"/><linearGradient id="linear-gradient-7" x1="-799.86" y1="79.6" x2="-801.43" y2="69.65" gradientTransform="matrix(.79 1.07 -1.27 .94 784.92 1229.55)" xlink:href="#linear-gradient"/><linearGradient id="linear-gradient-8" x1="-797.57" y1="77.99" x2="-794.04" y2="87.43" gradientTransform="matrix(.79 1.07 -1.27 .94 784.92 1229.55)" xlink:href="#linear-gradient"/><linearGradient id="linear-gradient-9" x1="797.86" y1="-1169.19" x2="795.53" y2="-1183.97" gradientTransform="rotate(48.7 -1084.078 -1305.525)" xlink:href="#linear-gradient"/><linearGradient id="linear-gradient-10" x1="801.26" y1="-1171.59" x2="806.5" y2="-1157.58" gradientTransform="rotate(48.7 -1084.078 -1305.525)" xlink:href="#linear-gradient"/><linearGradient id="linear-gradient-11" x1="-4371.83" y1="-1382.98" x2="-4338.96" y2="-1382.98" gradientTransform="matrix(.22 .31 .5 -.35 1705.13 1012.65)" xlink:href="#linear-gradient"/><linearGradient id="linear-gradient-12" x1="-4371.84" y1="-1382.93" x2="-4338.96" y2="-1382.93" gradientTransform="matrix(.22 .31 .5 -.35 1705.13 1012.65)" xlink:href="#linear-gradient-2"/><linearGradient id="linear-gradient-13" x1="-762.99" y1="-2911.83" x2="-730.13" y2="-2911.83" gradientTransform="matrix(.13 .68 -.63 .12 -1713.8 1148.02)" xlink:href="#linear-gradient"/><linearGradient id="linear-gradient-14" x1="-763" y1="-2911.78" x2="-730.13" y2="-2911.78" gradientTransform="matrix(.13 .68 -.63 .12 -1713.8 1148.02)" xlink:href="#linear-gradient-2"/><linearGradient id="linear-gradient-15" x1="-861.93" y1="-577.04" x2="-864.26" y2="-591.81" gradientTransform="matrix(.94 1.11 .87 -.74 1378.87 854.77)" xlink:href="#linear-gradient"/><linearGradient id="linear-gradient-16" x1="-858.53" y1="-579.43" x2="-853.29" y2="-565.42" gradientTransform="matrix(.94 1.11 .87 -.74 1378.87 854.77)" xlink:href="#linear-gradient"/><linearGradient id="linear-gradient-17" x1="-459.75" y1="619.85" x2="-462.08" y2="605.07" gradientTransform="matrix(-.31 .7 -.81 -.36 377.65 693.48)" xlink:href="#linear-gradient"/><linearGradient id="linear-gradient-18" x1="-456.35" y1="617.46" x2="-451.11" y2="631.47" gradientTransform="matrix(-.31 .7 -.81 -.36 377.65 693.48)" xlink:href="#linear-gradient"/></defs><title>Asset 7</title><g id="Layer_2" data-name="Layer 2"><g id="draft1"><path class="cls-1" d="M52.07 82.31C46.88 58.05 20 55 19.4 54.93c9.3 16.89 32.67 27.38 32.67 27.38z"/><path class="cls-2" d="M19.4 54.93s1.38 22.74 32.69 27.39c-.02-.01-23.39-10.5-32.69-27.39z"/><path class="cls-3" d="M16.53 47.88c5.54 21 35.54 34.43 35.54 34.43"/><path class="cls-4" d="M63.49 0C44.65 7.92 45.2 27.19 45.21 27.6 57.69 18.16 63.49 0 63.49 0z"/><path class="cls-5" d="M45.64 27.6s18-5 18.28-27.58c0-.02-6.28 18.14-18.28 27.58z"/><path class="cls-6" d="M39.89 30.84C56.06 23.3 63.49 0 63.49 0"/><path class="cls-7" d="M37.71 401.58s-2.07-11.91-17.07-12c6 10.13 17.07 12 17.07 12z"/><path class="cls-8" d="M37.38 401.58a28.12 28.12 0 0 1-17.07-12c-.75 13.2 17.07 12 17.07 12z"/><path class="cls-9" d="M37.38 401.58A28.11 28.11 0 0 1 17.91 385"/><path class="cls-10" d="M64.22 439.26S45.85 443 42.43 465.15c16.77-10.74 21.79-25.89 21.79-25.89z"/><path class="cls-11" d="M64.22 439.26s-5 15.15-21.75 25.89c19.86-.8 21.75-25.89 21.75-25.89z"/><path class="cls-12" d="M64.22 439.26s-6.46 19.51-29.15 29.94"/><path class="cls-13" d="M67.11 191s-17.86 3.88-17.56 27a45.69 45.69 0 0 0 17.56-27z"/><path class="cls-14" d="M67.11 191a45.69 45.69 0 0 1-17.52 27c19.87-.72 17.52-27 17.52-27z"/><path class="cls-15" d="M67.11 191a46 46 0 0 1-24.29 31.17"/><path class="cls-16" d="M69.32 141.57c-5-8 6.17-19.4 6.4-19.64.94 7.81-6.4 19.64-6.4 19.64z"/><path class="cls-17" d="M75.72 121.93s6.28 6.07-6.4 19.64c0 0 7.34-11.83 6.4-19.64z"/><path class="cls-18" d="M74.88 119.07c3.87 7.32-5.56 22.5-5.56 22.5"/><path class="cls-19" d="M29.13 292.46c-3.73-16.75-21.06-18.92-21.43-19 6.25 11.7 21.43 19 21.43 19z"/><path class="cls-20" d="M7.7 273.49s1.25 15.69 21.45 19c-.02-.03-15.2-7.33-21.45-19z"/><path class="cls-21" d="M5.74 268.62c3.9 14.48 23.4 23.84 23.4 23.84"/><path class="cls-22" d="M49.73 333.22s5.72-21.61 35.32-13.13c-14.93 15.47-35.32 13.13-35.32 13.13z"/><path class="cls-23" d="M49.73 333.22s20.39 2.34 35.27-13.09c-1.74 25.3-35.27 13.09-35.27 13.09z"/><path class="cls-24" d="M49.73 333.22s26.25 3 41-20.31"/><path class="cls-25" d="M33.77 151.15S23.6 139.22 6 146.25c14.65 7.75 27.77 4.9 27.77 4.9z"/><path class="cls-26" d="M33.77 151.15S20.65 154 6.05 146.28c8.59 14.33 27.72 4.87 27.72 4.87z"/><path class="cls-27" d="M33.77 151.15s-16.88 3.67-33.66-8.59"/></g></g></svg>