<svg xmlns="http://www.w3.org/2000/svg" xmlns:xlink="http://www.w3.org/1999/xlink" viewBox="0 0 557.24 259.28" preserveAspectRatio="xMinYMin"><defs><style>.cls-1{fill:url(#linear-gradient)}.cls-2{fill:url(#linear-gradient-2)}.cls-12,.cls-15,.cls-18,.cls-23,.cls-26,.cls-29,.cls-3,.cls-32,.cls-35,.cls-38,.cls-6,.cls-9{fill:none;stroke:#f16248;stroke-miterlimit:10}.cls-3{stroke-width:.3px}.cls-4{fill:url(#linear-gradient-3)}.cls-5{fill:url(#linear-gradient-4)}.cls-6{stroke-width:.39px}.cls-7{fill:url(#linear-gradient-5)}.cls-8{fill:url(#linear-gradient-6)}.cls-9{stroke-width:.36px}.cls-10{fill:url(#linear-gradient-7)}.cls-11{fill:url(#linear-gradient-8)}.cls-12{stroke-width:.23px}.cls-13{fill:url(#linear-gradient-9)}.cls-14{fill:url(#linear-gradient-10)}.cls-15{stroke-width:.15px}.cls-16{fill:url(#linear-gradient-11)}.cls-17{fill:url(#linear-gradient-12)}.cls-18{stroke-width:.25px}.cls-19{fill:url(#linear-gradient-13)}.cls-20{fill:url(#linear-gradient-14)}.cls-21{fill:url(#linear-gradient-15)}.cls-22{fill:url(#linear-gradient-16)}.cls-23{stroke-width:.45px}.cls-24{fill:url(#linear-gradient-17)}.cls-25{fill:url(#linear-gradient-18)}.cls-26{stroke-width:.57px}.cls-27{fill:url(#linear-gradient-19)}.cls-28{fill:url(#linear-gradient-20)}.cls-29{stroke-width:.47px}.cls-30{fill:url(#linear-gradient-21)}.cls-31{fill:url(#linear-gradient-22)}.cls-32{stroke-width:.3px}.cls-33{fill:url(#linear-gradient-23)}.cls-34{fill:url(#linear-gradient-24)}.cls-35{stroke-width:.52px}.cls-36{fill:url(#linear-gradient-25)}.cls-37{fill:url(#linear-gradient-26)}.cls-38{stroke-width:.31px}.cls-39{fill:url(#linear-gradient-27)}.cls-40{fill:url(#linear-gradient-28)}.cls-41{fill:url(#linear-gradient-29)}.cls-42{fill:url(#linear-gradient-30)}.cls-43{fill:url(#linear-gradient-31)}.cls-44{fill:url(#linear-gradient-32)}.cls-45{fill:url(#linear-gradient-33)}.cls-46{fill:url(#linear-gradient-34)}.cls-47{fill:url(#linear-gradient-35)}.cls-48{fill:url(#linear-gradient-36)}.cls-49{fill:url(#linear-gradient-37)}.cls-50{fill:url(#linear-gradient-38)}</style><linearGradient id="linear-gradient" x1="-1750.2" y1="-1415.18" x2="-1723.66" y2="-1415.18" gradientTransform="rotate(53.8 -2307.858 1316.768)" gradientUnits="userSpaceOnUse"><stop offset=".15" stop-color="#f6916b"/><stop offset=".69" stop-color="#f27052"/><stop offset="1" stop-color="#f16248"/></linearGradient><linearGradient id="linear-gradient-2" x1="-1750.2" y1="-1415.15" x2="-1723.66" y2="-1415.15" gradientTransform="rotate(53.8 -2307.858 1316.768)" gradientUnits="userSpaceOnUse"><stop offset="0" stop-color="#f16248"/><stop offset=".15" stop-color="#f37153"/><stop offset=".42" stop-color="#f48360"/><stop offset=".69" stop-color="#f68d68"/><stop offset="1" stop-color="#f6916b"/></linearGradient><linearGradient id="linear-gradient-3" x1="-4624.41" y1="2227.99" x2="-4597.87" y2="2227.99" gradientTransform="matrix(-.91 -.3 .52 -1.58 -5066.99 2243.55)" xlink:href="#linear-gradient"/><linearGradient id="linear-gradient-4" x1="-4624.41" y1="2228.03" x2="-4597.87" y2="2228.03" gradientTransform="matrix(-.91 -.3 .52 -1.58 -5066.99 2243.55)" xlink:href="#linear-gradient-2"/><linearGradient id="linear-gradient-5" x1="529.17" y1="1340.01" x2="555.7" y2="1340.01" gradientTransform="matrix(.92 -.38 -.54 -1.29 513.38 2101.56)" xlink:href="#linear-gradient"/><linearGradient id="linear-gradient-6" x1="529.16" y1="1340.05" x2="555.7" y2="1340.05" gradientTransform="matrix(.92 -.38 -.54 -1.29 513.38 2101.56)" xlink:href="#linear-gradient-2"/><linearGradient id="linear-gradient-7" x1="933.89" y1="1938.38" x2="960.43" y2="1938.38" gradientTransform="matrix(.67 -.47 .4 .57 -1033.64 -576.53)" xlink:href="#linear-gradient"/><linearGradient id="linear-gradient-8" x1="933.89" y1="1938.42" x2="960.43" y2="1938.42" gradientTransform="matrix(.67 -.47 .4 .57 -1033.64 -576.53)" xlink:href="#linear-gradient-2"/><linearGradient id="linear-gradient-9" x1="3048.34" y1="-1992.94" x2="3074.87" y2="-1992.94" gradientTransform="matrix(.15 -.35 -.56 -.24 -1133.42 639.16)" xlink:href="#linear-gradient"/><linearGradient id="linear-gradient-10" x1="3048.33" y1="-1992.9" x2="3074.87" y2="-1992.9" gradientTransform="matrix(.15 -.35 -.56 -.24 -1133.42 639.16)" xlink:href="#linear-gradient-2"/><linearGradient id="linear-gradient-11" x1="-1813.34" y1="3961.13" x2="-1786.81" y2="3961.13" gradientTransform="matrix(-.19 -.66 .93 -.27 -3667.52 4.68)" xlink:href="#linear-gradient"/><linearGradient id="linear-gradient-12" x1="-1813.35" y1="3961.16" x2="-1786.81" y2="3961.16" gradientTransform="matrix(-.19 -.66 .93 -.27 -3667.52 4.68)" xlink:href="#linear-gradient-2"/><linearGradient id="linear-gradient-13" x1="189.44" y1="-189.54" x2="187.56" y2="-201.47" gradientTransform="rotate(6.29 -2200.286 1238.358)" xlink:href="#linear-gradient"/><linearGradient id="linear-gradient-14" x1="192.18" y1="-191.48" x2="196.41" y2="-180.16" gradientTransform="rotate(6.29 -2200.286 1238.358)" xlink:href="#linear-gradient"/><linearGradient id="linear-gradient-15" x1="-2817.84" y1="-1039.15" x2="-2819.72" y2="-1051.08" gradientTransform="matrix(.25 1.35 -1.12 .21 -185.31 4215.85)" xlink:href="#linear-gradient"/><linearGradient id="linear-gradient-16" x1="-2815.1" y1="-1041.08" x2="-2810.87" y2="-1029.77" gradientTransform="matrix(.25 1.35 -1.12 .21 -185.31 4215.85)" xlink:href="#linear-gradient"/><linearGradient id="linear-gradient-17" x1="-1236.66" y1="2261.4" x2="-1238.52" y2="2249.58" gradientTransform="matrix(1.5 -1.68 1.03 .92 -253.58 -3905.28)" xlink:href="#linear-gradient"/><linearGradient id="linear-gradient-18" x1="-1234.91" y1="2259.83" x2="-1230.76" y2="2270.92" gradientTransform="matrix(1.5 -1.68 1.03 .92 -253.58 -3905.28)" xlink:href="#linear-gradient"/><linearGradient id="linear-gradient-19" x1="-3067.76" y1="-713.89" x2="-3069.64" y2="-725.82" gradientTransform="matrix(-1.29 -.68 -.53 1.01 -3845.77 -1338.47)" xlink:href="#linear-gradient"/><linearGradient id="linear-gradient-20" x1="-3065.02" y1="-715.82" x2="-3060.79" y2="-704.51" gradientTransform="matrix(-1.29 -.68 -.53 1.01 -3845.77 -1338.47)" xlink:href="#linear-gradient"/><linearGradient id="linear-gradient-21" x1="-494.31" y1="4079.19" x2="-496.19" y2="4067.26" gradientTransform="matrix(-.01 -.77 .88 -.02 -3150.05 -247.92)" xlink:href="#linear-gradient"/><linearGradient id="linear-gradient-22" x1="-491.56" y1="4077.25" x2="-487.33" y2="4088.56" gradientTransform="matrix(-.01 -.77 .88 -.02 -3150.05 -247.92)" xlink:href="#linear-gradient"/><linearGradient id="linear-gradient-23" x1="-173.7" y1="2094.7" x2="-175.58" y2="2082.77" gradientTransform="matrix(.72 -1.11 1.32 .86 -2117.46 -1958.75)" xlink:href="#linear-gradient"/><linearGradient id="linear-gradient-24" x1="-170.96" y1="2092.76" x2="-166.73" y2="2104.08" gradientTransform="matrix(.72 -1.11 1.32 .86 -2117.46 -1958.75)" xlink:href="#linear-gradient"/><linearGradient id="linear-gradient-25" x1="-121.52" y1="2611.96" x2="-94.98" y2="2611.96" gradientTransform="matrix(.23 -.79 1.23 .36 -2995.92 -831.05)" xlink:href="#linear-gradient"/><linearGradient id="linear-gradient-26" x1="-121.52" y1="2612" x2="-94.98" y2="2612" gradientTransform="matrix(.23 -.79 1.23 .36 -2995.92 -831.05)" xlink:href="#linear-gradient-2"/><linearGradient id="linear-gradient-27" x1="-2936.89" y1="-1262.47" x2="-2938.77" y2="-1274.4" gradientTransform="rotate(76.7 -2349.742 1434.86)" xlink:href="#linear-gradient"/><linearGradient id="linear-gradient-28" x1="-2934.15" y1="-1264.4" x2="-2929.92" y2="-1253.09" gradientTransform="rotate(76.7 -2349.742 1434.86)" xlink:href="#linear-gradient"/><linearGradient id="linear-gradient-29" x1="-408.41" y1="-2820.25" x2="-381.87" y2="-2820.25" gradientTransform="matrix(-.02 -.38 -.61 .03 -1603.49 154.67)" xlink:href="#linear-gradient"/><linearGradient id="linear-gradient-30" x1="-408.41" y1="-2820.21" x2="-381.87" y2="-2820.21" gradientTransform="matrix(-.02 -.38 -.61 .03 -1603.49 154.67)" xlink:href="#linear-gradient-2"/><linearGradient id="linear-gradient-31" x1="-3955.93" y1="4936.44" x2="-3929.4" y2="4936.44" gradientTransform="matrix(-.57 -.59 .5 -.49 -4691.6 318.72)" xlink:href="#linear-gradient"/><linearGradient id="linear-gradient-32" x1="-3955.94" y1="4936.48" x2="-3929.4" y2="4936.48" gradientTransform="matrix(-.57 -.59 .5 -.49 -4691.6 318.72)" xlink:href="#linear-gradient-2"/><linearGradient id="linear-gradient-33" x1="-6572.72" y1="747.68" x2="-6546.19" y2="747.68" gradientTransform="matrix(-.63 .29 -.41 -.88 -3701.37 2827.61)" xlink:href="#linear-gradient"/><linearGradient id="linear-gradient-34" x1="-6572.73" y1="747.72" x2="-6546.19" y2="747.72" gradientTransform="matrix(-.63 .29 -.41 -.88 -3701.37 2827.61)" xlink:href="#linear-gradient-2"/><linearGradient id="linear-gradient-35" x1="-1466.61" y1="-874.5" x2="-1468.49" y2="-886.43" gradientTransform="matrix(-.47 -1.38 -1.08 .37 -1572.35 -1490.19)" xlink:href="#linear-gradient"/><linearGradient id="linear-gradient-36" x1="-1463.86" y1="-876.43" x2="-1459.63" y2="-865.12" gradientTransform="matrix(-.47 -1.38 -1.08 .37 -1572.35 -1490.19)" xlink:href="#linear-gradient"/><linearGradient id="linear-gradient-37" x1="1434.97" y1="505.17" x2="1433.09" y2="493.24" gradientTransform="matrix(.71 -.3 .34 .82 -1185.17 242.41)" xlink:href="#linear-gradient"/><linearGradient id="linear-gradient-38" x1="1437.71" y1="503.24" x2="1441.94" y2="514.55" gradientTransform="matrix(.71 -.3 .34 .82 -1185.17 242.41)" xlink:href="#linear-gradient"/></defs><title>Asset 4</title><g id="Layer_2" data-name="Layer 2"><g id="draft1"><path class="cls-1" d="M258.38 176.34c-12.24-15.85-32.89-8.7-33.33-8.55 12.66 9.06 33.33 8.55 33.33 8.55z"/><path class="cls-2" d="M225.05 167.8s8.93 16.08 33.35 8.54c-.02 0-20.69.51-33.35-8.54z"/><path class="cls-3" d="M220.5 163.67c11.35 13.34 37.88 12.68 37.88 12.68"/><path class="cls-4" d="M284.24 124.43c18.59 5.13 35.25-26 35.6-26.61-16.04 3.3-35.6 26.61-35.6 26.61z"/><path class="cls-5" d="M319.84 97.82s-15.52-9-35.62 26.65c.02-.04 19.58-23.35 35.62-26.65z"/><path class="cls-6" d="M326 97.65c-16.64-3.15-41.75 26.78-41.75 26.78"/><path class="cls-7" d="M314.91 169.3c-18.8 6.93-35.89-17.67-36.25-18.2 16.27.68 36.25 18.2 36.25 18.2z"/><path class="cls-8" d="M278.66 151.09s15.66-9.89 36.27 18.23c-.02-.02-20-17.54-36.27-18.23z"/><path class="cls-9" d="M272.43 151.78c16.84-5 42.48 17.52 42.48 17.52"/><path class="cls-10" d="M390.55 72.78c-13.25 9.81-9.1 24.81-9 25.13 7.95-9.81 9-25.13 9-25.13z"/><path class="cls-11" d="M381.54 97.91s13.19-7.37 9-25.14c.01.01-1.04 15.33-9 25.14z"/><path class="cls-12" d="M378 101.48c11.21-9 12.55-28.7 12.55-28.7"/><path class="cls-13" d="M443.48 42.91c-3.3 6.86-15.91 4.1-16.18 4 4.93-3.91 16.18-4 16.18-4z"/><path class="cls-14" d="M427.29 47s1.47-6.91 16.2-4c-.01-.09-11.26 0-16.2 4z"/><path class="cls-15" d="M425.7 48.76c3.35-5.78 17.78-5.85 17.78-5.85"/><path class="cls-16" d="M362.78 135c4.34 13.16 25.08 11.81 25.52 11.77-7.39-8.49-25.52-11.77-25.52-11.77z"/><path class="cls-17" d="M388.3 146.79S386.94 134 362.78 135c0 0 18.13 3.28 25.52 11.79z"/><path class="cls-18" d="M390.62 150.45C386.05 139.2 362.78 135 362.78 135"/><path class="cls-19" d="M330.47 68.86S322 80.93 334.8 94.48a36.89 36.89 0 0 0-4.33-25.62z"/><path class="cls-20" d="M330.47 68.86a36.89 36.89 0 0 1 4.35 25.6c11.39-11.31-4.35-25.6-4.35-25.6z"/><path class="cls-9" d="M330.47 68.86a37.15 37.15 0 0 1 2.63 31.8"/><path class="cls-21" d="M275.27 191.91s-16.28-6.86-26.18 14.86c17.2-1.56 26.18-14.86 26.18-14.86z"/><path class="cls-22" d="M275.27 191.91s-9 13.29-26.14 14.88c16.54 10.96 26.14-14.88 26.14-14.88z"/><path class="cls-23" d="M275.27 191.91s-11.56 17.09-33.51 14.83"/><path class="cls-24" d="M196.52 237.84s4.77 21.37 34.15 13.38c-14.05-15.43-34.15-13.38-34.15-13.38z"/><path class="cls-25" d="M196.52 237.84s20.1-2.05 34.15 13.33c-.77-24.95-34.15-13.33-34.15-13.33z"/><path class="cls-26" d="M196.52 237.84s25.88-2.65 39.43 20.52"/><path class="cls-27" d="M491.06.22s2.27 17.91-22.45 20.53C475.1 4.65 491.06.22 491.06.22z"/><path class="cls-28" d="M491.06.22s-16 4.43-22.46 20.49C462.27 1.24 491.06.22 491.06.22z"/><path class="cls-29" d="M491.06.22s-20.56 5.69-24.51 27.62"/><path class="cls-30" d="M448.17 68s11.52 5.26 22-5.88a35.76 35.76 0 0 0-22 5.88z"/><path class="cls-31" d="M448.17 68a35.76 35.76 0 0 1 21.95-5.89C459 54.55 448.17 68 448.17 68z"/><path class="cls-32" d="M448.17 68s11.11-8.44 27.56-5.2"/><path class="cls-33" d="M511.21 27.17s12 19 38.21 13.57c-19.09-14.3-38.21-13.57-38.21-13.57z"/><path class="cls-34" d="M511.21 27.17s19.12-.73 38.19 13.53c-9.23-21.95-38.19-13.53-38.19-13.53z"/><path class="cls-35" d="M511.21 27.17s24.61-1 45.84 20.13"/><path class="cls-36" d="M169.72 191.82c-4 16 20.11 28.68 20.62 28.95-2.53-13.46-20.62-28.95-20.62-28.95z"/><path class="cls-37" d="M190.34 220.76s7-13.61-20.64-29c.02.06 18.11 15.55 20.64 29z"/><path class="cls-38" d="M190.46 226c2.48-14.28-20.74-34.16-20.74-34.16"/><path class="cls-39" d="M150.89 237.88s-14.22-3.94-22.69 12.67a36.89 36.89 0 0 0 22.69-12.67z"/><path class="cls-40" d="M150.89 237.88a36.89 36.89 0 0 1-22.66 12.68c14.48 6.94 22.66-12.68 22.66-12.68z"/><path class="cls-9" d="M150.89 237.88A37.15 37.15 0 0 1 121.82 251"/><path class="cls-41" d="M119.16 210.45c.06 7.61-12.48 10.69-12.75 10.76 2.67-5.76 12.75-10.76 12.75-10.76z"/><path class="cls-42" d="M106.41 221.21s-1.72-6.85 12.76-10.76c-.01 0-10.09 5-12.76 10.76z"/><path class="cls-15" d="M105.77 223.53c.46-6.67 13.39-13.08 13.39-13.08"/><path class="cls-43" d="M37.89 225.55c11.78 11.53 25.94 5.06 26.24 4.92-10.95-6.31-26.24-4.92-26.24-4.92z"/><path class="cls-44" d="M64.12 230.47s-9.36-11.86-26.25-4.92c.02 0 15.31-1.39 26.25 4.92z"/><path class="cls-12" d="M68.21 233.41c-10.69-9.64-30.32-7.86-30.32-7.86"/><path class="cls-45" d="M95.65 259.28c12.31-6.36 7.69-26.63 7.59-27.06-7.24 8.64-7.59 27.06-7.59 27.06z"/><path class="cls-46" d="M103.24 232.22s-12.36 3.38-7.59 27.08c0-.02.35-18.44 7.59-27.08z"/><path class="cls-18" d="M106.5 229.35c-10.39 6.29-10.85 29.93-10.85 29.93"/><path class="cls-47" d="M73.79 206.14s-10.7 14.54-30.41-.6c15.8-7.19 30.41.6 30.41.6z"/><path class="cls-48" d="M73.79 206.14s-14.62-7.8-30.39-.64c8.83-18.5 30.39.64 30.39.64z"/><path class="cls-29" d="M73.79 206.14S55 196.09 37 209.25"/><path class="cls-49" d="M.08 221.1s-.67 12.64 13.53 18.28A35.76 35.76 0 0 0 .08 221.1z"/><path class="cls-50" d="M.08 221.1a35.76 35.76 0 0 1 13.54 18.25C16.54 226.19.08 221.1.08 221.1z"/><path class="cls-32" d="M.08 221.1S12 228.33 15 244.83"/></g></g></svg>