<svg xmlns="http://www.w3.org/2000/svg" viewBox="0 0 587.83 580.08"><defs><style>.cls-1{fill:url(#linear-gradient)}.cls-2{fill-rule:evenodd;fill:url(#linear-gradient-2)}</style><linearGradient id="linear-gradient" x1="87.21" y1="484.86" x2="587.22" y2="12.06" gradientUnits="userSpaceOnUse"><stop offset="0" stop-color="#f6916b"/><stop offset=".16" stop-color="#f47e5d"/><stop offset=".37" stop-color="#f2694d"/><stop offset=".51" stop-color="#f16248"/><stop offset=".64" stop-color="#f2694e"/><stop offset=".84" stop-color="#f47e5d"/><stop offset=".98" stop-color="#f6916b"/></linearGradient><linearGradient id="linear-gradient-2" x1="160.92" y1="106.87" x2="489.51" y2="418.05" gradientUnits="userSpaceOnUse"><stop offset="0" stop-color="#f16248"/><stop offset=".17" stop-color="#f37354"/><stop offset=".5" stop-color="#f6916b"/><stop offset=".9" stop-color="#f26b4f"/><stop offset=".98" stop-color="#f16248"/></linearGradient></defs><title>Asset 2</title><g id="Layer_2" data-name="Layer 2"><g id="draft1"><path class="cls-1" d="M293.21 580.07c-13.39.17-50-3.31-63.14-6-62.34-12.92-114.79-44.52-156.51-91.43-64-71.93-85.67-157-67.24-251.42 11.67-59.93 41.42-110 87.4-150.6 42.12-37.21 89.94-62.52 145.16-73.39 14.32-2.83 28.69-5.91 43.25-7 8-.6 203.82.19 305.7.3-.1 94.83-.16 279.19-.27 284.43-.06 3.09-.45 11.13-.5 12.54-2.69 51.76-16.37 91.79-43.53 136.62C498 509.26 434.72 558.76 347.65 575.95c-29.55 4.14-34 3.86-54.44 4.12zm245.64-524c0-10.58-2.25-12.82-12.93-12.76-10.92.08-21.79.4-32.69.44-67.4.47-134.79.35-202.17 1.71a285 285 0 0 0-61.53 7.91c-68.87 17-118.92 59.89-155.17 119.31-19.94 32.74-29.52 69.32-30.9 107.69-2 54.32 10.78 104.41 43.3 149.13 38.26 52.6 87.52 87.82 151.68 101 58.18 12 114.46 5.33 166.73-22.36 79.24-42 124.5-108.68 131.87-198.22 3.44-41.52 1.8-210.92 1.81-253.84z"/><path class="cls-2" d="M416.79 272.54C339.49 212.61 264 154 188.42 95.4c.27-1 .52-1.94.81-2.91 7.45-3.32 14.77-7 22.4-9.91a220.69 220.69 0 0 1 79.43-14.69q105.29.26 210.63.24c14.5 0 16.13 1.64 16.13 16.17-.06 70.21 1.11 140.45-.51 210.65-2.09 88.61-43.59 155.47-121.59 196.45C301.43 541 190.6 516.82 123 441.53c-17.26-19.16-30-41.1-40.69-64.61C70.32 350.64 65 323.4 65.67 292c83.63 44.2 165.92 87.68 248.21 131.13.49-.46 1-.92 1.49-1.42-3.49-3.46-6.7-7.32-10.5-10.36-24.77-19.72-49.86-39-74.43-58.86q-46.79-37.71-92.85-76.19c-18.34-15.22-36.22-31-54.53-46.18-3.76-3.1-4.7-6-3.07-10.31 2.43-6.29 4.77-12.62 7.48-19.7 92.06 49.44 183 98.22 273.93 147.06.68-1 1.36-1.93 2.06-2.91-80.85-66-161.73-132-243.5-198.73 5.71-6.56 10.18-12.36 15.53-17.23 1.56-1.42 6.2-1.07 8.47.14 27.89 15 55.51 30.48 83.28 45.61q78.59 42.88 157.34 85.59c8 4.3 16.19 8.32 24.38 12.17 1.92.84 4.3.45 7.83.73z"/></g></g></svg>