<svg viewBox="0 0 608 368" xmlns="http://www.w3.org/2000/svg" fill-rule="evenodd" clip-rule="evenodd" stroke-miterlimit="10" preserveAspectRatio="xMinYMin"><clipPath id="a"><path d="M491.988 100.492c3.679 1.625 9.265.212 9.265.212-1.318-1.214-2.839-1.611-4.262-1.611-2.631 0-4.929 1.355-5.003 1.399z"/></clipPath><g clip-path="url(#a)"><path d="M496.426 95.968l4.827 4.736-4.437 4.523-4.828-4.735 4.438-4.524z" fill="url(#b)" fill-rule="nonzero"/></g><clipPath id="c"><path d="M491.982 100.495s2.867 3.721 9.271.209c0 0-5.586 1.413-9.265-.212l-.006.003z"/></clipPath><g clip-path="url(#c)"><path d="M496.424 95.967l4.829 4.737-4.896 4.991-4.829-4.737 4.896-4.991z" fill="url(#d)" fill-rule="nonzero"/></g><path d="M490.64 99.676c3.445 2.843 10.613 1.027 10.613 1.027" fill="none" stroke="#f16248" stroke-width=".08"/><clipPath id="e"><path d="M406.417 23.855c2.273-10.399-3.25-22.835-3.25-22.835-6.482 12.17 3.046 22.614 3.25 22.835z"/></clipPath><g clip-path="url(#e)"><path d="M394.164 16.913l9.003-15.893 12.254 6.941-9.004 15.894-12.253-6.942z" fill="url(#f)" fill-rule="nonzero"/></g><clipPath id="g"><path d="M406.417 23.855l.01.011s7.451-10.224-3.26-22.846c0 0 5.523 12.436 3.25 22.835z"/></clipPath><g clip-path="url(#g)"><path d="M394.162 16.917l9.005-15.897 13.522 7.66-9.005 15.897-13.522-7.66z" fill="url(#h)" fill-rule="nonzero"/></g><path d="M405.075 27.856c5.185-10.879-1.909-26.836-1.909-26.836" fill="none" stroke="#f16248" stroke-width=".2"/><clipPath id="i"><path d="M304.051 287.651s14.907-2.938 21.644-10.8c-.068-.006-.722-.06-1.771-.06-4.464 0-16.063.983-19.873 10.86z"/></clipPath><g clip-path="url(#i)"><path d="M309.747 271.296l-5.696 16.355 15.948 5.554 5.696-16.354-15.948-5.555z" fill="url(#j)" fill-rule="nonzero"/></g><clipPath id="k"><path d="M325.714 275.799c-6.743 10-21.643 10.8-21.643 10.8 19.375 1.022 21.66-10.8 21.66-10.8h-.017z"/></clipPath><g clip-path="url(#k)"><path d="M309.769 270.239l-5.698 16.36 17.597 6.128 5.698-16.359-17.597-6.129z" fill="url(#l)" fill-rule="nonzero"/></g><path d="M327.897 273.459c-4.712 10.427-23.844 14.192-23.844 14.192" fill="none" stroke="#f16248" stroke-width=".22"/><clipPath id="m"><path d="M584.539 96.994c10.639.169 21.517-7.392 21.517-7.392-1.962-.56-3.811-.8-5.537-.8-9.97 0-15.835 7.992-15.98 8.192z"/></clipPath><g clip-path="url(#m)"><path d="M588.561 84.131l17.495 5.471-4.022 12.862-17.495-5.47 4.022-12.863z" fill="url(#n)" fill-rule="nonzero"/></g><clipPath id="o"><path d="M584.539 96.994a.137.137 0 0 0-.008.011s11.625 5.081 21.525-7.403c0 0-10.878 7.561-21.517 7.392z"/></clipPath><g clip-path="url(#o)"><path d="M588.557 84.13l17.499 5.472-4.437 14.192-17.499-5.472 4.437-14.192z" fill="url(#p)" fill-rule="nonzero"/></g><path d="M580.342 96.487c11.757 2.823 25.714-6.885 25.714-6.885" fill="none" stroke="#f16248" stroke-width=".2"/><clipPath id="q"><path d="M420.815 289.12s2.227-4.076 1.763-7.757c-.075.068-3.596 3.297-1.763 7.757z"/></clipPath><g clip-path="url(#q)"><path d="M418.24 283.274l2.575 5.846 4.339-1.912-2.576-5.845-4.338 1.911z" fill="url(#r)" fill-rule="nonzero"/></g><clipPath id="s"><path d="M422.578 281.363c.464 3.681-1.763 7.757-1.763 7.757 3.984-3.935 1.766-7.761 1.766-7.761l-.003.004z"/></clipPath><g clip-path="url(#s)"><path d="M418.239 283.272l2.576 5.848 4.789-2.11-2.577-5.848-4.788 2.11z" fill="url(#t)" fill-rule="nonzero"/></g><path d="M422.242 279.927c1.433 3.963-1.427 9.193-1.427 9.193" fill="none" stroke="#f16248" stroke-width=".07"/><clipPath id="u"><path d="M414.586 142.932s-4.925-6.386-12-9.189c.043.152 2.082 7.315 12 9.189z"/></clipPath><g clip-path="url(#u)"><path d="M401.403 140.684l13.183 2.248 1.184-6.941-13.184-2.248-1.183 6.941z" fill="url(#v)" fill-rule="nonzero"/></g><clipPath id="w"><path d="M402.586 133.743c7.075 2.803 12 9.189 12 9.189-2.81-8.361-12.002-9.196-12.002-9.196l.002.007z"/></clipPath><g clip-path="url(#w)"><path d="M401.4 140.683l13.186 2.249 1.306-7.659-13.186-2.249-1.306 7.659z" fill="url(#x)" fill-rule="nonzero"/></g><path d="M399.665 132.836c8.605 1.899 14.922 10.095 14.922 10.095" fill="none" stroke="#f16248" stroke-width=".12"/><clipPath id="y"><path d="M291.758 30.281c.255.107 12.203 5.034 17.328-1.81 0 0-2.739-.411-6.238-.411-3.613 0-8.035.439-11.09 2.221z"/></clipPath><g clip-path="url(#y)"><path d="M302.663 37.794l6.423-9.323-10.905-7.513-6.423 9.323 10.905 7.513z" fill="url(#z)" fill-rule="nonzero"/></g><clipPath id="A"><path d="M291.747 30.277l.011.004c6.014-3.51 17.328-1.81 17.328-1.81-3.824-1.465-6.851-1.998-9.232-1.998-6.359 0-8.107 3.804-8.107 3.804z"/></clipPath><g clip-path="url(#A)"><path d="M302.662 37.796l6.424-9.325-11.506-7.927-6.424 9.325 11.506 7.927z" fill="url(#B)" fill-rule="nonzero"/></g><path d="M289.68 31.966c4.886-5.682 19.407-3.495 19.407-3.495" fill="none" stroke="#f16248" stroke-width=".16"/><clipPath id="C"><path d="M481.769 286.24s-2.891-7.052-8.746-11.812c-.002.143-.013 6.872 8.746 11.812z"/></clipPath><g clip-path="url(#C)"><path d="M470.062 279.878l11.707 6.362 2.962-5.451-11.708-6.361-2.961 5.45z" fill="url(#D)" fill-rule="nonzero"/></g><clipPath id="E"><path d="M473 274.393c7 4.814 8.747 11.811 8.747 11.811-.388-8-8.747-11.818-8.747-11.818v.007z"/></clipPath><g clip-path="url(#E)"><path d="M470.036 279.841l11.711 6.363 3.268-6.014-11.711-6.363-3.268 6.014z" fill="url(#F)" fill-rule="nonzero"/></g><path d="M470.537 272.674c7.526 4.516 11.233 13.565 11.233 13.565" fill="none" stroke="#f16248" stroke-width=".12"/><clipPath id="G"><path d="M479.709 291.261c5.218 1.625 10.732.418 10.732.418-2.364-1.233-4.427-1.626-6.095-1.627-2.878 0-4.581 1.17-4.637 1.209z"/></clipPath><g clip-path="url(#G)"><path d="M481.98 287.081l8.461 4.598-2.27 4.179-8.462-4.597 2.271-4.18z" fill="url(#H)" fill-rule="nonzero"/></g><clipPath id="I"><path d="M479.704 291.264s5.589 3.591 10.737.415c0 0-5.514 1.207-10.732-.418l-.005.003z"/></clipPath><g clip-path="url(#I)"><path d="M481.978 287.08l8.463 4.599-2.505 4.611-8.464-4.598 2.506-4.612z" fill="url(#J)" fill-rule="nonzero"/></g><path d="M477.66 290.457c5.706 2.773 12.781 1.222 12.781 1.222" fill="none" stroke="#f16248" stroke-width=".09"/><clipPath id="K"><path d="M554.881 364.042c5.796-1.547 10.781-7.992 10.781-7.992a10.912 10.912 0 0 0-.44-.009c-7.362 0-10.279 7.831-10.341 8.001z"/></clipPath><g clip-path="url(#K)"><path d="M555.499 355.33l10.163.72-.617 8.712-10.164-.72.618-8.712z" fill="url(#L)" fill-rule="nonzero"/></g><clipPath id="M"><path d="M554.881 364.042a.1.1 0 0 0-.003.008s6.929 1.388 10.784-8c0 0-4.985 6.445-10.781 7.992z"/></clipPath><g clip-path="url(#M)"><path d="M555.496 355.329l10.166.721-.681 9.613-10.166-.721.681-9.613z" fill="url(#N)" fill-rule="nonzero"/></g><path d="M552.541 364.375c6.726-.052 13.121-8.325 13.121-8.325" fill="none" stroke="#f16248" stroke-width=".12"/><clipPath id="O"><path d="M517.388 72.268s-3.471-2.863-6.639-2.951c.058.086 2.785 4.128 6.639 2.951z"/></clipPath><g clip-path="url(#O)"><path d="M512.334 73.984l5.054-1.716-1.585-4.668-5.054 1.717 1.585 4.667z" fill="url(#P)" fill-rule="nonzero"/></g><clipPath id="Q"><path d="M510.746 69.313l.003.004c3.168.088 6.639 2.951 6.639 2.951-1.936-2.684-3.867-3.246-5.144-3.246-.918.001-1.498.291-1.498.291z"/></clipPath><g clip-path="url(#Q)"><path d="M512.333 73.984l5.055-1.716-1.614-4.756-5.056 1.717 1.615 4.755z" fill="url(#R)" fill-rule="nonzero"/></g><path d="M509.513 69.439c3.422-.847 7.875 2.829 7.875 2.829" fill="none" stroke="#f16248" stroke-width=".07"/><clipPath id="S"><path d="M408.03 34.421c.045.059 2.164 2.815 5.397 1.768 0 0-2.628-1.772-5.185-1.772-.07 0-.141.002-.212.004z"/></clipPath><g clip-path="url(#S)"><path d="M409.182 37.686l4.245-1.497-1.151-3.266-4.246 1.498 1.152 3.265z" fill="url(#T)" fill-rule="nonzero"/></g><clipPath id="U"><path d="M408.028 34.419l.002.002c2.621-.103 5.397 1.768 5.397 1.768-1.388-1.676-2.835-2.066-3.881-2.066-.911 0-1.518.296-1.518.296z"/></clipPath><g clip-path="url(#U)"><path d="M409.181 37.686l4.246-1.497-1.178-3.341-4.246 1.498 1.178 3.34z" fill="url(#V)" fill-rule="nonzero"/></g><path d="M407.002 34.574c2.863-.788 6.425 1.614 6.425 1.614" fill="none" stroke="#f16248" stroke-width=".05"/><clipPath id="W"><path d="M278.357 215.264s6.416-1.297 9.742-5.016a8.484 8.484 0 0 0-.938-.044c-1.996 0-6.646.515-8.804 5.06z"/></clipPath><g clip-path="url(#W)"><path d="M281.802 207.466l-3.445 7.798 6.298 2.782 3.444-7.798-6.297-2.782z" fill="url(#X)" fill-rule="nonzero"/></g><clipPath id="Y"><path d="M288.155 207.799c-3.326 4-9.751 5.11-9.751 5.11 8.024.635 9.758-5.11 9.758-5.11h-.007z"/></clipPath><g clip-path="url(#Y)"><path d="M281.887 205.026l-3.483 7.883 6.949 3.069 3.482-7.882-6.948-3.07z" fill="url(#Z)" fill-rule="nonzero"/></g><path d="M289.24 208.638c-2.815 4.796-10.994 6.514-10.882 6.625" fill="none" stroke="#f16248" stroke-width=".1"/><clipPath id="aa"><path d="M322.917 247.262s1.333-6.451-.619-10.3c-.071.139-3.366 6.651.619 10.3z"/></clipPath><g clip-path="url(#aa)"><path d="M317.474 242.618l5.443 4.644 4.825-5.657-5.444-4.643-4.824 5.656z" fill="url(#ab)" fill-rule="nonzero"/></g><clipPath id="ac"><path d="M322.298 236.962c1.742 4.347.619 10.3.619 10.3 3.624-7.691-.445-10.194-.445-10.194s-.17-.106-.174-.106z"/></clipPath><g clip-path="url(#ac)"><path d="M317.474 242.618l5.443 4.644 5.324-6.241-5.444-4.644-5.323 6.241z" fill="url(#ad)" fill-rule="nonzero"/></g><path d="M321.339 235.585c3.082 3.533 1.439 11.766 1.579 11.676" fill="none" stroke="#f16248" stroke-width=".09"/><clipPath id="ae"><path d="M380.334 219.963s6.623-1.357 10.062-5.216a8.8 8.8 0 0 0-.945-.043c-2.045 0-6.872.529-9.117 5.259z"/></clipPath><g clip-path="url(#ae)"><path d="M383.905 211.879l-3.571 8.084 6.491 2.867 3.571-8.083-6.491-2.868z" fill="url(#af)" fill-rule="nonzero"/></g><clipPath id="ag"><path d="M390.45 212.799c-3.115 5.444-8.87 5.383-9.91 5.325 8.138.55 9.917-5.325 9.917-5.325h-.007zm-9.91 5.325c-.054-.004-.109-.007-.163-.012 0 0 .057.006.163.012z"/></clipPath><g clip-path="url(#ag)"><path d="M383.987 209.94l-3.61 8.172 7.154 3.16 3.609-8.172-7.153-3.16z" fill="url(#ah)" fill-rule="nonzero"/></g><path d="M391.576 213.077c-2.915 4.973-11.357 6.769-11.242 6.885" fill="none" stroke="#f16248" stroke-width=".1"/><clipPath id="ai"><path d="M433.599 103.291s2.637-2.406 3.121-5.021c-.074.033-3.51 1.626-3.121 5.021z"/></clipPath><g clip-path="url(#ai)"><path d="M432.956 98.811l.643 4.48 3.765-.541-.644-4.48-3.764.541z" fill="url(#aj)" fill-rule="nonzero"/></g><clipPath id="ak"><path d="M436.696 98.224c-.534 2.513-3.097 5.067-3.097 5.067 3.952-1.995 3.101-5.069 3.101-5.069l-.004.002z"/></clipPath><g clip-path="url(#ak)"><path d="M432.948 98.761l.651 4.53 4.153-.597-.651-4.53-4.153.597z" fill="url(#al)" fill-rule="nonzero"/></g><path d="M436.788 97.222c.069 2.954-3.274 6.051-3.189 6.069" fill="none" stroke="#f16248" stroke-width=".05"/><clipPath id="am"><path d="M567.069 108.265s2.78-3.385 2.991-6.866c-.082.051-3.915 2.432-2.991 6.866z"/></clipPath><g clip-path="url(#am)"><path d="M565.697 102.424l1.372 5.841 4.364-1.025-1.373-5.841-4.363 1.025z" fill="url(#an)" fill-rule="nonzero"/></g><clipPath id="ao"><path d="M570.06 101.399c-.211 3.481-2.991 6.866-2.991 6.866 4.386-2.954 2.995-6.868 2.995-6.868l-.004.002z"/></clipPath><g clip-path="url(#ao)"><path d="M565.697 102.423l1.372 5.842 4.815-1.131-1.373-5.842-4.814 1.131z" fill="url(#ap)" fill-rule="nonzero"/></g><path d="M569.998 100.016c.639 3.906-2.929 8.248-2.929 8.248" fill="none" stroke="#f16248" stroke-width=".07"/><path d="M545.176 364.287c-8.742.079-14.826-5.849-19.295-13.09-1.109-1.798-2.516-3.436-3.45-5.315-7.098-14.285-19.061-21.555-34.454-23.285-10.058-1.131-18.111-5.5-25.922-11.74-6.997-5.592-15.322-9.495-22.872-14.433-4.254-2.783-9.317-5.411-11.835-9.464-2.568-4.136-4.241-10.34-3.184-14.918 2.682-11.619 3.101-17.194 6.86-28.562.458-1.386 1.743-9.216 2.321-10.562.859-.298 10.861 10.252 11.543 13.715.683 3.463.325 16.975 3.804 22.174 3.478 5.198 29.275 21.908 29.275 21.908-27.17-22.883-24.562-27.227-24.562-27.227l17.132 9.187s-14.98-13.169-17.69-16.507c-2.711-3.339-2.892-7.279-2.695-9.539.197-2.26-3.711-9.542-8.054-13.671-4.689-4.456-8.272-6.652-10.745-10.198-2.474-3.547-2.742-2.399-4.986-9.814-.719-2.373-1.76-5.917-2.975-9.849 3.527 1.28 7.316 2.859 8.834 4.182 2.105 1.837 9.965 14.573 9.965 14.573 1.268-.473-3.892-11.026-3.892-11.026 1.995 1.963 5.547 6.687 6.132 7.978.585 1.291 3.983 4.59 7.067 6.612 3.085 2.022 6.734 2.418 6.734 2.418-1.576-.483-6.339-3.524-8.875-5.849-2.535-2.325-3.897-7.302-5.774-10.055-1.877-2.753-7.277-7.353-11.974-11.451-1.587-1.385-5.954-3.688-11.041-6.131-1.961-5.764-4.061-11.199-5.894-14.129-4.065-6.498-24.628-30.309-42.543-40.344-.49-.274 12.926-6.261 16.953-6.747 4.027-.485 10.581-.292 10.581-.292s-7.173-2.897-17.87-.382c-10.698 2.515-12.04 3.167-17.006 3.71-4.965.543-18.777 7.733-36.978 4.041-18.202-3.691-20.791-4.314-31.502-6.236-7.393-1.327-14.903-1.999-22.309-3.268-3.454-.592-6.783-1.911-10.169-2.9.135-.954 4.422-6.266 11.378-18.099 6.033-7.899 13.187-13.955 22.085-16.659 12.903-3.92 23.16-11.519 29.699-22.485 9.877-16.565 24.217-16.971 40.089-14.053a81.929 81.929 0 0 1 17.334 5.253c15.665 6.722 32.049 23.51 48.591 30.025 1.947 1.832 3.683 3.883 3.782 5.439 0 0 .182-1.948-.01-4.146 3.613 1.055 7.232 1.561 10.851 1.278 4.155-.325 15.777-.827 24.383-1.213.342-.015 13.194 3.574 13.194 3.574l5.411 3-4.201-4.352s-5.329-2.647-4.711-2.686c15.549-.983 19.383-8.496 34.963-8.642 11.091-.104 22.259 4.267 32.184 8.084 3.775 1.451 10.589 3.822 17.349 4.959 1.598.97 4.009 2.549 3.826 3.183 0 0 .181-1.462-.208-2.715 3.932.367 7.655.163 10.527-1.067-19.431-2.653-46.622-22.696-66.179-21.582-6.119.349-9.792 2.335-13.25 4.495-.284.177 2.218-4.323 2.218-4.323l6.377-5.63s-5.084 1.821-6.948 2.684c-1.864.863-8.561 11.25-9.475 11.608-1.914.749-4.102 1.327-6.763 1.602-7.073.73-31.774.193-34.632.374-22.801 1.451-45.048-25.57-66.224-36.796 8.966-.541 13.833-4.559 16.612-10.363l.005-.005c1.012-1.26 5.54-3.949 5.54-3.949L404 36.559v.002c1-2.479 1.14-5.603 1.619-8.731 0 0-6.679 15.717-25.231 15.418-12.499-.201-25.277-1.129-37.779-.314-9.966.649-18.039 5.658-24.047 14.385-6.566 9.537-14.953 17.228-27.055 19.97-5.16 1.169-9.91 4.222-16.237 4.89 3.907-3.834 13.622-33.905 14.47-45.197.125-1.662-.032-3.343-.056-5.016-.78-.219-1.738 7.461-3.697 11.682 0 0-8.793 24.801-15.459 31.934-4.638 4.963-8.129 12.501-9.792 19.465-5.681 23.796-33.634 29.528-43.312 24.569-16.939-8.679-44.099-21.347-74.51-37.074-19.029-9.84-46.818-31.857-73.604-30.893C49.541 52.36 17 49.434 0 45.914v66.207s49.112-15.659 60.627-11.216c20.722 7.998 36.027 14.198 48.15 18.583 22.082 7.986 31.067 22.28 38.498 29.221 13.349 12.47 19.112 17.859 33.132 22.092 18.623 5.623 17.772 8.705 27.913 9.803 14.441 1.563 26.34-.049 26.34-.049 17.717.949 38.852 3.758 49.689 16.341a272.583 272.583 0 0 1 5.417 6.474c.305 1.671.434 3.856-.526 5.268.964-.84 1.656-2.03 2.154-3.224 5.702 7.266 8.226 11.729 9.191 14.949 1.611 5.375 3.764 13.114 5.803 20.226 2.038 7.113 11.632 10.179 15.659 15.305 4.028 5.125 6.695 5.604 5.85 17.565 3.689-5.838-.03-19.866-6.312-24.778-5.37-4.199-7.309-8.449-9.408-17.72 1.132.097 2.973.362 4.29 1.092 2.028 1.125 4.872 3.532 4.872 3.532s-1.386-3.588-3.967-5.019c-1.735-.962-4.307-1.906-5.812-2.424-.158-.752-.319-1.534-.484-2.347-2.642-13.017-14.915-32.047-18.309-36.24-10.96-13.537-25.749-19.464-42.281-22.189-3.871-.638-7.83-.813-11.658-1.626-10.89-2.312-22.007-4.219-30.282-14.048 14.127 3.339 48.67 7.894 62.479 12.394 13.808 4.501 28.48 1.136 40.604 2.143 12.125 1.007 23.729-2.02 37.714-1.608 15.964.47 33.074 10.519 38.067 18.353 1.531 2.403 4.608 7.537 7.948 14.207.349 4.826-.301 10.629-3.782 15.897 0 0 4.047-2.966 8.079-6.666 6.118 14.247 11.298 31.981 7.628 45.86 0 0-1.756 43.579 5.531 48.807 9.21 6.608 19.225 9.486 28.973 15.334 3.595 2.157 10.5 5.667 14.115 7.3 14.083 6.362 18.147 4.621 30.393 7.211 5.834 1.234 11.497 3.277 17.585 5.055l3.712 2.835s8.062 10.676 10.944 15.607c6.836 11.692 20.586 16.316 34.005 9.955l-7.365-.089z" fill="#771f00" fill-rule="nonzero"/><clipPath id="aq"><path d="M460.756 228.291c7.33.864 14.726-2.722 14.726-2.722-1.977-.677-3.779-.944-5.391-.944-5.896 0-9.245 3.569-9.335 3.666z"/></clipPath><g clip-path="url(#aq)"><path d="M463.362 221.147l12.12 4.422-2.605 7.143-12.121-4.421 2.606-7.144z" fill="url(#ar)" fill-rule="nonzero"/></g><clipPath id="as"><path d="M460.756 228.291a.05.05 0 0 1-.006.007s8.073 3.773 14.732-2.729c0 0-7.396 3.586-14.726 2.722z"/></clipPath><g clip-path="url(#as)"><path d="M463.359 221.146l12.123 4.423-2.875 7.882-12.123-4.422 2.875-7.883z" fill="url(#at)" fill-rule="nonzero"/></g><path d="M457.859 227.696c8.134 2.478 17.623-2.127 17.623-2.127" fill="none" stroke="#f16248" stroke-width=".13"/><clipPath id="au"><path d="M442.222 228.963s1.222-3.423.407-6.096c-.05.064-2.379 3.073-.407 6.096z"/></clipPath><g clip-path="url(#au)"><path d="M439.502 225.029l2.72 3.934 3.128-2.163-2.721-3.933-3.127 2.162z" fill="url(#av)" fill-rule="nonzero"/></g><clipPath id="aw"><path d="M442.222 228.963c2.601-3.614.408-6.096.407-6.096.629 2.442-.407 6.096-.407 6.096z"/></clipPath><g clip-path="url(#aw)"><path d="M439.502 225.029l2.72 3.934 3.451-2.386-2.72-3.934-3.451 2.386z" fill="url(#ax)" fill-rule="nonzero"/></g><path d="M442.191 221.852c1.473 2.749-.053 7.13.031 7.111" fill="none" stroke="#f16248" stroke-width=".05"/><clipPath id="ay"><path d="M557.213 327.955a.244.244 0 0 1 .024.01c12.045-1.87 18.282-10.234 18.282-10.234s-1.189-.33-3.029-.33c-3.877 0-10.642 1.463-15.277 10.554z"/></clipPath><g clip-path="url(#ay)"><path d="M554.691 321.793l19.264-7.885 3.602 8.8-19.264 7.885-3.602-8.8z" fill="url(#az)" fill-rule="nonzero"/></g><clipPath id="aA"><path d="M557.237 327.965c11.679 5.598 18.282-10.234 18.282-10.234s-6.237 8.364-18.282 10.234z"/></clipPath><g clip-path="url(#aA)"><path d="M580.795 325.606l-17.352 11.623-6.206-9.264 17.352-11.623 6.206 9.264z" fill="url(#aB)" fill-rule="nonzero"/></g><path d="M575.52 317.73s-8.024 10.772-23.456 10.604" fill="none" stroke="#f16248" stroke-width=".29"/><clipPath id="aC"><path d="M368.786 265.962c6.909-8.789-.97-20.044-1.14-20.284-2.915 8.315 1.14 20.284 1.14 20.284z"/></clipPath><g clip-path="url(#aC)"><path d="M378.303 254.618l-9.517 11.344-10.656-8.94 9.516-11.344 10.657 8.94z" fill="url(#aD)" fill-rule="nonzero"/></g><clipPath id="aE"><path d="M368.786 265.962s-4.055-11.969-1.14-20.284a.348.348 0 0 1-.008-.01s-7.639 6.888 1.148 20.294z"/></clipPath><g clip-path="url(#aE)"><path d="M378.305 254.616l-9.519 11.346-11.758-9.864 9.518-11.346 11.759 9.864z" fill="url(#aF)" fill-rule="nonzero"/></g><path d="M369.197 242.596c-5.619 8.006-.411 23.366-.411 23.366" fill="none" stroke="#f16248" stroke-width=".18"/><clipPath id="aG"><path d="M543.685 245.921s6.401 3.929 14.105 1.334l.01-.015c-3.181-2.777-5.977-3.639-8.224-3.639-3.683.001-5.891 2.32-5.891 2.32z"/></clipPath><g clip-path="url(#aG)"><path d="M557.38 243.057l-13.916.66.645 6.416 13.916-.66-.645-6.416z" fill="url(#aH)" fill-rule="nonzero"/></g><clipPath id="aI"><path d="M557.79 247.255c-7.704 2.595-14.105-1.334-14.105-1.334s9.053 9.134 14.105 1.334z"/></clipPath><g clip-path="url(#aI)"><path d="M543.147 253.256l14.01 2.627.633-8.628-14.01-2.628-.633 8.629z" fill="url(#aJ)" fill-rule="nonzero"/></g><path d="M543.686 245.92s8.238 5.063 17.272-.089" fill="none" stroke="#f16248" stroke-width=".21"/><clipPath id="aK"><path d="M361.698 325.259c9.624 1.945 23.1-4.981 23.1-4.981-2.323-1.474-4.755-2.047-7.131-2.048-8.208 0-15.763 6.841-15.969 7.029z"/></clipPath><g clip-path="url(#aK)"><path d="M371.414 311.096l13.384 9.182-9.715 14.162-13.385-9.181 9.716-14.163z" fill="url(#aL)" fill-rule="nonzero"/></g><clipPath id="aM"><path d="M361.698 325.259l-.012.011s8.213 7.769 23.112-4.992c0 0-13.476 6.926-23.1 4.981z"/></clipPath><g clip-path="url(#aM)"><path d="M371.411 311.094l13.387 9.184-10.72 15.627-13.387-9.184 10.72-15.627z" fill="url(#aN)" fill-rule="nonzero"/></g><path d="M358.109 323.985c9.395 5.187 26.689-3.707 26.689-3.707" fill="none" stroke="#f16248" stroke-width=".21"/><clipPath id="aO"><path d="M451.567 123.509c7.719 5.869 20.208 6.048 20.208 6.048-4.205-5.612-9.941-6.866-14.228-6.867-3.383 0-5.864.781-5.98.819z"/></clipPath><g clip-path="url(#aO)"><path d="M462.164 115.997l9.611 13.56-10.596 7.511-9.612-13.559 10.597-7.512z" fill="url(#aP)" fill-rule="nonzero"/></g><clipPath id="aQ"><path d="M451.554 123.513s5.527 10.098 20.221 6.044c0 0-12.489-.179-20.208-6.048l-.013.004z"/></clipPath><g clip-path="url(#aQ)"><path d="M462.161 115.994l9.614 13.563-11.692 8.288-9.614-13.563 11.692-8.288z" fill="url(#aR)" fill-rule="nonzero"/></g><path d="M448.782 120.862c6.965 8.469 22.992 8.693 22.992 8.693" fill="none" stroke="#f16248" stroke-width=".19"/><path d="M538.688 78.571c-2.824.189-5.542-.219-8.384-1.445.39-.275.514-.438.632-.435 2.496.062 2.526.04 1.25-2.269-.424-.766-1.023-1.434-1.504-2.172-.618-.95-1.163-1.913-.312-3.042.274-.364.426-.82.823-1.609-.921.146-1.535.329-2.146.322-1.06-.014-2.121-.232-3.175-.195-.64.022-1.428.189-1.873.594-1.3 1.182-1.89 5.619-.912 7.117.379.579 1.251.836 1.937 1.264-1.305.694-4.919.194-5.89-.886 2.035.551 2.156-1.009 2.426-2.132.339-1.415.385-2.901.585-4.59-2.579.731-4.045 3.107-6.697 2.759-2.428-.318-4.199-1.783-6.27-3.34 1.126-.677 2.149-1.571 3.338-1.958 4.29-1.4 6.598-4.943 9.219-8.172.131-.161.266-.345.32-.54 1.244-4.445 4.334-7.69 7.769-10.305 2.422-1.844 4.64-3.903 7.05-5.721 2.395-1.806 5.236-3.022 8.298-1.867 2.599.98 5.081 2.296 7.54 3.602.78.414 1.322 1.275 1.973 1.932l-.193.504c-1.094-.13-2.191-.237-3.28-.393-4.137-.593-7.277 1.16-8.463 4.915-.32 1.013-.374 2.208-.192 3.258.269 1.547-.081 2.814-1.025 3.978-2.504 3.087-3.991 6.92-7.269 9.477-1.029.803-1.524 2.373-2.066 3.673-.218.523-.05 1.33.198 1.895.421.959 1.16 1.781 1.559 2.746.659 1.597 1.809 2.277 3.464 2.318.44.01.878.135 1.317.207l-.047.51M97.555 259.761c1.906-2.282 3.824-4.553 5.713-6.848 1.686-2.048 2.292-4.545 2.429-7.075.035-.648-1.151-1.681-1.983-2.005-5.14-2.002-10.246-1.201-15.305.474-.357.118-.753.118-1.238-.206 1.604-.532 3.182-1.166 4.817-1.576 6.176-1.548 12.385-2.97 18.551-4.556 1.868-.481 3.684-1.239 5.443-2.045 2.801-1.282 3.073-3.515.771-5.762-1.034-1.009-2.092-2.006-3.226-2.899-2.081-1.639-4.273-3.14-6.332-4.806-1.765-1.429-3.409-3.007-5.48-4.852l.615-.326-5.284-6.48 1.181-.301-3.571-3.3 1.588-.283c-.52-.562-.995-.949-1.301-1.442-.356-.573-1.952-.883-.543-1.997.042-.032-.556-.83-.815-1.293-1.082-1.932-2.148-3.872-3.403-6.141l1.584.413-.568-1.967c2.196 2.452 4.222 5.006 6.544 7.253 7.365 7.125 15.785 12.918 24.112 18.827 1.576 1.118 2.918 2.562 4.42 3.792.565.462 1.54 1.2 1.871 1.011.729-.417 1.343-1.268 1.685-2.076.584-1.379.92-2.862 1.368-4.298.078-.252.195-.704.297-.705 2.038-.02 1.536-1.885 2.16-2.919.102-.17.213-.336.379-.596l1.418.339c.644-1.363.43-3.038 2.368-3.656.61-.194.675-1.925 1.108-2.9.428-.963.819-2.337 2.235-.674.46-1.216.743-2.269 1.248-3.203.364-.672 1.105-1.133 1.528-1.785.483-.746.765-1.621 1.201-2.403.493-.886.142-2.665 2.152-2.079.161.047.619-.762.869-1.213.483-.871.917-1.769 1.476-2.859l1.482 1.608.982-2.16c2.009 2.694 2.315 5.599 1.863 8.508-1.542 9.916-3.398 17.302-14.378 26.302 4.366 1.742 1.352 5.142 2.061 8.223-2.569-2.822-4.851-2.42-7.417-.521-2.566 1.898-5.351 3.519-8.132 5.098-1.437.816-3.073 1.279-4.619 1.901-.715-2.043-1.763-2.456-3.33-1.089-5.31 4.634-10.563 9.334-15.824 14.025-1.45 1.293-2.851 2.642-4.274 3.965l-.496-.443" fill="#00a99d" fill-rule="nonzero"/><defs><linearGradient id="b" x2="1" gradientUnits="userSpaceOnUse" gradientTransform="matrix(4.82774 4.73553 -5.37404 5.47868 494.207 98.23)"><stop offset="0" stop-color="#f6916b"/><stop offset="1" stop-color="#f16248"/></linearGradient><linearGradient id="d" x2="1" gradientUnits="userSpaceOnUse" gradientTransform="matrix(4.8289 4.73667 -5.37533 5.48 494.198 98.236)"><stop offset="0" stop-color="#f16248"/><stop offset="1" stop-color="#f6916b"/></linearGradient><linearGradient id="f" x2="1" gradientUnits="userSpaceOnUse" gradientTransform="matrix(9.00355 -15.8938 16.3111 9.23992 400.291 20.384)"><stop offset="0" stop-color="#f6916b"/><stop offset="1" stop-color="#f16248"/></linearGradient><linearGradient id="h" x2="1" gradientUnits="userSpaceOnUse" gradientTransform="matrix(9.00571 -15.8976 16.315 9.24215 400.31 20.4)"><stop offset="0" stop-color="#f16248"/><stop offset="1" stop-color="#f6916b"/></linearGradient><linearGradient id="j" x2="1" gradientUnits="userSpaceOnUse" gradientTransform="matrix(-5.69592 16.3541 21.2253 7.39248 317.721 274.074)"><stop offset="0" stop-color="#f6916b"/><stop offset="1" stop-color="#f16248"/></linearGradient><linearGradient id="l" x2="1" gradientUnits="userSpaceOnUse" gradientTransform="matrix(-5.6975 16.3587 21.2312 7.39454 317.77 273.026)"><stop offset="0" stop-color="#f16248"/><stop offset="1" stop-color="#f6916b"/></linearGradient><linearGradient id="n" x2="1" gradientUnits="userSpaceOnUse" gradientTransform="matrix(17.4953 5.47059 -5.55253 17.7573 586.551 90.562)"><stop offset="0" stop-color="#f6916b"/><stop offset="1" stop-color="#f16248"/></linearGradient><linearGradient id="p" x2="1" gradientUnits="userSpaceOnUse" gradientTransform="matrix(17.4995 5.4719 -5.55386 17.7616 586.539 90.583)"><stop offset="0" stop-color="#f16248"/><stop offset="1" stop-color="#f6916b"/></linearGradient><linearGradient id="r" x2="1" gradientUnits="userSpaceOnUse" gradientTransform="matrix(2.57588 5.84596 5.77558 -2.54487 420.409 282.318)"><stop offset="0" stop-color="#f6916b"/><stop offset="1" stop-color="#f16248"/></linearGradient><linearGradient id="t" x2="1" gradientUnits="userSpaceOnUse" gradientTransform="matrix(2.5765 5.84737 5.77697 -2.54548 420.416 282.313)"><stop offset="0" stop-color="#f16248"/><stop offset="1" stop-color="#f6916b"/></linearGradient><linearGradient id="v" x2="1" gradientUnits="userSpaceOnUse" gradientTransform="matrix(13.1834 2.24808 1.42853 -8.37733 401.995 137.213)"><stop offset="0" stop-color="#f6916b"/><stop offset="1" stop-color="#f16248"/></linearGradient><linearGradient id="x" x2="1" gradientUnits="userSpaceOnUse" gradientTransform="matrix(13.1866 2.24863 1.42887 -8.37934 401.994 137.2)"><stop offset="0" stop-color="#f16248"/><stop offset="1" stop-color="#f6916b"/></linearGradient><linearGradient id="z" x2="1" gradientUnits="userSpaceOnUse" gradientTransform="matrix(6.42286 -9.32271 -14.5145 -9.99971 297.211 34.038)"><stop offset="0" stop-color="#f6916b"/><stop offset="1" stop-color="#f16248"/></linearGradient><linearGradient id="B" x2="1" gradientUnits="userSpaceOnUse" gradientTransform="matrix(6.42441 -9.32496 -14.518 -10.0021 297.191 34.027)"><stop offset="0" stop-color="#f16248"/><stop offset="1" stop-color="#f6916b"/></linearGradient><linearGradient id="D" x2="1" gradientUnits="userSpaceOnUse" gradientTransform="matrix(11.7077 6.36131 3.57377 -6.57738 471.542 277.153)"><stop offset="0" stop-color="#f6916b"/><stop offset="1" stop-color="#f16248"/></linearGradient><linearGradient id="F" x2="1" gradientUnits="userSpaceOnUse" gradientTransform="matrix(11.7106 6.36284 3.57463 -6.57896 471.522 277.106)"><stop offset="0" stop-color="#f16248"/><stop offset="1" stop-color="#f6916b"/></linearGradient><linearGradient id="H" x2="1" gradientUnits="userSpaceOnUse" gradientTransform="matrix(8.46166 4.59758 -2.7406 5.04396 480.844 289.171)"><stop offset="0" stop-color="#f6916b"/><stop offset="1" stop-color="#f16248"/></linearGradient><linearGradient id="J" x2="1" gradientUnits="userSpaceOnUse" gradientTransform="matrix(8.4637 4.59869 -2.74126 5.04518 480.838 289.177)"><stop offset="0" stop-color="#f16248"/><stop offset="1" stop-color="#f6916b"/></linearGradient><linearGradient id="L" x2="1" gradientUnits="userSpaceOnUse" gradientTransform="matrix(10.1634 .72013 -.74752 10.55 555.19 359.686)"><stop offset="0" stop-color="#f6916b"/><stop offset="1" stop-color="#f16248"/></linearGradient><linearGradient id="N" x2="1" gradientUnits="userSpaceOnUse" gradientTransform="matrix(10.1658 .7203 -.7477 10.5525 555.186 359.701)"><stop offset="0" stop-color="#f16248"/><stop offset="1" stop-color="#f6916b"/></linearGradient><linearGradient id="P" x2="1" gradientUnits="userSpaceOnUse" gradientTransform="matrix(5.0536 -1.71611 -1.91943 -5.65233 511.542 71.65)"><stop offset="0" stop-color="#f6916b"/><stop offset="1" stop-color="#f16248"/></linearGradient><linearGradient id="R" x2="1" gradientUnits="userSpaceOnUse" gradientTransform="matrix(5.05481 -1.71652 -1.91989 -5.65369 511.538 71.643)"><stop offset="0" stop-color="#f16248"/><stop offset="1" stop-color="#f6916b"/></linearGradient><linearGradient id="T" x2="1" gradientUnits="userSpaceOnUse" gradientTransform="matrix(4.24513 -1.49726 -1.53271 -4.34563 408.606 36.053)"><stop offset="0" stop-color="#f6916b"/><stop offset="1" stop-color="#f16248"/></linearGradient><linearGradient id="V" x2="1" gradientUnits="userSpaceOnUse" gradientTransform="matrix(4.24615 -1.49762 -1.53307 -4.34668 408.603 36.048)"><stop offset="0" stop-color="#f16248"/><stop offset="1" stop-color="#f6916b"/></linearGradient><linearGradient id="X" x2="1" gradientUnits="userSpaceOnUse" gradientTransform="matrix(-3.44466 7.79759 8.38126 3.7025 284.951 208.857)"><stop offset="0" stop-color="#f6916b"/><stop offset="1" stop-color="#f16248"/></linearGradient><linearGradient id="Z" x2="1" gradientUnits="userSpaceOnUse" gradientTransform="matrix(-3.48222 7.88263 8.47267 3.74287 285.033 206.416)"><stop offset="0" stop-color="#f16248"/><stop offset="1" stop-color="#f6916b"/></linearGradient><linearGradient id="ab" x2="1" gradientUnits="userSpaceOnUse" gradientTransform="matrix(5.44409 4.64396 6.42174 -7.52818 319.886 239.789)"><stop offset="0" stop-color="#f6916b"/><stop offset="1" stop-color="#f16248"/></linearGradient><linearGradient id="ad" x2="1" gradientUnits="userSpaceOnUse" gradientTransform="matrix(5.44409 4.64396 6.42174 -7.52818 319.902 239.771)"><stop offset="0" stop-color="#f16248"/><stop offset="1" stop-color="#f6916b"/></linearGradient><linearGradient id="af" x2="1" gradientUnits="userSpaceOnUse" gradientTransform="matrix(-3.57067 8.08286 8.6403 3.81693 387.15 213.313)"><stop offset="0" stop-color="#f6916b"/><stop offset="1" stop-color="#f16248"/></linearGradient><linearGradient id="ah" x2="1" gradientUnits="userSpaceOnUse" gradientTransform="matrix(-3.60961 8.171 8.73452 3.85855 387.231 211.374)"><stop offset="0" stop-color="#f16248"/><stop offset="1" stop-color="#f6916b"/></linearGradient><linearGradient id="aj" x2="1" gradientUnits="userSpaceOnUse" gradientTransform="matrix(.64395 4.4809 5.0102 -.72001 434.838 98.54)"><stop offset="0" stop-color="#f6916b"/><stop offset="1" stop-color="#f16248"/></linearGradient><linearGradient id="al" x2="1" gradientUnits="userSpaceOnUse" gradientTransform="matrix(.65094 4.52958 5.06464 -.72784 434.83 98.491)"><stop offset="0" stop-color="#f16248"/><stop offset="1" stop-color="#f6916b"/></linearGradient><linearGradient id="an" x2="1" gradientUnits="userSpaceOnUse" gradientTransform="matrix(1.37199 5.84037 5.26594 -1.23705 567.879 101.912)"><stop offset="0" stop-color="#f6916b"/><stop offset="1" stop-color="#f16248"/></linearGradient><linearGradient id="ap" x2="1" gradientUnits="userSpaceOnUse" gradientTransform="matrix(1.37232 5.84177 5.26721 -1.23734 567.886 101.908)"><stop offset="0" stop-color="#f16248"/><stop offset="1" stop-color="#f6916b"/></linearGradient><linearGradient id="ar" x2="1" gradientUnits="userSpaceOnUse" gradientTransform="matrix(12.1203 4.42121 -3.14492 8.62145 462.059 224.719)"><stop offset="0" stop-color="#f6916b"/><stop offset="1" stop-color="#f16248"/></linearGradient><linearGradient id="at" x2="1" gradientUnits="userSpaceOnUse" gradientTransform="matrix(12.1232 4.42228 -3.14567 8.62352 462.052 224.731)"><stop offset="0" stop-color="#f16248"/><stop offset="1" stop-color="#f6916b"/></linearGradient><linearGradient id="av" x2="1" gradientUnits="userSpaceOnUse" gradientTransform="matrix(2.71979 3.93308 4.16163 -2.87783 441.066 223.948)"><stop offset="0" stop-color="#f6916b"/><stop offset="1" stop-color="#f16248"/></linearGradient><linearGradient id="ax" x2="1" gradientUnits="userSpaceOnUse" gradientTransform="matrix(2.71979 3.93308 4.16163 -2.87783 441.071 223.945)"><stop offset="0" stop-color="#f16248"/><stop offset="1" stop-color="#f6916b"/></linearGradient><linearGradient id="az" x2="1" gradientUnits="userSpaceOnUse" gradientTransform="rotate(-22.262 1101.037 -1279.13) scale(9.74398)"><stop offset="0" stop-color="#f6916b"/><stop offset="1" stop-color="#f16248"/></linearGradient><linearGradient id="aB" x2="1" gradientUnits="userSpaceOnUse" gradientTransform="rotate(146.185 235.162 248.214) scale(9.74398)"><stop offset="0" stop-color="#f6916b"/><stop offset="1" stop-color="#f16248"/></linearGradient><linearGradient id="aD" x2="1" gradientUnits="userSpaceOnUse" gradientTransform="matrix(-9.51648 11.3439 -12.9044 -10.8256 372.975 250.148)"><stop offset="0" stop-color="#f6916b"/><stop offset="1" stop-color="#f16248"/></linearGradient><linearGradient id="aF" x2="1" gradientUnits="userSpaceOnUse" gradientTransform="matrix(-9.51877 11.3467 -12.9076 -10.8282 372.959 250.13)"><stop offset="0" stop-color="#f16248"/><stop offset="1" stop-color="#f6916b"/></linearGradient><linearGradient id="aH" x2="1" gradientUnits="userSpaceOnUse" gradientTransform="matrix(-6.51452 .30898 .76664 7.63255 550.226 245.911)"><stop offset="0" stop-color="#f6916b"/><stop offset="1" stop-color="#f16248"/></linearGradient><linearGradient id="aJ" x2="1" gradientUnits="userSpaceOnUse" gradientTransform="matrix(6.53607 1.22594 .55363 -7.53978 549.618 247.851)"><stop offset="0" stop-color="#f6916b"/><stop offset="1" stop-color="#f16248"/></linearGradient><linearGradient id="aL" x2="1" gradientUnits="userSpaceOnUse" gradientTransform="matrix(13.3844 9.18166 -11.7653 17.1507 366.556 318.177)"><stop offset="0" stop-color="#f6916b"/><stop offset="1" stop-color="#f16248"/></linearGradient><linearGradient id="aN" x2="1" gradientUnits="userSpaceOnUse" gradientTransform="matrix(13.3877 9.18387 -11.7682 17.1549 366.536 318.2)"><stop offset="0" stop-color="#f16248"/><stop offset="1" stop-color="#f6916b"/></linearGradient><linearGradient id="aP" x2="1" gradientUnits="userSpaceOnUse" gradientTransform="matrix(9.61144 13.5588 -14.104 9.99792 456.865 119.753)"><stop offset="0" stop-color="#f6916b"/><stop offset="1" stop-color="#f16248"/></linearGradient><linearGradient id="aR" x2="1" gradientUnits="userSpaceOnUse" gradientTransform="matrix(9.61375 13.5621 -14.1074 10.0003 456.844 119.763)"><stop offset="0" stop-color="#f16248"/><stop offset="1" stop-color="#f6916b"/></linearGradient></defs></svg>