<svg xmlns="http://www.w3.org/2000/svg" xmlns:xlink="http://www.w3.org/1999/xlink" viewBox="0 0 620.41 203.68"><defs><style>.cls-1{fill:url(#linear-gradient)}.cls-2{fill:url(#linear-gradient-2)}.cls-3,.cls-6,.cls-9{fill:none;stroke:#f16248;stroke-miterlimit:10}.cls-3{stroke-width:.39px}.cls-4{fill:url(#linear-gradient-3)}.cls-5{fill:url(#linear-gradient-4)}.cls-6{stroke-width:.48px}.cls-7{fill:url(#linear-gradient-5)}.cls-8{fill:url(#linear-gradient-6)}.cls-9{stroke-width:.36px}.cls-10{fill:#771f00}</style><linearGradient id="linear-gradient" x1="-5524.93" y1="-3204.84" x2="-5528.02" y2="-3224.46" gradientTransform="matrix(-.71 .41 -.27 -.43 -4685.54 1099.52)" gradientUnits="userSpaceOnUse"><stop offset=".15" stop-color="#f6916b"/><stop offset=".69" stop-color="#f27052"/><stop offset="1" stop-color="#f16248"/></linearGradient><linearGradient id="linear-gradient-2" x1="-5520.64" y1="-3208.16" x2="-5513.68" y2="-3189.55" xlink:href="#linear-gradient"/><linearGradient id="linear-gradient-3" x1="-4781.92" y1="-3542.23" x2="-4785.01" y2="-3561.85" gradientTransform="matrix(.65 -.38 -.45 -.72 2037.36 -4213.26)" xlink:href="#linear-gradient"/><linearGradient id="linear-gradient-4" x1="-4777.63" y1="-3545.54" x2="-4770.67" y2="-3526.94" gradientTransform="matrix(.65 -.38 -.45 -.72 2037.36 -4213.26)" xlink:href="#linear-gradient"/><linearGradient id="linear-gradient-5" x1="599.05" y1="182.3" x2="632.75" y2="182.3" gradientTransform="matrix(.25 -.93 -.97 -.24 547.74 631.63)" xlink:href="#linear-gradient"/><linearGradient id="linear-gradient-6" x1="599.04" y1="182.34" x2="632.75" y2="182.34" gradientTransform="matrix(.25 -.93 -.97 -.24 547.74 631.63)" gradientUnits="userSpaceOnUse"><stop offset="0" stop-color="#f16248"/><stop offset=".15" stop-color="#f37153"/><stop offset=".42" stop-color="#f48360"/><stop offset=".69" stop-color="#f68d68"/><stop offset="1" stop-color="#f6916b"/></linearGradient></defs><title>Asset 5</title><g id="Layer_2" data-name="Layer 2"><g id="draft1"><path class="cls-1" d="M120.6 203.53s2.11-14-19.52-13c5.92 11.47 19.52 13 19.52 13z"/><path class="cls-2" d="M120.82 203.48s-14.15-1.4-19.53-12.94c-6.18 15.79 19.53 12.94 19.53 12.94z"/><path class="cls-3" d="M120.82 203.48s-18.22-1.79-21.17-18.17"/><path class="cls-4" d="M527.17 187.31s-17.11-11.25-11-34.16c12.26 17.68 11 34.16 11 34.16z"/><path class="cls-5" d="M527.07 187.5s1.53-17-11-34.15c20.18 8.52 11 34.15 11 34.15z"/><path class="cls-6" d="M527.07 187.5s2-21.87-16.84-41"/><path class="cls-7" d="M540.25.17c-6.93 23.59-32.34 25.39-32.88 25.42C517.51 9.42 540.25.17 540.25.17z"/><path class="cls-8" d="M507.37 25.59S510.58 3.32 540.25.17c0 0-22.74 9.25-32.88 25.42z"/><path class="cls-9" d="M504.08 32.38C511.06 12 540.25.17 540.25.17"/><path class="cls-10" d="M582.3 18.41c-18.13 11.27-35.65 22.68-53.71 33.24-17.59 10.28-35.71 19.67-56.13 33.43l18 5.4L516.19 153l-1.85 1.23c-7.25-10.67-18.06-20.51-21-32.19-6-24-22.69-30.25-45.9-31.49l-12.71 6.78c-55.73-16.14-89.64 20.13-126.19 49.89-5.48 4.46-9.58 10.49-14.47 16-3.44 11.43 3.31 26.07-12.37 36.54l2.29-25c-11.31 6.35-20.35 11.87-29.8 16.63-22.62 11.38-45 13.28-68.09-.12-16.32-9.46-34.14-13.63-53.88-10.07-10.93 2-22.56.35-34.63.35l4.37 9.85c-5.68-2.61-9.27-4-12.59-5.82C69.8 174.71 62.75 172 39.65 168.37c-20.3-3.21-26.86-.6-39.65 0v-55.18c22.91 4.42 57.4 16.69 82.32 30.06a82.34 82.34 0 0 0 49.3 10c22.78-2.56 44.15 2 62.41 13.92 23.34 15.29 44.11 10.83 64.65-3A201.82 201.82 0 0 0 289.33 139c25.28-25.6 56.06-42.91 89.93-54.62 11.83-4.09 26-1.83 39.18-2.3 4.49-.16 9 .22 13.32.34l9.64-14.07 6.86 9.1c17.92-2.75 31.66-10.73 40.64-26.6 5.1-9.05 12.1-17.13 18.29-25.66l1.44.91L489.36 58l3.75 3.47c30.13-14.24 61.06-27.2 89.24-52.84 0 0 23 5.92 37.7 2.1l.35 4.54c-5.56 2.73-38.1 3.14-38.1 3.14z"/></g></g></svg>