<svg xmlns="http://www.w3.org/2000/svg" xmlns:xlink="http://www.w3.org/1999/xlink" viewBox="0 0 815.65 795.48" preserveAspectRatio="xMinYMin">
    <defs>
        <style>
        .cls-1 {
            fill: url(#linear-gradient);
        }

        .cls-2 {
            fill: url(#linear-gradient-2);
        }

        .cls-12,
        .cls-15,
        .cls-18,
        .cls-23,
        .cls-26,
        .cls-29,
        .cls-3,
        .cls-32,
        .cls-35,
        .cls-38,
        .cls-41,
        .cls-44,
        .cls-47,
        .cls-50,
        .cls-53,
        .cls-56,
        .cls-59,
        .cls-6,
        .cls-62,
        .cls-65,
        .cls-69,
        .cls-72,
        .cls-9 {
            fill: none;
            stroke: #f16248;
            stroke-miterlimit: 10;
        }

        .cls-3 {
            stroke-width: 0.45px;
        }

        .cls-4 {
            fill: url(#linear-gradient-3);
        }

        .cls-5 {
            fill: url(#linear-gradient-4);
        }

        .cls-6 {
            stroke-width: 0.28px;
        }

        .cls-7 {
            fill: url(#linear-gradient-5);
        }

        .cls-8 {
            fill: url(#linear-gradient-6);
        }

        .cls-9 {
            stroke-width: 0.32px;
        }

        .cls-10 {
            fill: url(#linear-gradient-7);
        }

        .cls-11 {
            fill: url(#linear-gradient-8);
        }

        .cls-12 {
            stroke-width: 0.26px;
        }

        .cls-13 {
            fill: url(#linear-gradient-9);
        }

        .cls-14 {
            fill: url(#linear-gradient-10);
        }

        .cls-15 {
            stroke-width: 0.32px;
        }

        .cls-16 {
            fill: url(#linear-gradient-11);
        }

        .cls-17 {
            fill: url(#linear-gradient-12);
        }

        .cls-18 {
            stroke-width: 0.11px;
        }

        .cls-19 {
            fill: url(#linear-gradient-13);
        }

        .cls-20 {
            fill: url(#linear-gradient-14);
        }

        .cls-21 {
            fill: url(#linear-gradient-15);
        }

        .cls-22 {
            fill: url(#linear-gradient-16);
        }

        .cls-23 {
            stroke-width: 0.28px;
        }

        .cls-24 {
            fill: url(#linear-gradient-17);
        }

        .cls-25 {
            fill: url(#linear-gradient-18);
        }

        .cls-26 {
            stroke-width: 0.25px;
        }

        .cls-27 {
            fill: url(#linear-gradient-19);
        }

        .cls-28 {
            fill: url(#linear-gradient-20);
        }

        .cls-29 {
            stroke-width: 0.09px;
        }

        .cls-30 {
            fill: url(#linear-gradient-21);
        }

        .cls-31 {
            fill: url(#linear-gradient-22);
        }

        .cls-32 {
            stroke-width: 0.16px;
        }

        .cls-33 {
            fill: url(#linear-gradient-23);
        }

        .cls-34 {
            fill: url(#linear-gradient-24);
        }

        .cls-35 {
            stroke-width: 0.2px;
        }

        .cls-36 {
            fill: url(#linear-gradient-25);
        }

        .cls-37 {
            fill: url(#linear-gradient-26);
        }

        .cls-38 {
            stroke-width: 0.15px;
        }

        .cls-39 {
            fill: url(#linear-gradient-27);
        }

        .cls-40 {
            fill: url(#linear-gradient-28);
        }

        .cls-41 {
            stroke-width: 0.11px;
        }

        .cls-42 {
            fill: url(#linear-gradient-29);
        }

        .cls-43 {
            fill: url(#linear-gradient-30);
        }

        .cls-44 {
            stroke-width: 0.15px;
        }

        .cls-45 {
            fill: url(#linear-gradient-31);
        }

        .cls-46 {
            fill: url(#linear-gradient-32);
        }

        .cls-47 {
            stroke-width: 0.08px;
        }

        .cls-48 {
            fill: url(#linear-gradient-33);
        }

        .cls-49 {
            fill: url(#linear-gradient-34);
        }

        .cls-50 {
            stroke-width: 0.06px;
        }

        .cls-51 {
            fill: url(#linear-gradient-35);
        }

        .cls-52 {
            fill: url(#linear-gradient-36);
        }

        .cls-53 {
            stroke-width: 0.12px;
        }

        .cls-54 {
            fill: url(#linear-gradient-37);
        }

        .cls-55 {
            fill: url(#linear-gradient-38);
        }

        .cls-56 {
            stroke-width: 0.12px;
        }

        .cls-57 {
            fill: url(#linear-gradient-39);
        }

        .cls-58 {
            fill: url(#linear-gradient-40);
        }

        .cls-59 {
            stroke-width: 0.13px;
        }

        .cls-60 {
            fill: url(#linear-gradient-41);
        }

        .cls-61 {
            fill: url(#linear-gradient-42);
        }

        .cls-62 {
            stroke-width: 0.07px;
        }

        .cls-63 {
            fill: url(#linear-gradient-43);
        }

        .cls-64 {
            fill: url(#linear-gradient-44);
        }

        .cls-65 {
            stroke-width: 0.08px;
        }

        .cls-66 {
            fill: #771f00;
        }

        .cls-67 {
            fill: url(#linear-gradient-45);
        }

        .cls-68 {
            fill: url(#linear-gradient-46);
        }

        .cls-69 {
            stroke-width: 0.16px;
        }

        .cls-70 {
            fill: url(#linear-gradient-47);
        }

        .cls-71 {
            fill: url(#linear-gradient-48);
        }

        .cls-72 {
            stroke-width: 0.07px;
        }
        </style>
        <linearGradient id="linear-gradient" x1="-5703" y1="-5239.32" x2="-5705.33" y2="-5254.1" gradientTransform="translate(-3124.89 7168) rotate(76.7)" gradientUnits="userSpaceOnUse">
            <stop offset="0.15" stop-color="#f6916b" />
            <stop offset="0.69" stop-color="#f27052" />
            <stop offset="1" stop-color="#f16248" />
        </linearGradient>
        <linearGradient id="linear-gradient-2" x1="-5699.6" y1="-5241.71" x2="-5694.36" y2="-5227.7" xlink:href="#linear-gradient" />
        <linearGradient id="linear-gradient-3" x1="-13447.62" y1="-4379.37" x2="-13414.76" y2="-4379.37" gradientTransform="matrix(-0.44, 0.53, -0.6, -0.51, -8178.62, 5365.7)" xlink:href="#linear-gradient" />
        <linearGradient id="linear-gradient-4" x1="-13447.63" y1="-4379.33" x2="-13414.76" y2="-4379.33" gradientTransform="matrix(-0.44, 0.53, -0.6, -0.51, -8178.62, 5365.7)" gradientUnits="userSpaceOnUse">
            <stop offset="0" stop-color="#f16248" />
            <stop offset="0.15" stop-color="#f37153" />
            <stop offset="0.42" stop-color="#f48360" />
            <stop offset="0.69" stop-color="#f68d68" />
            <stop offset="1" stop-color="#f6916b" />
        </linearGradient>
        <linearGradient id="linear-gradient-5" x1="-5388.53" y1="10170.49" x2="-5390.86" y2="10155.71" gradientTransform="matrix(0.18, 0.77, 0.65, -0.15, -4968.66, 6152.65)" xlink:href="#linear-gradient" />
        <linearGradient id="linear-gradient-6" x1="-5385.14" y1="10168.09" x2="-5379.89" y2="10182.1" gradientTransform="matrix(0.18, 0.77, 0.65, -0.15, -4968.66, 6152.65)" xlink:href="#linear-gradient" />
        <linearGradient id="linear-gradient-7" x1="-3043.7" y1="-4716.64" x2="-3020.88" y2="-4716.64" gradientTransform="matrix(0.59, 0.84, -0.86, 0.61, -1755.76, 5693.97)" xlink:href="#linear-gradient" />
        <linearGradient id="linear-gradient-8" x1="-3043.7" y1="-4716.61" x2="-3020.88" y2="-4716.61" gradientTransform="matrix(0.59, 0.84, -0.86, 0.61, -1755.76, 5693.97)" xlink:href="#linear-gradient-4" />
        <linearGradient id="linear-gradient-9" x1="-385.75" y1="-2655.11" x2="-352.89" y2="-2655.11" gradientTransform="matrix(0.63, 0.43, -0.55, 0.8, -889.96, 2713.23)" xlink:href="#linear-gradient" />
        <linearGradient id="linear-gradient-10" x1="-385.76" y1="-2655.06" x2="-352.89" y2="-2655.06" gradientTransform="matrix(0.63, 0.43, -0.55, 0.8, -889.96, 2713.23)" xlink:href="#linear-gradient-4" />
        <linearGradient id="linear-gradient-11" x1="226.43" y1="-1067.44" x2="237.77" y2="-1067.44" gradientTransform="matrix(0.74, 0.2, -0.23, 0.83, 163.05, 923.87)" xlink:href="#linear-gradient" />
        <linearGradient id="linear-gradient-12" x1="226.43" y1="-1067.43" x2="237.77" y2="-1067.43" gradientTransform="matrix(0.74, 0.2, -0.23, 0.83, 163.05, 923.87)" xlink:href="#linear-gradient-4" />
        <linearGradient id="linear-gradient-13" x1="-5384.77" y1="6479.93" x2="-5361.95" y2="6479.93" gradientTransform="matrix(0.01, -1.02, 1.05, 0.01, -6338.24, -5527.07)" xlink:href="#linear-gradient" />
        <linearGradient id="linear-gradient-14" x1="-5384.77" y1="6479.96" x2="-5361.95" y2="6479.96" gradientTransform="matrix(0.01, -1.02, 1.05, 0.01, -6338.24, -5527.07)" xlink:href="#linear-gradient-4" />
        <linearGradient id="linear-gradient-15" x1="-5245.62" y1="5777.78" x2="-5222.8" y2="5777.78" gradientTransform="matrix(0.17, 0.96, 1.24, -0.21, -5820.45, 6644.36)" xlink:href="#linear-gradient" />
        <linearGradient id="linear-gradient-16" x1="-5245.62" y1="5777.81" x2="-5222.8" y2="5777.81" gradientTransform="matrix(0.17, 0.96, 1.24, -0.21, -5820.45, 6644.36)" xlink:href="#linear-gradient-4" />
        <linearGradient id="linear-gradient-17" x1="635.12" y1="1290.8" x2="658.51" y2="1290.8" gradientTransform="matrix(0.98, -0.2, 0.21, 1, -214.63, -1144.81)" xlink:href="#linear-gradient" />
        <linearGradient id="linear-gradient-18" x1="635.12" y1="1290.83" x2="658.51" y2="1290.83" gradientTransform="matrix(0.98, -0.2, 0.21, 1, -214.63, -1144.81)" xlink:href="#linear-gradient-4" />
        <linearGradient id="linear-gradient-19" x1="7529.3" y1="12814.73" x2="7552.11" y2="12814.73" gradientTransform="matrix(0.29, 0.22, 0.21, -0.28, -4283.28, 2311.27)" xlink:href="#linear-gradient" />
        <linearGradient id="linear-gradient-20" x1="7529.29" y1="12814.76" x2="7552.11" y2="12814.76" gradientTransform="matrix(0.29, 0.22, 0.21, -0.28, -4283.28, 2311.27)" xlink:href="#linear-gradient-4" />
        <linearGradient id="linear-gradient-21" x1="246.86" y1="-1950.36" x2="263.82" y2="-1950.36" gradientTransform="matrix(0.95, -0.33, -0.21, -0.6, -152.2, -917.42)" xlink:href="#linear-gradient" />
        <linearGradient id="linear-gradient-22" x1="246.85" y1="-1950.34" x2="263.82" y2="-1950.34" gradientTransform="matrix(0.95, -0.33, -0.21, -0.6, -152.2, -917.42)" xlink:href="#linear-gradient-4" />
        <linearGradient id="linear-gradient-23" x1="-4441.74" y1="-5777.08" x2="-4418.93" y2="-5777.08" gradientTransform="matrix(0.06, -0.63, -0.98, -0.1, -5094.08, -3229.78)" xlink:href="#linear-gradient" />
        <linearGradient id="linear-gradient-24" x1="-4441.75" y1="-5777.05" x2="-4418.93" y2="-5777.05" gradientTransform="matrix(0.06, -0.63, -0.98, -0.1, -5094.08, -3229.78)" xlink:href="#linear-gradient-4" />
        <linearGradient id="linear-gradient-25" x1="571.36" y1="1138.81" x2="588.32" y2="1138.81" gradientTransform="matrix(1.01, -0.01, 0, -0.56, 92.5, 941.22)" xlink:href="#linear-gradient" />
        <linearGradient id="linear-gradient-26" x1="571.36" y1="1138.84" x2="588.32" y2="1138.84" gradientTransform="matrix(1.01, -0.01, 0, -0.56, 92.5, 941.22)" xlink:href="#linear-gradient-4" />
        <linearGradient id="linear-gradient-27" x1="3021.18" y1="-762.72" x2="3038.14" y2="-762.72" gradientTransform="matrix(0.73, -0.01, 0, 0.43, -1512.57, 649.99)" xlink:href="#linear-gradient" />
        <linearGradient id="linear-gradient-28" x1="3021.18" y1="-762.7" x2="3038.14" y2="-762.7" gradientTransform="matrix(0.73, -0.01, 0, 0.43, -1512.57, 649.99)" xlink:href="#linear-gradient-4" />
        <linearGradient id="linear-gradient-29" x1="9971.61" y1="5891.15" x2="10004.48" y2="5891.15" gradientTransform="matrix(0.36, -0.17, 0.17, 0.37, -3802.65, -196.67)" xlink:href="#linear-gradient" />
        <linearGradient id="linear-gradient-30" x1="9971.61" y1="5891.2" x2="10004.48" y2="5891.2" gradientTransform="matrix(0.36, -0.17, 0.17, 0.37, -3802.65, -196.67)" xlink:href="#linear-gradient-4" />
        <linearGradient id="linear-gradient-31" x1="15702.52" y1="-17586.59" x2="15735.39" y2="-17586.59" gradientTransform="matrix(0.14, -0.15, -0.17, -0.16, -4639.56, -293.04)" xlink:href="#linear-gradient" />
        <linearGradient id="linear-gradient-32" x1="15702.52" y1="-17586.54" x2="15735.39" y2="-17586.54" gradientTransform="matrix(0.14, -0.15, -0.17, -0.16, -4639.56, -293.04)" xlink:href="#linear-gradient-4" />
        <linearGradient id="linear-gradient-33" x1="12367.61" y1="-16492.38" x2="12390.43" y2="-16492.38" gradientTransform="matrix(0.17, -0.19, -0.19, -0.17, -4818.05, -429.02)" xlink:href="#linear-gradient" />
        <linearGradient id="linear-gradient-34" x1="12367.61" y1="-16492.35" x2="12390.43" y2="-16492.35" gradientTransform="matrix(0.17, -0.19, -0.19, -0.17, -4818.05, -429.02)" xlink:href="#linear-gradient-4" />
        <linearGradient id="linear-gradient-35" x1="-6193.47" y1="6303.9" x2="-6182.65" y2="6303.9" gradientTransform="matrix(0.09, 1, 1.08, -0.1, -5830.7, 7167.74)" xlink:href="#linear-gradient" />
        <linearGradient id="linear-gradient-36" x1="-6193.59" y1="6303.9" x2="-6182.65" y2="6303.9" gradientTransform="matrix(0.09, 1, 1.08, -0.1, -5830.7, 7167.74)" xlink:href="#linear-gradient-4" />
        <linearGradient id="linear-gradient-37" x1="1016.22" y1="1979.02" x2="1027.04" y2="1979.02" gradientTransform="matrix(0.83, 0.17, 0.23, -1.15, -834.66, 2444.71)" xlink:href="#linear-gradient" />
        <linearGradient id="linear-gradient-38" x1="1016.22" y1="1979.05" x2="1027.04" y2="1979.05" gradientTransform="matrix(0.83, 0.17, 0.23, -1.15, -834.66, 2444.71)" xlink:href="#linear-gradient-4" />
        <linearGradient id="linear-gradient-39" x1="-6241.75" y1="6239.89" x2="-6230.93" y2="6239.89" gradientTransform="matrix(0.09, 1.04, 1.11, -0.1, -5827.51, 7399.69)" xlink:href="#linear-gradient" />
        <linearGradient id="linear-gradient-40" x1="-6241.87" y1="6239.89" x2="-6230.93" y2="6239.89" gradientTransform="matrix(0.09, 1.04, 1.11, -0.1, -5827.51, 7399.69)" xlink:href="#linear-gradient-4" />
        <linearGradient id="linear-gradient-41" x1="-3257.91" y1="5018.42" x2="-3252.52" y2="5018.42" gradientTransform="matrix(0.65, 0.85, 0.96, -0.73, -2174.69, 6540.4)" xlink:href="#linear-gradient" />
        <linearGradient id="linear-gradient-42" x1="-3257.97" y1="5018.42" x2="-3252.52" y2="5018.42" gradientTransform="matrix(0.65, 0.85, 0.96, -0.73, -2174.69, 6540.4)" xlink:href="#linear-gradient-4" />
        <linearGradient id="linear-gradient-43" x1="2891.5" y1="13077.79" x2="2908.46" y2="13077.79" gradientTransform="matrix(0.3, 0.34, 0.3, -0.27, -4170.38, 2654.75)" xlink:href="#linear-gradient" />
        <linearGradient id="linear-gradient-44" x1="2891.49" y1="13077.82" x2="2908.46" y2="13077.82" gradientTransform="matrix(0.3, 0.34, 0.3, -0.27, -4170.38, 2654.75)" xlink:href="#linear-gradient-4" />
        <linearGradient id="linear-gradient-45" x1="744.41" y1="1078.27" x2="761.37" y2="1078.27" gradientTransform="matrix(0.96, -0.15, 0.11, 0.68, -213.81, -383.85)" xlink:href="#linear-gradient" />
        <linearGradient id="linear-gradient-46" x1="744.41" y1="1078.29" x2="761.37" y2="1078.29" gradientTransform="matrix(0.96, -0.15, 0.11, 0.68, -213.81, -383.85)" xlink:href="#linear-gradient-4" />
        <linearGradient id="linear-gradient-47" x1="3336.34" y1="6106.21" x2="3347.15" y2="6106.21" gradientTransform="matrix(0.51, 0.25, 0.27, -0.54, -2717.82, 2690.95)" xlink:href="#linear-gradient" />
        <linearGradient id="linear-gradient-48" x1="3336.34" y1="6106.22" x2="3347.15" y2="6106.22" gradientTransform="matrix(0.51, 0.25, 0.27, -0.54, -2717.82, 2690.95)" xlink:href="#linear-gradient-4" />
    </defs>
    <title>Asset 12</title>
    <g id="Layer_2" data-name="Layer 2">
        <g id="draft1">
            <path class="cls-1" d="M675,406.13s-17.61-4.89-28.1,15.7l0,0A45.69,45.69,0,0,0,675,406.13Z" />
            <path class="cls-2" d="M675,406.13a45.69,45.69,0,0,1-28.07,15.71C664.83,430.44,675,406.13,675,406.13Z" />
            <path class="cls-3" d="M675,406.13a46,46,0,0,1-36,16.28" />
            <path class="cls-4" d="M432.82,478.64c10.61-13.49-1.49-30.77-1.75-31.14C426.6,460.27,432.82,478.64,432.82,478.64Z" />
            <path class="cls-5" d="M431.07,447.5v0s-11.73,10.58,1.76,31.16C432.82,478.64,426.6,460.27,431.07,447.5Z" />
            <path class="cls-6" d="M433.45,442.77c-8.63,12.29-.63,35.87-.63,35.87" />
            <path class="cls-7" d="M633.78,450.94s8.78-9.23,21.67,2l0,0A27.53,27.53,0,0,1,633.78,450.94Z" />
            <path class="cls-8" d="M633.78,450.94a27.53,27.53,0,0,0,21.65,2C647.67,465,633.78,450.94,633.78,450.94Z" />
            <path class="cls-9" d="M633.78,450.94s12.65,7.77,26.52-.14" />
            <path class="cls-10" d="M506.9,297.41c-10.57-14.12-27.84-8.76-28.21-8.64C489.49,297.05,506.9,297.41,506.9,297.41Z" />
            <path class="cls-11" d="M478.69,288.77h0s7.79,14.18,28.23,8.64C506.9,297.41,489.49,297.05,478.69,288.77Z" />
            <path class="cls-12" d="M474.78,285c9.78,11.92,32.12,12.37,32.12,12.37" />
            <path class="cls-13" d="M356.08,423.86c-15.89-10.08-35.05,7.27-35.46,7.65C335.39,434.49,356.08,423.86,356.08,423.86Z" />
            <path class="cls-14" d="M320.62,431.51l0,0s12.61,11.93,35.48-7.66C356.08,423.86,335.39,434.49,320.62,431.51Z" />
            <path class="cls-15" d="M315.11,429.55c14.42,8,41-5.69,41-5.69" />
            <path class="cls-16" d="M585,77.49c-6.35-1.54-10.41,5.36-10.5,5.51C579.65,82.53,585,77.49,585,77.49Z" />
            <path class="cls-17" d="M574.52,83h0S580,85.39,585,77.49C585,77.49,579.65,82.53,574.52,83Z" />
            <path class="cls-18" d="M572.51,82.92c5.62,1,12.51-5.43,12.51-5.43" />
            <path class="cls-19" d="M413.45,26.81c.3,17.64,17.44,23.41,17.8,23.53C427.34,37.3,413.45,26.81,413.45,26.81Z" />
            <path class="cls-20" d="M431.25,50.34h0s2-16.06-17.82-23.54C413.45,26.81,427.34,37.3,431.25,50.34Z" />
            <path class="cls-12" d="M432.23,55.65c-.95-15.39-18.78-28.84-18.78-28.84" />
            <path class="cls-21" d="M480.36,409c-2.3-16.57,17.1-25.32,17.51-25.51C495.22,396.43,480.36,409,480.36,409Z" />
            <path class="cls-22" d="M497.88,383.45h0s4.78,14.64-17.53,25.52C480.36,409,495.22,396.43,497.88,383.45Z" />
            <path class="cls-23" d="M498.24,378.29c1.2,14.59-17.87,30.67-17.87,30.67" />
            <path class="cls-24" d="M695.38.06c-17.24,4-19.44,21.25-19.49,21.62C687.9,15.26,695.38.06,695.38.06Z" />
            <path class="cls-25" d="M675.89,21.67v0S692,20.16,695.38.06C695.38.06,687.9,15.26,675.89,21.67Z" />
            <path class="cls-26" d="M670.88,23.71c14.9-4.13,24.5-23.65,24.5-23.65" />
            <path class="cls-27" d="M611.9,338.17c-4.82-3.85-2.88-9.65-2.84-9.77C611.87,332.23,611.9,338.17,611.9,338.17Z" />
            <path class="cls-28" d="M609.06,328.4h0s4.85,2.91,2.84,9.78C611.9,338.17,611.87,332.23,609.06,328.4Z" />
            <path class="cls-29" d="M607.8,327c4.06,3.54,4.11,11.17,4.11,11.17" />
            <path class="cls-30" d="M514.25,178.49c-12.26,4.06-19-2.69-19.13-2.84C504.78,174.4,514.25,178.49,514.25,178.49Z" />
            <path class="cls-31" d="M495.13,175.65h0s10.8-4.77,19.13,2.84C514.25,178.49,504.78,174.4,495.13,175.65Z" />
            <path class="cls-32" d="M491.3,176.45c10.8-3.21,23,2,23,2" />
            <path class="cls-33" d="M325.22,115.88c-1.49,10.83-17.91,12.73-18.26,12.77C311.51,121,325.22,115.88,325.22,115.88Z" />
            <path class="cls-34" d="M307,128.65h0s-.76-10.09,18.28-12.78C325.22,115.88,311.51,121,307,128.65Z" />
            <path class="cls-35" d="M305.68,131.83c1.94-9.39,19.54-15.95,19.54-15.95" />
            <path class="cls-36" d="M678.31,297.14c-12.86-.09-17-7.63-17.11-7.79C670.7,291,678.31,297.14,678.31,297.14Z" />
            <path class="cls-37" d="M661.2,289.35h0s11.72-.91,17.12,7.8C678.31,297.14,670.7,291,661.2,289.35Z" />
            <path class="cls-38" d="M657.33,288.93c11.22.38,21,8.21,21,8.21" />
            <path class="cls-39" d="M691.39,297.85c-9.29.23-12.21,6.07-12.27,6.19A30.37,30.37,0,0,0,691.39,297.85Z" />
            <path class="cls-40" d="M679.12,304h0s8.48.55,12.27-6.2A30.37,30.37,0,0,1,679.12,304Z" />
            <path class="cls-41" d="M676.33,304.41c8.1-.44,15.06-6.56,15.06-6.56" />
            <path class="cls-42" d="M815.47,323.2c-8.8,4.41-7.14,15.39-7.1,15.63C813.89,333.51,815.47,323.2,815.47,323.2Z" />
            <path class="cls-43" d="M808.36,338.83h0s8.61-2.75,7.1-15.64C815.47,323.2,813.89,333.51,808.36,338.83Z" />
            <path class="cls-44" d="M806,340.66c7.49-4.23,9.51-17.45,9.51-17.45" />
            <path class="cls-45" d="M585.43,35.67c-3.58,3.71-9.14.88-9.26.82C579.77,34.62,585.43,35.67,585.43,35.67Z" />
            <path class="cls-46" d="M576.17,36.48h0s2.68-3.91,9.26-.81C585.43,35.67,579.77,34.62,576.17,36.48Z" />
            <path class="cls-47" d="M574.87,37.39c3.3-3.07,10.56-1.72,10.56-1.72" />
            <path class="cls-48" d="M446.74,59.79c-3,3.18-7,1.41-7.13,1.37C442.48,59.42,446.74,59.79,446.74,59.79Z" />
            <path class="cls-49" d="M439.61,61.16h0s2.29-3.27,7.14-1.37C446.74,59.79,442.48,59.42,439.61,61.16Z" />
            <path class="cls-50" d="M438.55,62c2.71-2.66,8.19-2.18,8.19-2.18" />
            <path class="cls-51" d="M406.72,343.91c-.52-8.22,7.61-11.58,7.79-11.65C413.09,338.48,406.72,343.91,406.72,343.91Z" />
            <path class="cls-52" d="M414.45,332.15h0s1.62,7.5-7.75,11.77C406.72,343.91,412.93,338.12,414.45,332.15Z" />
            <path class="cls-53" d="M414.78,329.75c-.17,7.11-8.26,14.11-8.06,14.16" />
            <path class="cls-54" d="M476.42,352.07c-6.72-1.61-7.08-10.94-7.08-11.14C473.9,344,476.42,352.07,476.42,352.07Z" />
            <path class="cls-55" d="M469.33,340.93h.26s6.1.28,6.82,11.13C476.42,352.07,474,344.72,469.33,340.93Z" />
            <path class="cls-56" d="M467.41,340c5.64,2,8.91,12.27,9,12.08" />
            <path class="cls-57" d="M523.72,285.91c-.54-8.52,7.84-12,8-12.08C530.28,280.29,523.72,285.91,523.72,285.91Z" />
            <path class="cls-58" d="M531.69,273.72h0s1.68,7.78-8,12.2C523.72,285.91,530.12,279.91,531.69,273.72Z" />
            <path class="cls-59" d="M532,271.24c-.18,7.37-8.51,14.62-8.31,14.68" />
            <path class="cls-60" d="M510.94,122.35c-2.54-3.56.31-7.47.38-7.55C512.39,118,510.94,122.35,510.94,122.35Z" />
            <path class="cls-61" d="M511.26,114.76h0s2.86,2.91-.32,7.59C510.94,122.35,512.22,117.9,511.26,114.76Z" />
            <path class="cls-62" d="M510.74,113.58c1.91,3.26.09,8.8.2,8.77" />
            <path class="cls-63" d="M663.34,45.12c-3.78-4.39-1-9.43-.91-9.54C664.35,39.61,663.34,45.12,663.34,45.12Z" />
            <path class="cls-64" d="M662.43,35.58h0s4,3.52.91,9.54C663.34,45.12,664.35,39.61,662.43,35.58Z" />
            <path class="cls-65" d="M661.5,34.07c3.14,4,1.84,11,1.84,11" />
            <path class="cls-66" d="M797.66,345.13c-9.73,5.51-20.21,2.65-29.71-2.68-2.36-1.32-4.95-2.28-7.16-3.81-16.8-11.58-34.7-12.29-53-4.68-12,5-23.67,5.08-36.28,2.95-11.3-1.91-23-1.12-34.54-2-6.49-.47-13.78-.27-19.11-3.25s-11.16-8.94-12.82-14.71c-4.21-14.66-7.2-21.16-10-36.21-.35-1.83-3.77-11.39-4-13.26.78-.87,18.51,4.73,21.42,8.18s10.89,18.79,18,22.45,46.34,6.35,46.34,6.35c-44.59-8.75-44.37-15.22-44.37-15.22l24.86-.35s-24.93-5.44-30-7.49a17,17,0,0,1-8.93-9c-1.18-2.65-10.07-8.37-17.49-10.3-8-2.08-13.38-2.31-18.35-4.74s-4.56-1-11.67-7.89c-2.28-2.21-5.64-5.53-9.44-9.17,4.74-.76,10-1.34,12.48-.8,3.5.75,20.19,10.12,20.19,10.12,1.13-1.32-11.19-9.92-11.19-9.92a60.48,60.48,0,0,1,11.81,5.12c1.46,1.08,7.3,2.66,12,3a22,22,0,0,0,9-1.47c-2.06.44-9.28,0-13.56-1s-8.89-5.75-12.7-7.67-12.7-3.71-20.5-5.38c-2.63-.56-8.95-.43-16.16,0-5.77-5.23-11.49-10-15.36-12.15-8.58-4.75-46.35-18.63-72.62-18.75-.72,0,10.58-15,14.78-18.06a117.44,117.44,0,0,1,11.66-6.89s-9.82,1.21-20.23,10.66-11.5,11-16.72,14.7-16.21,20.3-38.86,27.46-25.94,8.07-39.11,12.56c-9.09,3.1-17.91,7-27,10.18-4.23,1.48-8.77,2.07-13.18,3.06-.44-1.15,1.06-9.75,1.5-27.31,1.85-12.58,6.1-23.79,14.38-32.34,12-12.39,18.76-27.25,19.28-43.58.77-24.66,16.57-34,36.13-40.59a104.74,104.74,0,0,1,22.65-4.88c21.69-2.2,50.44,6.42,73,3.45,3.31.84,6.53,2.06,7.61,3.74a33.09,33.09,0,0,0-2.58-4.63,38.61,38.61,0,0,0,12.93-5.3c4.45-2.94,17.14-10.71,26.53-16.48.37-.23,17-4.19,17-4.19h7.91l-7.4-2.26s-7.6.34-6.94-.08C575,69.89,574.58,59.1,591.92,49.28c12.34-7,27.55-9,41-10.92a122.24,122.24,0,0,0,22.49-5.21c2.39.09,6.07.37,6.26,1.19a9.59,9.59,0,0,0-1.92-2.91c4.63-2,8.67-4.57,11.12-7.72-23.38,9.09-66.24,3.53-87.43,16.91-6.63,4.19-9.51,8.69-12,13.25-.21.37-.2-6.21-.2-6.21l3.64-10.25s-4.56,5.19-6.11,7.31-2.6,17.9-3.4,18.86a32.48,32.48,0,0,1-6.57,6c-7.46,5.2-35.43,19.93-38.51,21.9-24.61,15.77-66.26-.66-96.91-.09,9.69-6.17,12.65-13.68,12.16-21.9h0c.35-2,3-7.49,3-7.49L435,66.78h0c0-3.61-1.49-7.34-2.89-11.14,0,0,2.63,21.54-18.31,32.72-14.11,7.53-28.8,14.32-42.28,23-10.75,6.91-16.58,17.47-17.89,31-1.43,14.74-6,28.53-17.84,39.1-5,4.51-8.45,10.86-15.11,15.53,2-6.71-5.78-46.39-11.84-59.55-.89-1.94-2.1-3.72-3.17-5.58-1,.24,2.69,9.42,3.11,15.36,0,0,5.55,33.2,2.52,45.31-2.11,8.43-1.34,19,1.12,27.85,8.41,30.15-29.53,58.51-42.25,64.15S233,298.74,213.62,318.12,162,388,142.33,403.47C118,422.56,8,509.63,0,535.25V795.48s34.21-71.4,61.44-122.91C76.18,644.7,161.85,507.57,175.3,484c12-21,42.2-60,51.19-69.38,13.42-14,20.49-34,36.28-44.13s32.07-16.87,44.1-21.94a155.14,155.14,0,0,0,29.43-16.39c20.41-9.93,45.8-19.89,65.72-12.54,3.74,1.38,7.08,2.67,10.08,3.88,1.38,1.68,2.88,4,2.68,6.22a11.11,11.11,0,0,0,.41-4.94c10.89,4.59,16.48,8,19.56,11,5.14,5,12.35,12.34,19,19s19.33,4.17,27,7.41,11,2.12,17.44,16c.51-8.82-12.36-22.21-22.43-23.81-8.61-1.37-13.42-4.92-21.52-14a14.8,14.8,0,0,1,5.48-1.44,50.69,50.69,0,0,1,7.64.93s-3.78-3.15-7.55-3.15a52.54,52.54,0,0,0-8,.89l-2-2.33c-11-12.92-36.57-26.6-43-29.19-20.66-8.35-40.88-5.8-61.07,1.4-4.73,1.69-9.26,3.95-14.05,5.41-13.62,4.17-27.24,8.93-42.59,3.07,17.88-5,59.35-21.36,77.59-24.89s32.57-16.4,46.76-22.79,25.29-17,41.19-25.19c18.15-9.38,43.53-8.75,54-3.08,3.2,1.74,9.83,5.57,17.71,11A32.18,32.18,0,0,1,532,271.24s2.69-5.83,4.9-12.47c15.68,12.14,32.48,28.77,37,46.57,0,0,25.07,49.84,36.46,51.17,14.4,1.68,27.39-1.31,41.93-.82,5.36.18,15.26-.17,20.32-.59,19.7-1.62,23.17-6.09,38.48-10.79,7.29-2.24,14.89-3.47,22.81-5.25l5.91.87s15.64,6.94,21.92,10.67c14.9,8.84,33.15,5.48,44.22-10Z" />
            <path class="cls-67" d="M633.64,233.17c-12.26,2.19-14.73,12-14.79,12.18C627.59,241.77,633.64,233.17,633.64,233.17Z" />
            <path class="cls-68" d="M618.86,245.35h0s11.37-.79,14.79-12.19C633.64,233.17,627.59,241.77,618.86,245.35Z" />
            <path class="cls-69" d="M615.24,246.48c10.64-2.27,18.4-13.31,18.4-13.31" />
            <path class="cls-70" d="M598.54,257.59c-4.08-2.16-3.34-7-3.33-7.07C597.78,253,598.54,257.59,598.54,257.59Z" />
            <path class="cls-71" d="M595.21,250.52s4,1.42,3.33,7.07C598.54,257.59,597.43,252.86,595.21,250.52Z" />
            <path class="cls-72" d="M594.09,249.66c3.35,2.16,4.36,8,4.45,7.94" />
        </g>
    </g>
</svg>