<svg xmlns="http://www.w3.org/2000/svg" xmlns:xlink="http://www.w3.org/1999/xlink" viewBox="0 0 606.11 366.26"><defs><style>.cls-1{fill:url(#linear-gradient);}.cls-2{fill:url(#linear-gradient-2);}.cls-12,.cls-15,.cls-18,.cls-21,.cls-24,.cls-27,.cls-3,.cls-30,.cls-33,.cls-36,.cls-39,.cls-42,.cls-45,.cls-48,.cls-51,.cls-55,.cls-58,.cls-6,.cls-61,.cls-64,.cls-67,.cls-70,.cls-73,.cls-9{fill:none;stroke:#f16248;stroke-miterlimit:10;}.cls-3{stroke-width:0.08px;}.cls-4{fill:url(#linear-gradient-3);}.cls-5{fill:url(#linear-gradient-4);}.cls-6{stroke-width:0.2px;}.cls-7{fill:url(#linear-gradient-5);}.cls-8{fill:url(#linear-gradient-6);}.cls-9{stroke-width:0.22px;}.cls-10{fill:url(#linear-gradient-7);}.cls-11{fill:url(#linear-gradient-8);}.cls-12{stroke-width:0.2px;}.cls-13{fill:url(#linear-gradient-9);}.cls-14{fill:url(#linear-gradient-10);}.cls-15{stroke-width:0.07px;}.cls-16{fill:url(#linear-gradient-11);}.cls-17{fill:url(#linear-gradient-12);}.cls-18{stroke-width:0.12px;}.cls-19{fill:url(#linear-gradient-13);}.cls-20{fill:url(#linear-gradient-14);}.cls-21{stroke-width:0.15px;}.cls-22{fill:url(#linear-gradient-15);}.cls-23{fill:url(#linear-gradient-16);}.cls-24{stroke-width:0.11px;}.cls-25{fill:url(#linear-gradient-17);}.cls-26{fill:url(#linear-gradient-18);}.cls-27{stroke-width:0.09px;}.cls-28{fill:url(#linear-gradient-19);}.cls-29{fill:url(#linear-gradient-20);}.cls-30{stroke-width:0.12px;}.cls-31{fill:url(#linear-gradient-21);}.cls-32{fill:url(#linear-gradient-22);}.cls-33{stroke-width:0.06px;}.cls-34{fill:url(#linear-gradient-23);}.cls-35{fill:url(#linear-gradient-24);}.cls-36{stroke-width:0.05px;}.cls-37{fill:url(#linear-gradient-25);}.cls-38{fill:url(#linear-gradient-26);}.cls-39{stroke-width:0.1px;}.cls-40{fill:url(#linear-gradient-27);}.cls-41{fill:url(#linear-gradient-28);}.cls-42{stroke-width:0.09px;}.cls-43{fill:url(#linear-gradient-29);}.cls-44{fill:url(#linear-gradient-30);}.cls-45{stroke-width:0.1px;}.cls-46{fill:url(#linear-gradient-31);}.cls-47{fill:url(#linear-gradient-32);}.cls-48{stroke-width:0.05px;}.cls-49{fill:url(#linear-gradient-33);}.cls-50{fill:url(#linear-gradient-34);}.cls-51{stroke-width:0.07px;}.cls-52{fill:#771f00;}.cls-53{fill:url(#linear-gradient-35);}.cls-54{fill:url(#linear-gradient-36);}.cls-55{stroke-width:0.13px;}.cls-56{fill:url(#linear-gradient-37);}.cls-57{fill:url(#linear-gradient-38);}.cls-58{stroke-width:0.05px;}.cls-59{fill:url(#linear-gradient-39);}.cls-60{fill:url(#linear-gradient-40);}.cls-61{stroke-width:0.29px;}.cls-62{fill:url(#linear-gradient-41);}.cls-63{fill:url(#linear-gradient-42);}.cls-64{stroke-width:0.18px;}.cls-65{fill:url(#linear-gradient-43);}.cls-66{fill:url(#linear-gradient-44);}.cls-67{stroke-width:0.21px;}.cls-68{fill:url(#linear-gradient-45);}.cls-69{fill:url(#linear-gradient-46);}.cls-70{stroke-width:0.21px;}.cls-71{fill:url(#linear-gradient-47);}.cls-72{fill:url(#linear-gradient-48);}.cls-73{stroke-width:0.19px;}</style><linearGradient id="linear-gradient" x1="-1015.95" y1="436.89" x2="-1007.08" y2="436.89" gradientTransform="matrix(0.54, 0.53, -0.61, 0.62, 1312.36, 369.96)" gradientUnits="userSpaceOnUse"><stop offset="0.15" stop-color="#f6916b"/><stop offset="0.69" stop-color="#f27052"/><stop offset="1" stop-color="#f16248"/></linearGradient><linearGradient id="linear-gradient-2" x1="-1015.95" y1="436.91" x2="-1007.08" y2="436.91" gradientTransform="matrix(0.54, 0.53, -0.61, 0.62, 1312.36, 369.96)" gradientUnits="userSpaceOnUse"><stop offset="0" stop-color="#f16248"/><stop offset="0.15" stop-color="#f37153"/><stop offset="0.42" stop-color="#f48360"/><stop offset="0.69" stop-color="#f68d68"/><stop offset="1" stop-color="#f6916b"/></linearGradient><linearGradient id="linear-gradient-3" x1="-1140.15" y1="1834.24" x2="-1122.31" y2="1834.24" gradientTransform="matrix(0.5, -0.89, 0.91, 0.52, -701.67, -1946.97)" xlink:href="#linear-gradient"/><linearGradient id="linear-gradient-4" x1="-1140.15" y1="1834.26" x2="-1122.31" y2="1834.26" gradientTransform="matrix(0.5, -0.89, 0.91, 0.52, -701.67, -1946.97)" xlink:href="#linear-gradient-2"/><linearGradient id="linear-gradient-5" x1="-1288.41" y1="1875.69" x2="-1270.58" y2="1875.69" gradientTransform="matrix(-0.32, 0.92, 1.19, 0.41, -2326.06, 677.07)" xlink:href="#linear-gradient"/><linearGradient id="linear-gradient-6" x1="-1289.45" y1="1875.46" x2="-1271.61" y2="1875.46" gradientTransform="matrix(-0.32, 0.92, 1.19, 0.41, -2326.06, 677.07)" xlink:href="#linear-gradient-2"/><linearGradient id="linear-gradient-7" x1="555.72" y1="401.31" x2="574" y2="401.31" gradientTransform="matrix(0.96, 0.3, -0.3, 0.97, 176.64, -466.48)" xlink:href="#linear-gradient"/><linearGradient id="linear-gradient-8" x1="555.72" y1="401.33" x2="574" y2="401.33" gradientTransform="matrix(0.96, 0.3, -0.3, 0.97, 176.64, -466.48)" xlink:href="#linear-gradient-2"/><linearGradient id="linear-gradient-9" x1="2066.22" y1="4089.21" x2="2084.05" y2="4089.21" gradientTransform="matrix(0.14, 0.33, 0.32, -0.14, -1202.27, 187.56)" xlink:href="#linear-gradient"/><linearGradient id="linear-gradient-10" x1="2066.22" y1="4089.23" x2="2084.05" y2="4089.23" gradientTransform="matrix(0.14, 0.33, 0.32, -0.14, -1202.27, 187.56)" xlink:href="#linear-gradient-2"/><linearGradient id="linear-gradient-11" x1="373.3" y1="-159.43" x2="386.55" y2="-159.43" gradientTransform="matrix(0.99, 0.17, 0.11, -0.63, 47.96, -27.81)" xlink:href="#linear-gradient"/><linearGradient id="linear-gradient-12" x1="373.29" y1="-159.41" x2="386.55" y2="-159.41" gradientTransform="matrix(0.99, 0.17, 0.11, -0.63, 47.96, -27.81)" xlink:href="#linear-gradient-2"/><linearGradient id="linear-gradient-13" x1="-999.01" y1="-1396.1" x2="-981.17" y2="-1396.1" gradientTransform="matrix(0.36, -0.52, -0.81, -0.56, -479.21, -1271.94)" xlink:href="#linear-gradient"/><linearGradient id="linear-gradient-14" x1="-999.01" y1="-1396.08" x2="-981.17" y2="-1396.08" gradientTransform="matrix(0.36, -0.52, -0.81, -0.56, -479.21, -1271.94)" xlink:href="#linear-gradient-2"/><linearGradient id="linear-gradient-15" x1="466.36" y1="566.74" x2="479.62" y2="566.74" gradientTransform="matrix(0.88, 0.48, 0.27, -0.5, -93.08, 333.58)" xlink:href="#linear-gradient"/><linearGradient id="linear-gradient-16" x1="466.32" y1="566.8" x2="479.58" y2="566.8" gradientTransform="matrix(0.88, 0.48, 0.27, -0.5, -93.08, 333.58)" xlink:href="#linear-gradient-2"/><linearGradient id="linear-gradient-17" x1="1120.85" y1="-569.4" x2="1134.11" y2="-569.4" gradientTransform="matrix(0.64, 0.35, -0.21, 0.38, -352.26, 116.12)" xlink:href="#linear-gradient"/><linearGradient id="linear-gradient-18" x1="1120.85" y1="-569.38" x2="1134.11" y2="-569.38" gradientTransform="matrix(0.64, 0.35, -0.21, 0.38, -352.26, 116.12)" xlink:href="#linear-gradient-2"/><linearGradient id="linear-gradient-19" x1="3509.76" y1="1300.57" x2="3535.45" y2="1300.57" gradientTransform="matrix(0.4, 0.03, -0.03, 0.41, -795.42, -273.75)" xlink:href="#linear-gradient"/><linearGradient id="linear-gradient-20" x1="3509.75" y1="1300.6" x2="3535.45" y2="1300.6" gradientTransform="matrix(0.4, 0.03, -0.03, 0.41, -795.42, -273.75)" xlink:href="#linear-gradient-2"/><linearGradient id="linear-gradient-21" x1="4140.39" y1="-3767.05" x2="4166.08" y2="-3767.05" gradientTransform="matrix(0.2, -0.07, -0.07, -0.22, -584.34, -481.55)" xlink:href="#linear-gradient"/><linearGradient id="linear-gradient-22" x1="4140.38" y1="-3767.01" x2="4166.08" y2="-3767.01" gradientTransform="matrix(0.2, -0.07, -0.07, -0.22, -584.34, -481.55)" xlink:href="#linear-gradient-2"/><linearGradient id="linear-gradient-23" x1="3905.17" y1="-4011.03" x2="3923" y2="-4011.03" gradientTransform="matrix(0.24, -0.08, -0.09, -0.24, -865.64, -614.42)" xlink:href="#linear-gradient"/><linearGradient id="linear-gradient-24" x1="3905.17" y1="-4011.01" x2="3923" y2="-4011.01" gradientTransform="matrix(0.24, -0.08, -0.09, -0.24, -865.64, -614.42)" xlink:href="#linear-gradient-2"/><linearGradient id="linear-gradient-25" x1="-1829.43" y1="1789.77" x2="-1820.98" y2="1789.77" gradientTransform="matrix(-0.41, 0.92, 0.99, 0.44, -2234.6, 1111.34)" xlink:href="#linear-gradient"/><linearGradient id="linear-gradient-26" x1="-1831.68" y1="1788.93" x2="-1823.13" y2="1788.93" gradientTransform="matrix(-0.41, 0.92, 0.99, 0.44, -2234.6, 1111.34)" xlink:href="#linear-gradient-2"/><linearGradient id="linear-gradient-27" x1="248.49" y1="770.41" x2="256.95" y2="770.41" gradientTransform="matrix(0.64, 0.55, 0.76, -0.89, -425.28, 788.3)" xlink:href="#linear-gradient"/><linearGradient id="linear-gradient-28" x1="248.49" y1="770.44" x2="256.95" y2="770.44" gradientTransform="matrix(0.64, 0.55, 0.76, -0.89, -425.28, 788.3)" xlink:href="#linear-gradient-2"/><linearGradient id="linear-gradient-29" x1="-1860.82" y1="1830.13" x2="-1852.36" y2="1830.13" gradientTransform="matrix(-0.42, 0.96, 1.02, 0.45, -2269, 1165.08)" xlink:href="#linear-gradient"/><linearGradient id="linear-gradient-30" x1="-1862.55" y1="1829.5" x2="-1854" y2="1829.5" gradientTransform="matrix(-0.42, 0.96, 1.02, 0.45, -2269, 1165.08)" xlink:href="#linear-gradient-2"/><linearGradient id="linear-gradient-31" x1="-1120.22" y1="1554.81" x2="-1116.01" y2="1554.81" gradientTransform="matrix(0.15, 1.06, 1.19, -0.17, -1240.65, 1552.73)" xlink:href="#linear-gradient"/><linearGradient id="linear-gradient-32" x1="-1120.27" y1="1554.81" x2="-1116.01" y2="1554.81" gradientTransform="matrix(0.15, 1.06, 1.19, -0.17, -1240.65, 1552.73)" xlink:href="#linear-gradient-2"/><linearGradient id="linear-gradient-33" x1="956.28" y1="3863.94" x2="969.54" y2="3863.94" gradientTransform="matrix(0.1, 0.44, 0.4, -0.09, -1065.88, 40.2)" xlink:href="#linear-gradient"/><linearGradient id="linear-gradient-34" x1="956.28" y1="3863.96" x2="969.54" y2="3863.96" gradientTransform="matrix(0.1, 0.44, 0.4, -0.09, -1065.88, 40.2)" xlink:href="#linear-gradient-2"/><linearGradient id="linear-gradient-35" x1="518.28" y1="129.49" x2="531.53" y2="129.49" gradientTransform="matrix(0.91, 0.33, -0.24, 0.65, 18.95, -33.31)" xlink:href="#linear-gradient"/><linearGradient id="linear-gradient-36" x1="518.27" y1="129.51" x2="531.53" y2="129.51" gradientTransform="matrix(0.91, 0.33, -0.24, 0.65, 18.95, -33.31)" xlink:href="#linear-gradient-2"/><linearGradient id="linear-gradient-37" x1="678.11" y1="2049.02" x2="686.57" y2="2049.02" gradientTransform="matrix(0.32, 0.47, 0.49, -0.34, -785.64, 604.96)" xlink:href="#linear-gradient"/><linearGradient id="linear-gradient-38" x1="678.11" y1="2049.03" x2="686.57" y2="2049.03" gradientTransform="matrix(0.32, 0.47, 0.49, -0.34, -785.64, 604.96)" xlink:href="#linear-gradient-2"/><linearGradient id="linear-gradient-39" x1="-2070.75" y1="-912.99" x2="-2072.27" y2="-922.62" gradientTransform="translate(154.71 2546.07) rotate(76.7)" xlink:href="#linear-gradient"/><linearGradient id="linear-gradient-40" x1="-2068.54" y1="-914.55" x2="-2065.12" y2="-905.42" gradientTransform="translate(154.71 2546.07) rotate(76.7)" xlink:href="#linear-gradient"/><linearGradient id="linear-gradient-41" x1="-4550.46" y1="-138.94" x2="-4529.06" y2="-138.94" gradientTransform="matrix(-0.44, 0.53, -0.6, -0.51, -1733.64, 2590.21)" xlink:href="#linear-gradient"/><linearGradient id="linear-gradient-42" x1="-4550.47" y1="-138.91" x2="-4529.06" y2="-138.91" gradientTransform="matrix(-0.44, 0.53, -0.6, -0.51, -1733.64, 2590.21)" xlink:href="#linear-gradient-2"/><linearGradient id="linear-gradient-43" x1="-2143.79" y1="3120.37" x2="-2145.3" y2="3110.74" gradientTransform="matrix(0.18, 0.77, 0.65, -0.15, -1082.53, 2371.4)" xlink:href="#linear-gradient"/><linearGradient id="linear-gradient-44" x1="-2141.57" y1="3118.81" x2="-2138.16" y2="3127.94" gradientTransform="matrix(0.18, 0.77, 0.65, -0.15, -1082.53, 2371.4)" xlink:href="#linear-gradient"/><linearGradient id="linear-gradient-45" x1="-643" y1="-145.65" x2="-621.59" y2="-145.65" gradientTransform="matrix(0.63, 0.43, -0.55, 0.8, 688.52, 709.67)" xlink:href="#linear-gradient"/><linearGradient id="linear-gradient-46" x1="-643.01" y1="-145.62" x2="-621.59" y2="-145.62" gradientTransform="matrix(0.63, 0.43, -0.55, 0.8, 688.52, 709.67)" xlink:href="#linear-gradient-2"/><linearGradient id="linear-gradient-47" x1="-980.83" y1="-1386.5" x2="-958.02" y2="-1386.5" gradientTransform="matrix(0.42, 0.59, -0.62, 0.44, 12.93, 1309.3)" xlink:href="#linear-gradient"/><linearGradient id="linear-gradient-48" x1="-980.84" y1="-1386.47" x2="-958.02" y2="-1386.47" gradientTransform="matrix(0.42, 0.59, -0.62, 0.44, 12.93, 1309.3)" xlink:href="#linear-gradient-2"/></defs><title>Asset 3</title><g id="Layer_2" data-name="Layer 2"><g id="draft1"><path class="cls-1" d="M501.25,99.72c-3.76-3.46-9.15-.28-9.27-.21C495.67,101.14,501.25,99.72,501.25,99.72Z"/><path class="cls-2" d="M492,99.51h0s2.87,3.72,9.27.21C501.25,99.72,495.67,101.14,492,99.51Z"/><path class="cls-3" d="M490.64,98.7c3.45,2.84,10.61,1,10.61,1"/><path class="cls-4" d="M403.17,0c-6.48,12.17,3,22.61,3.25,22.84C408.69,12.48,403.17,0,403.17,0Z"/><path class="cls-5" d="M406.42,22.88h0S413.88,12.66,403.17,0C403.17,0,408.69,12.48,406.42,22.88Z"/><path class="cls-6" d="M405.08,26.88C410.26,16,403.17,0,403.17,0"/><path class="cls-7" d="M304.05,286.67c4.71-12.2,21.29-10.83,21.64-10.8C319,283.73,304.05,286.67,304.05,286.67Z"/><path class="cls-8" d="M325.71,274.82h0s-2.29,11.82-21.66,10.8C304.07,285.62,319,284.82,325.71,274.82Z"/><path class="cls-9" d="M327.9,272.48c-4.71,10.43-23.84,14.19-23.84,14.19"/><path class="cls-10" d="M606.06,88.62c-13.3-3.8-21.35,7.16-21.52,7.39C595.18,96.18,606.06,88.62,606.06,88.62Z"/><path class="cls-11" d="M584.54,96h0s11.63,5.08,21.53-7.4C606.06,88.62,595.18,96.18,584.54,96Z"/><path class="cls-12" d="M580.34,95.51c11.76,2.82,25.71-6.88,25.71-6.88"/><path class="cls-13" d="M420.81,288.14c-1.83-4.46,1.69-7.69,1.76-7.76C423,284.07,420.81,288.14,420.81,288.14Z"/><path class="cls-14" d="M422.58,280.38h0s2.22,3.83-1.77,7.76C420.81,288.14,423,284.07,422.58,280.38Z"/><path class="cls-15" d="M422.24,278.95c1.43,4-1.43,9.19-1.43,9.19"/><path class="cls-16" d="M414.59,142c-9.92-1.87-12-9-12-9.19C409.66,135.57,414.59,142,414.59,142Z"/><path class="cls-17" d="M402.59,132.76h0s9.19.84,12,9.2C414.59,142,409.66,135.57,402.59,132.76Z"/><path class="cls-18" d="M399.66,131.86c8.6,1.9,14.92,10.1,14.92,10.1"/><path class="cls-19" d="M309.09,27.49C304,34.34,292,29.41,291.76,29.3,297.77,25.79,309.09,27.49,309.09,27.49Z"/><path class="cls-20" d="M291.76,29.3h0s3.3-7.18,17.34-1.8C309.09,27.49,297.77,25.79,291.76,29.3Z"/><path class="cls-21" d="M289.68,31c4.89-5.68,19.41-3.5,19.41-3.5"/><path class="cls-22" d="M481.77,285.26C473,280.32,473,273.59,473,273.45A33.56,33.56,0,0,1,481.77,285.26Z"/><path class="cls-23" d="M473,273.41h0s8.36,3.82,8.75,11.82A22.42,22.42,0,0,0,473,273.41Z"/><path class="cls-24" d="M470.54,271.7c7.53,4.52,11.23,13.56,11.23,13.56"/><path class="cls-25" d="M490.44,290.7c-6.44-3.36-10.64-.48-10.73-.42A23.74,23.74,0,0,0,490.44,290.7Z"/><path class="cls-26" d="M479.71,290.28h0s5.59,3.59,10.74.42A23.74,23.74,0,0,1,479.71,290.28Z"/><path class="cls-27" d="M477.66,289.48c5.71,2.77,12.78,1.22,12.78,1.22"/><path class="cls-28" d="M565.66,355.07c-7.69-.32-10.72,7.82-10.78,8C560.68,361.52,565.66,355.07,565.66,355.07Z"/><path class="cls-29" d="M554.88,363.06h0s6.93,1.39,10.78-8C565.66,355.07,560.68,361.52,554.88,363.06Z"/><path class="cls-30" d="M552.54,363.4c6.73-.05,13.12-8.33,13.12-8.33"/><path class="cls-31" d="M517.39,71.29c-3.85,1.18-6.58-2.86-6.64-3C513.92,68.43,517.39,71.29,517.39,71.29Z"/><path class="cls-32" d="M510.75,68.34h0s3.31-1.66,6.64,3C517.39,71.29,513.92,68.43,510.75,68.34Z"/><path class="cls-33" d="M509.51,68.46c3.42-.85,7.88,2.83,7.88,2.83"/><path class="cls-34" d="M413.43,35.21a5.08,5.08,0,0,1-5.4-1.77A10.73,10.73,0,0,1,413.43,35.21Z"/><path class="cls-35" d="M408,33.44h0s2.8-1.36,5.4,1.77A10.73,10.73,0,0,0,408,33.44Z"/><path class="cls-36" d="M407,33.6c2.86-.79,6.43,1.61,6.43,1.61"/><path class="cls-37" d="M278.36,214.29c2.76-5.81,9.6-5,9.74-5C284.77,213,278.36,214.29,278.36,214.29Z"/><path class="cls-38" d="M288.16,206.82h0s-1.73,5.74-9.76,5.11C278.4,211.93,284.83,210.82,288.16,206.82Z"/><path class="cls-39" d="M289.24,207.66c-2.82,4.8-11,6.51-10.88,6.63"/><path class="cls-40" d="M322.92,246.28c-4-3.65-.69-10.16-.62-10.3C324.25,239.83,322.92,246.28,322.92,246.28Z"/><path class="cls-41" d="M322.3,236l.17.11s4.07,2.5.45,10.19C322.92,246.28,324,240.33,322.3,236Z"/><path class="cls-42" d="M321.34,234.61c3.08,3.53,1.44,11.77,1.58,11.68"/><path class="cls-43" d="M380.33,219c2.86-6,9.91-5.23,10.06-5.22C387,217.63,380.33,219,380.33,219Z"/><path class="cls-44" d="M390.45,211.82h0s-1.8,6-10.08,5.31A10.86,10.86,0,0,0,390.45,211.82Z"/><path class="cls-45" d="M391.58,212.1c-2.91,5-11.36,6.77-11.24,6.88"/><path class="cls-46" d="M433.6,102.31c-.39-3.4,3-5,3.12-5C436.24,99.91,433.6,102.31,433.6,102.31Z"/><path class="cls-47" d="M436.7,97.25h0s.85,3.07-3.1,5.07C433.6,102.31,436.16,99.76,436.7,97.25Z"/><path class="cls-48" d="M436.79,96.24c.07,3-3.27,6.05-3.19,6.07"/><path class="cls-49" d="M567.07,107.29c-.92-4.43,2.91-6.82,3-6.87C569.85,103.9,567.07,107.29,567.07,107.29Z"/><path class="cls-50" d="M570.06,100.42h0s1.39,3.91-3,6.87C567.07,107.29,569.85,103.9,570.06,100.42Z"/><path class="cls-51" d="M570,99c.64,3.91-2.93,8.25-2.93,8.25"/><path class="cls-52" d="M545.18,363.31c-8.74.08-14.83-5.85-19.29-13.09-1.11-1.8-2.52-3.44-3.45-5.32-7.1-14.29-19.06-21.56-34.45-23.29-10.06-1.13-18.11-5.5-25.92-11.74-7-5.59-15.32-9.49-22.87-14.43-4.25-2.78-9.32-5.41-11.83-9.46s-4.24-10.34-3.18-14.92c2.68-11.62,3.1-17.19,6.86-28.56.46-1.39,1.74-9.22,2.32-10.56.86-.3,10.86,10.25,11.54,13.71s.32,17,3.8,22.17S478,289.74,478,289.74c-27.17-22.88-24.56-27.23-24.56-27.23l17.13,9.19s-15-13.17-17.69-16.51a13.31,13.31,0,0,1-2.69-9.54c.2-2.26-3.71-9.54-8.05-13.67-4.69-4.46-8.27-6.65-10.75-10.2s-2.74-2.4-5-9.81c-.72-2.37-1.76-5.92-3-9.85,3.53,1.28,7.32,2.86,8.83,4.18,2.11,1.84,10,14.57,10,14.57,1.27-.47-3.89-11-3.89-11a47.28,47.28,0,0,1,6.13,8c.58,1.29,4,4.59,7.07,6.61a17.23,17.23,0,0,0,6.73,2.42c-1.58-.48-6.34-3.52-8.87-5.85s-3.9-7.3-5.77-10.06-7.28-7.35-12-11.45c-1.59-1.38-6-3.69-11-6.13-2-5.76-4.06-11.2-5.89-14.13-4.07-6.5-24.63-30.31-42.54-40.34-.49-.27,12.93-6.26,17-6.75a91.81,91.81,0,0,1,10.58-.29s-7.17-2.9-17.87-.38-12,3.17-17,3.71-18.78,7.73-37,4S307,134.91,296.31,133c-7.39-1.33-14.9-2-22.31-3.27-3.45-.59-6.78-1.91-10.17-2.9.14-1,4.42-6.27,11.38-18.1,6-7.9,13.19-14,22.09-16.66,12.9-3.92,23.16-11.52,29.7-22.49,9.88-16.57,24.22-17,40.09-14.05a81.88,81.88,0,0,1,17.33,5.25c15.67,6.72,32,23.51,48.59,30,1.95,1.83,3.68,3.88,3.78,5.44a25.87,25.87,0,0,0,0-4.15,30.18,30.18,0,0,0,10.85,1.28c4.15-.32,15.78-.83,24.38-1.21.34,0,13.19,3.57,13.19,3.57l5.41,3-4.2-4.35s-5.33-2.65-4.71-2.69c15.55-1,19.38-8.5,35-8.64,11.09-.1,22.26,4.27,32.18,8.08a95.56,95.56,0,0,0,17.35,5c1.6,1,4,2.55,3.83,3.18a7.49,7.49,0,0,0-.21-2.72c3.93.37,7.66.16,10.53-1.07-19.43-2.65-46.62-22.7-66.18-21.58a25.61,25.61,0,0,0-13.25,4.5,45.82,45.82,0,0,1,2.22-4.32l6.38-5.63s-5.08,1.82-6.95,2.68S494,82.39,493.09,82.75a25.39,25.39,0,0,1-6.76,1.6c-7.07.73-31.77.19-34.63.37-22.8,1.45-45-25.57-66.22-36.8,9-.54,13.83-4.56,16.61-10.36h0c1-1.26,5.54-3.95,5.54-3.95l-3.63,2h0c1-2.48,1.14-5.6,1.62-8.73,0,0-6.68,15.72-25.23,15.42-12.5-.2-25.28-1.13-37.78-.31-10,.65-18,5.66-24,14.38-6.57,9.54-15,17.23-27.05,20-5.16,1.17-9.91,4.22-16.24,4.89,3.91-3.83,13.62-33.91,14.47-45.2.12-1.66,0-3.34-.06-5-.78-.22-1.74,7.46-3.7,11.68,0,0-8.79,24.8-15.46,31.93-4.64,5-8.13,12.5-9.79,19.47-5.68,23.8-33.63,29.53-43.31,24.57-16.94-8.68-44.1-21.35-74.51-37.07-19-9.84-46.82-31.86-73.6-30.89C49.54,51.38,17,48.46,0,44.94v66.21S49.11,95.48,60.63,99.93c20.72,8,36,14.2,48.15,18.58,22.08,8,31.07,22.28,38.5,29.22,13.35,12.47,19.11,17.86,33.13,22.09,18.62,5.62,17.77,8.71,27.91,9.8a121.32,121.32,0,0,0,26.34,0c17.72.95,38.85,3.76,49.69,16.34,2,2.36,3.83,4.51,5.42,6.47.31,1.67.43,3.86-.53,5.27a8.69,8.69,0,0,0,2.15-3.22c5.7,7.27,8.23,11.73,9.19,14.95,1.61,5.37,3.76,13.11,5.8,20.23S318,249.79,322,254.91s6.69,5.6,5.85,17.57c3.69-5.84,0-19.87-6.31-24.78-5.37-4.2-7.31-8.45-9.41-17.72a11.57,11.57,0,0,1,4.29,1.09,39.63,39.63,0,0,1,4.87,3.53s-1.39-3.59-4-5a41.07,41.07,0,0,0-5.81-2.42q-.24-1.13-.48-2.35c-2.64-13-14.92-32-18.31-36.24-11-13.54-25.75-19.46-42.28-22.19-3.87-.64-7.83-.81-11.66-1.63-10.89-2.31-22-4.22-30.28-14,14.13,3.34,48.67,7.89,62.48,12.39s28.48,1.14,40.6,2.14,23.73-2,37.71-1.61c16,.47,33.07,10.52,38.07,18.35,1.53,2.4,4.61,7.54,7.95,14.21a25.15,25.15,0,0,1-3.78,15.9s4-3,8.08-6.67c6.12,14.25,11.3,32,7.63,45.86,0,0-1.76,43.58,5.53,48.81,9.21,6.61,19.22,9.49,29,15.33,3.59,2.16,10.5,5.67,14.11,7.3,14.08,6.36,18.15,4.62,30.39,7.21,5.83,1.23,11.5,3.28,17.58,5.06l3.71,2.84s8.06,10.68,10.94,15.61c6.84,11.69,20.59,16.32,34,10Z"/><path class="cls-53" d="M475.48,224.59c-9.21-3.15-14.61,2.6-14.73,2.72C468.09,228.18,475.48,224.59,475.48,224.59Z"/><path class="cls-54" d="M460.76,227.31h0s8.07,3.77,14.73-2.73C475.48,224.59,468.09,228.18,460.76,227.31Z"/><path class="cls-55" d="M457.86,226.72c8.13,2.48,17.62-2.13,17.62-2.13"/><path class="cls-56" d="M442.22,228c-2-3,.36-6,.41-6.1C443.44,224.56,442.22,228,442.22,228Z"/><path class="cls-57" d="M442.63,221.89s2.19,2.48-.41,6.1C442.22,228,443.26,224.33,442.63,221.89Z"/><path class="cls-58" d="M442.19,220.87c1.47,2.75-.05,7.13,0,7.11"/><path class="cls-59" d="M575.52,316.75S564,313.57,557.21,327h0A29.76,29.76,0,0,0,575.52,316.75Z"/><path class="cls-60" d="M575.52,316.75A29.76,29.76,0,0,1,557.24,327C568.92,332.58,575.52,316.75,575.52,316.75Z"/><path class="cls-61" d="M575.52,316.75a30,30,0,0,1-23.46,10.6"/><path class="cls-62" d="M368.79,265c6.91-8.79-1-20-1.14-20.28C364.73,253,368.79,265,368.79,265Z"/><path class="cls-63" d="M367.65,244.7h0S360,251.58,368.79,265C368.79,265,364.73,253,367.65,244.7Z"/><path class="cls-64" d="M369.2,241.62c-5.62,8-.41,23.37-.41,23.37"/><path class="cls-65" d="M543.69,244.94s5.72-6,14.11,1.32h0A17.93,17.93,0,0,1,543.69,244.94Z"/><path class="cls-66" d="M543.69,244.94a17.93,17.93,0,0,0,14.1,1.33C552.74,254.08,543.69,244.94,543.69,244.94Z"/><path class="cls-67" d="M543.69,244.94a17.75,17.75,0,0,0,17.27-.09"/><path class="cls-68" d="M384.8,319.3c-10.35-6.57-22.83,4.74-23.1,5C371.32,326.23,384.8,319.3,384.8,319.3Z"/><path class="cls-69" d="M361.7,324.28h0s8.21,7.77,23.11-5C384.8,319.3,371.32,326.23,361.7,324.28Z"/><path class="cls-70" d="M358.11,323c9.4,5.19,26.69-3.71,26.69-3.71"/><path class="cls-71" d="M471.77,128.58c-7.52-10-19.94-6.13-20.21-6C459.29,128.4,471.77,128.58,471.77,128.58Z"/><path class="cls-72" d="M451.57,122.53h0s5.53,10.1,20.22,6C471.77,128.58,459.29,128.4,451.57,122.53Z"/><path class="cls-73" d="M448.78,119.88c7,8.47,23,8.69,23,8.69"/></g></g></svg>