<svg viewBox="0 0 621 221" xmlns="http://www.w3.org/2000/svg" fill-rule="evenodd" clip-rule="evenodd" stroke-miterlimit="10"><clipPath id="a"><path d="M101.086 197.062l-.01.03c5.941 11.427 19.526 12.944 19.526 12.944s1.964-13.026-17.332-13.027c-.7 0-1.426.017-2.184.053z"/></clipPath><g clip-path="url(#a)"><path d="M113.347 188.182l16.119 15.434-15.696 11.369-16.119-15.435 15.696-11.368z" fill="url(#b)" fill-rule="nonzero"/></g><clipPath id="c"><path d="M120.815 209.99s-14.151-1.396-19.525-12.944c-6.18 15.79 19.525 12.944 19.525 12.944z"/></clipPath><g clip-path="url(#c)"><path d="M109.806 220.437L88.34 209.334l12.95-12.288 21.466 11.102-12.95 12.289z" fill="url(#d)" fill-rule="nonzero"/></g><path d="M120.815 209.99s-18.222-1.788-21.168-18.173" fill="none" stroke="#f16248" stroke-width=".39"/><clipPath id="e"><path d="M527.17 193.822s1.258-16.484-10.989-34.146l-.039-.018c-6.082 22.913 11.028 34.164 11.028 34.164z"/></clipPath><g clip-path="url(#e)"><path d="M502.106 164.845l14.718 32.8 17.77-6.566-14.718-32.801-17.77 6.567z" fill="url(#f)" fill-rule="nonzero"/></g><clipPath id="g"><path d="M527.067 194.013s9.18-25.639-10.989-34.146c12.52 17.155 10.989 34.146 10.989 34.146z"/></clipPath><g clip-path="url(#g)"><path d="M541.971 191.993l-8.361-34.502-17.532 2.376 8.361 34.502 17.532-2.376z" fill="url(#h)" fill-rule="nonzero"/></g><path d="M527.067 194.013s1.982-21.871-16.836-41.039" fill="none" stroke="#f16248" stroke-width=".48"/><clipPath id="i"><path d="M507.371 32.098c.541-.036 25.952-1.827 32.882-25.422 0 0-22.748 9.254-32.882 25.422z"/></clipPath><g clip-path="url(#i)"><path d="M531.899 38.148l8.354-31.472-24.528-6.05-8.354 31.472 24.528 6.05z" fill="url(#j)" fill-rule="nonzero"/></g><clipPath id="k"><path d="M507.345 32.1l.026-.002c10.134-16.168 32.882-25.422 32.882-25.422-29.672 3.15-32.908 25.424-32.908 25.424z"/></clipPath><g clip-path="url(#k)"><path d="M531.897 38.156l8.356-31.48L513.189 0l-8.356 31.48 27.064 6.676z" fill="url(#l)" fill-rule="nonzero"/></g><path d="M504.077 38.889c6.979-20.346 36.176-32.213 36.176-32.213" fill="none" stroke="#f16248" stroke-width=".36"/><path d="M582.303 24.923c-18.125 11.268-35.649 22.684-53.712 33.241-17.577 10.272-35.708 19.665-56.126 33.425l17.964 5.402 25.757 62.532-1.848 1.234c-7.248-10.671-18.059-20.509-20.999-32.188-6.047-24.023-22.688-30.249-45.897-31.49l-12.713 6.777c-55.728-16.155-89.64 20.115-126.188 49.869-5.479 4.46-9.581 10.492-14.465 15.96-3.444 11.43 3.307 26.07-12.368 36.535l2.294-25.047c-11.314 6.348-20.347 11.874-29.798 16.627-22.621 11.375-44.999 13.276-68.093-.119-16.316-9.464-34.144-13.628-53.88-10.074-10.933 1.969-22.562.349-34.626.347l4.372 9.847c-5.684-2.605-9.269-3.989-12.592-5.815-19.587-10.766-26.632-13.45-49.737-17.106-20.298-3.213-26.855-.604-39.648.049v-55.231c22.913 4.419 57.404 16.686 82.323 30.056 13.736 7.715 31.008 12.071 49.296 10.017 22.778-2.559 44.154 1.956 62.415 13.922 23.339 15.294 44.106 10.827 64.649-3.033 10.955-7.391 21.441-15.82 30.652-25.146 25.28-25.597 56.061-42.911 89.926-54.618 11.83-4.09 26.049-1.832 39.184-2.297 4.495-.16 9.01.218 13.32.344l9.641-14.073 6.857 9.105c17.918-2.75 31.658-10.73 40.643-26.603 5.13-9.063 12.125-17.147 18.28-25.671.48.301.959.603 1.437.906l-19.26 31.944 3.753 3.468c30.129-14.241 61.061-27.2 89.243-52.842 0 0 23.018 5.924 37.7 2.105l.351 4.54c-5.57 2.681-38.107 3.101-38.107 3.101" fill="#771f00" fill-rule="nonzero"/><path d="M388.235 83.859c-.281 1.008-.553 2.179-.935 3.312-.816 2.423 1.783 2.667 2.691 3.942.308.433 2.681.114 3.391-.588 2.393-2.367 3.635-5.378 3.67-8.975l-8.817 2.309m25.747.554c-.517 2.305-1.842 2.188-3.324.795-2.029-1.909-3.925-3.961-5.931-5.896-.715-.69-1.586-1.217-2.493-1.899-3.532 3.523-4.336 7.972-5.481 12.226l2.575 2.485c-1.47.118-3.401-.316-4.234.449-2.627 2.411-3.86 5.608-3.5 9.127-1.84-1.605-1.926-5.396.277-9.535l-3.901 1.339.825-2.38c-4.228-1.19-7.972 4.298-6.758 9.795-2.017-2.084-2.119-5.729-.006-9.848l-3.632 1.148-.564-.595c4.037-1.599 8.522-2.767 8.803-7.973-13.122.014-24.815-14.98-23.131-25.443l-1.314.163c-.055-.303-.176-.579-.14-.832.36-2.559.774-5.111 1.12-7.671.765-5.665 4.366-9.103 9.2-11.403 2.547-1.213 5.19-2.913 8.184-1.877 2.031.703 3.775 2.417 5.821 2.842 1.887.392 4.006-.332 6.023-.564l.399.815c-1.153.934-2.244 1.96-3.471 2.784-3.784 2.542-3.678 7.677.086 10.13 7.268 4.737 13.321 10.629 17.259 18.533.837 1.68 2.208 3.178 3.594 4.482 2.299 2.163 4.867 4.036 7.207 6.157 1.259 1.142 2.281 2.547 3.41 3.833l-.457.752-6.446-1.939" fill="#00a99d" fill-rule="nonzero"/><defs><linearGradient id="b" x2="1" gradientUnits="userSpaceOnUse" gradientTransform="matrix(7.54586 7.22545 -13.0926 9.48289 112.563 203.176)"><stop offset="0" stop-color="#f6916b"/><stop offset="1" stop-color="#f16248"/></linearGradient><linearGradient id="d" x2="1" gradientUnits="userSpaceOnUse" gradientTransform="matrix(-10.0151 -5.17975 11.3159 -10.7377 110.422 206.392)"><stop offset="0" stop-color="#f6916b"/><stop offset="1" stop-color="#f16248"/></linearGradient><linearGradient id="f" x2="1" gradientUnits="userSpaceOnUse" gradientTransform="matrix(6.8901 15.355 14.2278 -5.25777 520.825 178.278)"><stop offset="0" stop-color="#f6916b"/><stop offset="1" stop-color="#f16248"/></linearGradient><linearGradient id="h" x2="1" gradientUnits="userSpaceOnUse" gradientTransform="matrix(-3.9009 -16.0968 -15.3193 2.0759 525.132 179.035)"><stop offset="0" stop-color="#f6916b"/><stop offset="1" stop-color="#f16248"/></linearGradient><linearGradient id="j" x2="1" gradientUnits="userSpaceOnUse" gradientTransform="matrix(8.35384 -31.4713 -32.6468 -8.05306 519.635 35.123)"><stop offset="0" stop-color="#f6916b"/><stop offset="1" stop-color="#f16248"/></linearGradient><linearGradient id="l" x2="1" gradientUnits="userSpaceOnUse" gradientTransform="matrix(8.35585 -31.4789 -32.6546 -8.055 519.591 35.12)"><stop offset="0" stop-color="#f16248"/><stop offset="1" stop-color="#f6916b"/></linearGradient></defs></svg>