<svg viewBox="0 0 821 648" xmlns="http://www.w3.org/2000/svg" preserveAspectRatio="xMinYMin" fill-rule="evenodd" clip-rule="evenodd" stroke-miterlimit="10"><clipPath id="a"><path d="M646.869 463.718l.035.016c18.493-2.871 28.067-15.712 28.067-15.712s-1.826-.506-4.65-.507c-5.951 0-16.338 2.246-23.452 16.203z"/></clipPath><g clip-path="url(#a)"><path d="M642.997 454.259l29.571-12.106 5.531 13.511-29.572 12.105-5.53-13.51z" fill="url(#b)" fill-rule="nonzero"/></g><clipPath id="c"><path d="M646.904 463.734c17.93 8.595 28.067-15.712 28.067-15.712s-9.574 12.841-28.067 15.712z"/></clipPath><g clip-path="url(#c)"><path d="M683.07 460.114l-26.639 17.844-9.527-14.224 26.639-17.843 9.527 14.223z" fill="url(#d)" fill-rule="nonzero"/></g><path d="M674.971 448.022s-12.318 16.537-36.01 16.279" fill="none" stroke="#f16248" stroke-width=".45"/><clipPath id="e"><path d="M432.822 520.531c10.606-13.492-1.491-30.772-1.75-31.139-4.475 12.764 1.75 31.139 1.75 31.139z"/></clipPath><g clip-path="url(#e)"><path d="M447.431 503.116l-14.609 17.415-16.36-13.724 14.61-17.415 16.359 13.724z" fill="url(#f)" fill-rule="nonzero"/></g><clipPath id="g"><path d="M432.822 520.531s-6.225-18.375-1.75-31.139l-.012-.017s-11.727 10.576 1.762 31.156z"/></clipPath><g clip-path="url(#g)"><path d="M447.435 503.112l-14.613 17.419-18.051-15.142 14.613-17.419 18.051 15.142z" fill="url(#h)" fill-rule="nonzero"/></g><path d="M433.452 484.66c-8.626 12.29-.63 35.871-.63 35.871" fill="none" stroke="#f16248" stroke-width=".28"/><clipPath id="i"><path d="M633.776 492.834s9.826 6.033 21.653 2.048l.016-.022c-4.884-4.263-9.176-5.587-12.625-5.587-5.656.001-9.044 3.561-9.044 3.561z"/></clipPath><g clip-path="url(#i)"><path d="M654.8 488.438l-21.364 1.013.99 9.852 21.363-1.014-.989-9.851z" fill="url(#j)" fill-rule="nonzero"/></g><clipPath id="k"><path d="M655.429 494.882c-11.827 3.985-21.653-2.048-21.653-2.048s13.896 14.023 21.653 2.048z"/></clipPath><g clip-path="url(#k)"><path d="M632.949 504.096l21.507 4.034.973-13.248-21.507-4.034-.973 13.248z" fill="url(#l)" fill-rule="nonzero"/></g><path d="M633.776 492.834s12.647 7.773 26.516-.137" fill="none" stroke="#f16248" stroke-width=".32"/><clipPath id="m"><path d="M478.686 330.66c10.809 8.284 28.211 8.645 28.211 8.645-5.973-7.978-14.087-9.737-20.08-9.737-4.614 0-7.971 1.042-8.131 1.092z"/></clipPath><g clip-path="url(#m)"><path d="M493.383 320.242l13.514 19.063-14.698 10.419-13.513-19.064 14.697-10.418z" fill="url(#n)" fill-rule="nonzero"/></g><clipPath id="o"><path d="M478.669 330.666s7.791 14.184 28.228 8.639c0 0-17.402-.361-28.211-8.645l-.017.006z"/></clipPath><g clip-path="url(#o)"><path d="M493.38 320.238l13.517 19.067-16.218 11.497-13.517-19.068 16.218-11.496z" fill="url(#p)" fill-rule="nonzero"/></g><path d="M474.782 326.932c9.781 11.916 32.115 12.373 32.115 12.373" fill="none" stroke="#f16248" stroke-width=".26"/><clipPath id="q"><path d="M320.62 473.397c14.773 2.985 35.461-7.647 35.461-7.647-3.566-2.263-7.299-3.144-10.947-3.144-12.601-.001-24.199 10.502-24.514 10.791z"/></clipPath><g clip-path="url(#q)"><path d="M335.535 451.656l20.546 14.094-14.915 21.742-20.546-14.095 14.915-21.741z" fill="url(#r)" fill-rule="nonzero"/></g><clipPath id="s"><path d="M320.62 473.397a.192.192 0 0 0-.019.017s12.609 11.926 35.48-7.664c0 0-20.688 10.632-35.461 7.647z"/></clipPath><g clip-path="url(#s)"><path d="M335.53 451.652l20.551 14.098-16.457 23.99-20.551-14.098 16.457-23.99z" fill="url(#t)" fill-rule="nonzero"/></g><path d="M315.108 471.441c14.423 7.963 40.973-5.69 40.973-5.69" fill="none" stroke="#f16248" stroke-width=".32"/><clipPath id="u"><path d="M574.521 124.887c5.124-.466 10.496-5.511 10.496-5.511a7.785 7.785 0 0 0-1.837-.224c-5.284 0-8.582 5.602-8.659 5.735z"/></clipPath><g clip-path="url(#u)"><path d="M576.679 117.073l8.338 2.303-2.158 7.814-8.338-2.303 2.158-7.814z" fill="url(#v)" fill-rule="nonzero"/></g><clipPath id="w"><path d="M574.521 124.887a.167.167 0 0 1-.004.007s5.515 2.385 10.5-5.518c0 0-5.372 5.045-10.496 5.511z"/></clipPath><g clip-path="url(#w)"><path d="M576.677 117.073l8.34 2.303-2.382 8.623-8.339-2.304 2.381-8.622z" fill="url(#x)" fill-rule="nonzero"/></g><path d="M572.506 124.811c5.618 1.044 12.511-5.434 12.511-5.434" fill="none" stroke="#f16248" stroke-width=".11"/><clipPath id="y"><path d="M431.251 92.229c-3.909-13.044-17.803-23.53-17.803-23.53.299 17.636 17.437 23.409 17.803 23.53z"/></clipPath><g clip-path="url(#y)"><path d="M413.234 92.065l.214-23.366 18.017.165-.214 23.365-18.017-.164z" fill="url(#z)" fill-rule="nonzero"/></g><clipPath id="A"><path d="M431.251 92.229a.183.183 0 0 1 .017.007s1.993-16.061-17.82-23.537c0 0 13.894 10.486 17.803 23.53z"/></clipPath><g clip-path="url(#A)"><path d="M413.234 92.071l.214-23.372 19.88.182-.214 23.372-19.88-.182z" fill="url(#B)" fill-rule="nonzero"/></g><path d="M432.231 97.538c-.948-15.387-18.782-28.839-18.782-28.839" fill="none" stroke="#f16248" stroke-width=".26"/><clipPath id="C"><path d="M480.363 450.85s14.854-12.534 17.513-25.508c-.414.184-19.817 8.941-17.513 25.508z"/></clipPath><g clip-path="url(#C)"><path d="M476.591 429.021l3.772 21.829 21.285-3.678-3.772-21.83-21.285 3.679z" fill="url(#D)" fill-rule="nonzero"/></g><clipPath id="E"><path d="M497.876 425.342c-2.659 12.974-17.513 25.508-17.513 25.508 22.309-10.875 17.533-25.517 17.533-25.517l-.02.009z"/></clipPath><g clip-path="url(#E)"><path d="M476.59 429.015l3.773 21.835 23.487-4.058-3.773-21.835-23.487 4.058z" fill="url(#F)" fill-rule="nonzero"/></g><path d="M498.236 420.182c1.197 14.588-17.873 30.668-17.873 30.668" fill="none" stroke="#f16248" stroke-width=".28"/><clipPath id="G"><path d="M675.893 63.563c12.008-6.41 19.488-21.617 19.488-21.617-17.243 4.002-19.443 21.249-19.488 21.617z"/></clipPath><g clip-path="url(#G)"><path d="M672.414 46.679l22.967-4.733 3.479 16.885-22.967 4.732-3.479-16.884z" fill="url(#H)" fill-rule="nonzero"/></g><clipPath id="I"><path d="M675.893 63.563a.274.274 0 0 1-.002.017s16.158-1.527 19.49-21.634c0 0-7.48 15.207-19.488 21.617z"/></clipPath><g clip-path="url(#I)"><path d="M672.409 46.68l22.972-4.734 3.839 18.63-22.973 4.733-3.838-18.629z" fill="url(#J)" fill-rule="nonzero"/></g><path d="M670.883 65.599c14.904-4.134 24.497-23.653 24.497-23.653" fill="none" stroke="#f16248" stroke-width=".25"/><clipPath id="K"><path d="M611.904 380.064s-.037-5.942-2.84-9.773c-.042.123-1.978 5.92 2.84 9.773z"/></clipPath><g clip-path="url(#K)"><path d="M605.396 375.122l6.508 4.942 3.668-4.83-6.508-4.943-3.668 4.831z" fill="url(#L)" fill-rule="nonzero"/></g><clipPath id="M"><path d="M609.064 370.291c2.803 3.831 2.84 9.773 2.84 9.773 2.016-6.874-2.838-9.78-2.838-9.78l-.002.007z"/></clipPath><g clip-path="url(#M)"><path d="M605.393 375.12l6.511 4.944 4.048-5.33-6.51-4.944-4.049 5.33z" fill="url(#N)" fill-rule="nonzero"/></g><path d="M607.797 368.895c4.061 3.544 4.106 11.17 4.106 11.17" fill="none" stroke="#f16248" stroke-width=".09"/><clipPath id="O"><path d="M495.129 217.542c.142.144 6.866 6.893 19.125 2.837 0 0-7.124-3.076-15.312-3.075-1.253 0-2.532.072-3.813.238z"/></clipPath><g clip-path="url(#O)"><path d="M498.11 226.042l16.144-5.663-2.982-8.499-16.143 5.662 2.981 8.5z" fill="url(#P)" fill-rule="nonzero"/></g><clipPath id="Q"><path d="M495.122 217.536l.007.006c9.653-1.252 19.125 2.837 19.125 2.837-3.698-3.379-7.883-4.318-11.393-4.318-4.399 0-7.739 1.475-7.739 1.475z"/></clipPath><g clip-path="url(#Q)"><path d="M498.106 226.044l16.148-5.665-3.079-8.777-16.148 5.664 3.079 8.778z" fill="url(#R)" fill-rule="nonzero"/></g><path d="M491.297 218.341c10.804-3.213 22.956 2.038 22.956 2.038" fill="none" stroke="#f16248" stroke-width=".16"/><clipPath id="S"><path d="M306.961 170.542c.351-.04 16.775-1.939 18.263-12.774 0 0-13.712 5.117-18.263 12.774z"/></clipPath><g clip-path="url(#S)"><path d="M323.821 172.183l1.403-14.415-16.86-1.64-1.403 14.414 16.86 1.641z" fill="url(#T)" fill-rule="nonzero"/></g><clipPath id="U"><path d="M306.945 170.544l.016-.002c4.551-7.657 18.263-12.774 18.263-12.774-19.041 2.69-18.279 12.776-18.279 12.776z"/></clipPath><g clip-path="url(#U)"><path d="M323.821 172.187l1.403-14.419-18.603-1.81-1.403 14.418 18.603 1.811z" fill="url(#V)" fill-rule="nonzero"/></g><path d="M305.681 173.718c1.942-9.387 19.543-15.948 19.543-15.948" fill="none" stroke="#f16248" stroke-width=".2"/><clipPath id="W"><path d="M678.309 339.031s-7.608-6.096-17.111-7.789c.087.162 4.249 7.696 17.111 7.789z"/></clipPath><g clip-path="url(#W)"><path d="M661.266 339.177l17.043-.146-.068-7.934-17.043.145.068 7.935z" fill="url(#X)" fill-rule="nonzero"/></g><clipPath id="Y"><path d="M661.193 331.235l.005.007c9.503 1.693 17.111 7.789 17.111 7.789-4.461-7.2-13.242-7.823-16.153-7.823-.61 0-.963.027-.963.027z"/></clipPath><g clip-path="url(#Y)"><path d="M661.261 339.177l17.048-.146-.068-7.965-17.048.145.068 7.966z" fill="url(#Z)" fill-rule="nonzero"/></g><path d="M657.328 330.823c11.221.383 20.981 8.208 20.981 8.208" fill="none" stroke="#f16248" stroke-width=".15"/><clipPath id="aa"><path d="M679.119 345.927c6.846-1.42 12.266-6.189 12.266-6.189-9.294.234-12.204 6.065-12.266 6.189z"/></clipPath><g clip-path="url(#aa)"><path d="M679.067 339.844l12.318-.106.052 6.084-12.318.105-.052-6.083z" fill="url(#ab)" fill-rule="nonzero"/></g><clipPath id="ac"><path d="M679.119 345.927l-.003.005s8.48.552 12.269-6.194c0 0-5.42 4.769-12.266 6.189z"/></clipPath><g clip-path="url(#ac)"><path d="M679.064 339.844l12.321-.106.057 6.714-12.321.105-.057-6.713z" fill="url(#ad)" fill-rule="nonzero"/></g><path d="M676.328 346.298c8.104-.437 15.057-6.561 15.057-6.561" fill="none" stroke="#f16248" stroke-width=".11"/><clipPath id="ae"><path d="M808.365 380.721c5.524-5.326 7.104-15.628 7.104-15.628-8.798 4.408-7.141 15.394-7.104 15.628z"/></clipPath><g clip-path="url(#ae)"><path d="M803.652 370.592l11.817-5.499 4.713 10.129-11.817 5.499-4.713-10.129z" fill="url(#af)" fill-rule="nonzero"/></g><clipPath id="ag"><path d="M808.365 380.721l.002.011s8.613-2.746 7.102-15.639c0 0-1.58 10.302-7.104 15.628z"/></clipPath><g clip-path="url(#ag)"><path d="M803.649 370.594l11.82-5.501 5.2 11.177-11.819 5.5-5.201-11.176z" fill="url(#ah)" fill-rule="nonzero"/></g><path d="M805.954 382.546c7.492-4.231 9.514-17.453 9.514-17.453" fill="none" stroke="#f16248" stroke-width=".15"/><clipPath id="ai"><path d="M576.172 78.371c.119.061 5.675 2.891 9.258-.815 0 0-1.587-.295-3.615-.295-1.801 0-3.95.233-5.643 1.11z"/></clipPath><g clip-path="url(#ai)"><path d="M580.841 82.611l4.589-5.055-4.669-4.239-4.589 5.054 4.669 4.24z" fill="url(#aj)" fill-rule="nonzero"/></g><clipPath id="ak"><path d="M576.167 78.368l.005.003c3.599-1.865 9.258-.815 9.258-.815-1.868-.879-3.422-1.194-4.689-1.194-3.2 0-4.574 2.006-4.574 2.006z"/></clipPath><g clip-path="url(#ak)"><path d="M580.84 82.611l4.59-5.055-4.919-4.465-4.589 5.055 4.918 4.465z" fill="url(#al)" fill-rule="nonzero"/></g><path d="M574.865 79.276c3.302-3.07 10.565-1.721 10.565-1.721" fill="none" stroke="#f16248" stroke-width=".08"/><clipPath id="am"><path d="M439.609 103.049c.087.038 4.167 1.806 7.134-1.37 0 0-.382-.033-.994-.033-1.433 0-4.13.183-6.14 1.403z"/></clipPath><g clip-path="url(#am)"><path d="M442.922 105.988l3.821-4.309-3.314-2.938-3.82 4.308 3.313 2.939z" fill="url(#an)" fill-rule="nonzero"/></g><clipPath id="ao"><path d="M439.605 103.047l.004.002c2.868-1.741 7.134-1.37 7.134-1.37-1.092-.427-2.053-.592-2.889-.592-2.874 0-4.249 1.96-4.249 1.96z"/></clipPath><g clip-path="url(#ao)"><path d="M442.922 105.989l3.821-4.31-3.52-3.121-3.821 4.309 3.52 3.122z" fill="url(#ap)" fill-rule="nonzero"/></g><path d="M438.553 103.859c2.714-2.658 8.19-2.179 8.19-2.179" fill="none" stroke="#f16248" stroke-width=".06"/><clipPath id="aq"><path d="M406.715 385.804s6.374-5.431 7.787-11.654c-.173.071-8.305 3.439-7.787 11.654z"/></clipPath><g clip-path="url(#aq)"><path d="M405.732 374.944l.983 10.86 8.77-.794-.983-10.86-8.77.794z" fill="url(#ar)" fill-rule="nonzero"/></g><clipPath id="as"><path d="M414.455 374.038c-1.521 5.97-7.74 11.766-7.74 11.766 9.37-4.267 7.748-11.769 7.748-11.769l-.008.003z"/></clipPath><g clip-path="url(#as)"><path d="M405.721 374.827l.994 10.977 9.677-.876-.994-10.977-9.677.876z" fill="url(#at)" fill-rule="nonzero"/></g><path d="M414.78 371.642c-.175 7.112-8.259 14.107-8.065 14.163" fill="none" stroke="#f16248" stroke-width=".12"/><clipPath id="au"><path d="M476.415 393.961s-2.51-8.043-7.082-11.139c.006.199.36 9.529 7.082 11.139z"/></clipPath><g clip-path="url(#au)"><path d="M467.444 392.143l8.971 1.818 1.889-9.32-8.971-1.819-1.889 9.321z" fill="url(#av)" fill-rule="nonzero"/></g><clipPath id="aw"><path d="M469.333 382.822c4.646 3.783 7.082 11.139 7.082 11.139-.716-10.852-6.821-11.127-6.821-11.127s-.218-.012-.256-.012h-.005z"/></clipPath><g clip-path="url(#aw)"><path d="M467.444 392.143l8.971 1.818 2.084-10.284-8.971-1.818-2.084 10.284z" fill="url(#ax)" fill-rule="nonzero"/></g><path d="M467.406 381.878c5.639 2.041 8.908 12.27 9.009 12.083" fill="none" stroke="#f16248" stroke-width=".12"/><clipPath id="ay"><path d="M523.715 327.804s6.569-5.625 8.023-12.076c-.179.074-8.561 3.561-8.023 12.076z"/></clipPath><g clip-path="url(#ay)"><path d="M522.696 316.547l1.019 11.257 9.042-.818-1.019-11.258-9.042.819z" fill="url(#az)" fill-rule="nonzero"/></g><clipPath id="aA"><path d="M531.689 315.612c-1.566 6.187-7.974 12.192-7.974 12.192 9.658-4.418 7.982-12.195 7.982-12.195l-.008.003z"/></clipPath><g clip-path="url(#aA)"><path d="M522.685 316.425l1.03 11.379 9.976-.903-1.03-11.379-9.976.903z" fill="url(#aB)" fill-rule="nonzero"/></g><path d="M532.022 313.129c-.176 7.371-8.507 14.618-8.307 14.676" fill="none" stroke="#f16248" stroke-width=".13"/><clipPath id="aC"><path d="M510.935 164.238s1.458-4.329.376-7.554c-.061.083-2.918 3.997-.376 7.554z"/></clipPath><g clip-path="url(#aC)"><path d="M507.435 159.625l3.5 4.613 3.876-2.94-3.5-4.614-3.876 2.941z" fill="url(#aD)" fill-rule="nonzero"/></g><clipPath id="aE"><path d="M511.257 156.647c.96 3.144-.322 7.591-.322 7.591 3.184-4.685.324-7.595.324-7.595l-.002.004z"/></clipPath><g clip-path="url(#aE)"><path d="M507.396 159.574l3.539 4.664 4.277-3.244-3.539-4.665-4.277 3.245z" fill="url(#aF)" fill-rule="nonzero"/></g><path d="M510.738 155.47c1.909 3.262.091 8.8.197 8.768" fill="none" stroke="#f16248" stroke-width=".07"/><clipPath id="aG"><path d="M663.34 87.009s1.009-5.511-.912-9.536c-.061.107-2.872 5.149.912 9.536z"/></clipPath><g clip-path="url(#aG)"><path d="M658.182 81.327l5.158 5.682 4.246-3.853-5.158-5.683-4.246 3.854z" fill="url(#aH)" fill-rule="nonzero"/></g><clipPath id="aI"><path d="M662.428 77.473c1.921 4.025.912 9.536.912 9.536 3.074-6.026-.909-9.541-.909-9.541l-.003.005z"/></clipPath><g clip-path="url(#aI)"><path d="M658.181 81.325l5.159 5.684 4.684-4.251-5.158-5.684-4.685 4.251z" fill="url(#aJ)" fill-rule="nonzero"/></g><path d="M661.5 75.964c3.138 3.974 1.84 11.046 1.84 11.046" fill="none" stroke="#f16248" stroke-width=".08"/><path d="M797.659 387.016c-9.731 5.511-20.214 2.653-29.706-2.676-2.356-1.323-4.947-2.283-7.157-3.806-16.802-11.578-34.696-12.291-52.989-4.679-11.955 4.975-23.674 5.083-36.283 2.946-11.297-1.914-23.031-1.117-34.541-1.959-6.485-.474-13.78-.274-19.111-3.247-5.438-3.033-11.158-8.936-12.816-14.714-4.206-14.663-7.196-21.159-10.042-36.209-.347-1.834-3.767-11.391-3.955-13.255.776-.867 18.51 4.732 21.421 8.182 2.911 3.451 10.893 18.79 18.01 22.448 7.116 3.658 46.342 6.351 46.342 6.351-44.592-8.747-44.368-15.224-44.368-15.224l24.864-.351s-24.927-5.44-30.03-7.493c-5.103-2.054-7.75-6.35-8.932-9-1.181-2.651-10.07-8.374-17.49-10.298-8.01-2.078-13.381-2.311-18.348-4.745-4.966-2.433-4.555-.982-11.665-7.885-2.276-2.21-5.639-5.529-9.438-9.174 4.74-.756 9.959-1.341 12.477-.801 3.495.749 20.189 10.121 20.189 10.121 1.126-1.315-11.194-9.921-11.194-9.921 3.45.959 10.354 4.041 11.809 5.122 1.456 1.082 7.303 2.665 12.008 3.014 4.706.349 9.033-1.473 9.033-1.473-2.062.438-9.277-.009-13.556-1.038-4.279-1.028-8.89-5.752-12.698-7.667-3.807-1.916-12.702-3.712-20.498-5.384-2.635-.564-8.95-.432-16.157-.01-5.768-5.232-11.489-10.009-15.357-12.15-8.579-4.749-46.354-18.632-72.622-18.746-.717-.003 10.578-15.023 14.782-18.063 4.205-3.041 11.656-6.89 11.656-6.89s-9.821 1.207-20.229 10.657c-10.409 9.449-11.505 11.011-16.724 14.699-5.218 3.687-16.21 20.299-38.862 27.459-22.653 7.161-25.937 8.07-39.111 12.564-9.095 3.102-17.913 7.009-26.986 10.182-4.232 1.48-8.774 2.07-13.176 3.064-.44-1.151 1.061-9.752 1.502-27.306 1.85-12.579 6.097-23.792 14.375-32.337 12.003-12.389 18.765-27.253 19.277-43.578.775-24.659 16.566-34.008 36.133-40.588a104.732 104.732 0 0 1 22.651-4.876c21.695-2.198 50.438 6.422 72.986 3.449 3.315.842 6.53 2.059 7.605 3.739 0 0-1.005-2.293-2.582-4.632 4.697-1.061 9.059-2.741 12.932-5.302 4.446-2.941 17.137-10.962 26.526-16.731.373-.23 16.978-4.436 16.978-4.436h7.914l-7.399-2.014s-7.604.469-6.938.042c16.787-10.744 16.415-21.465 33.756-31.293 12.343-6.997 27.548-9.002 41.02-10.89 5.123-.717 14.217-2.276 22.485-5.198 2.389.095 6.066.374 6.256 1.197 0 0-.706-1.744-1.918-2.905 4.626-2.029 8.665-4.564 11.115-7.722-23.383 9.085-66.237 3.53-87.425 16.908-6.63 4.186-9.506 8.687-12.035 13.248-.208.375-.2-6.212-.2-6.212l3.642-10.254s-4.558 5.191-6.108 7.312c-1.55 2.122-2.6 17.897-3.4 18.865-1.676 2.025-3.766 4.028-6.573 5.987-7.461 5.204-35.428 19.925-38.512 21.901-24.609 15.767-66.26-.664-96.913-.086 9.694-6.167 12.647-13.682 12.157-21.898l.002-.01c.35-2.037 3.035-7.488 3.035-7.488L435 108.674v.002c0-3.612-1.487-7.341-2.892-11.138 0 0 2.635 21.544-18.306 32.717-14.108 7.528-28.8 14.325-42.282 22.992-10.746 6.908-16.582 17.474-17.89 30.963-1.43 14.744-5.997 28.527-17.836 39.102-5.047 4.509-8.445 10.859-15.108 15.531 1.992-6.713-5.781-46.387-11.838-59.547-.89-1.935-2.103-3.722-3.168-5.578-1.008.238 2.687 9.423 3.113 15.361 0 0 5.549 33.199 2.515 45.314-2.11 8.43-1.339 19.028 1.121 27.851 8.405 30.145-29.529 58.515-42.249 64.147-12.721 5.632-37.183 14.238-56.561 33.616-19.379 19.379-51.602 69.932-71.291 85.355C117.96 464.45 30.405 533.558 0 532.442l.496 114.762c81.484-32.253 161.349-97.742 174.808-121.29 11.979-20.96 42.201-59.977 51.187-69.382 13.424-14.05 20.493-34.042 36.281-44.126 15.789-10.083 32.07-16.873 44.096-21.936 17.125-7.21 29.434-16.392 29.434-16.392 20.41-9.929 45.795-19.895 65.724-12.539a347.066 347.066 0 0 1 10.075 3.883c1.378 1.68 2.877 4.045 2.679 6.22.558-1.538.594-3.298.41-4.943 10.886 4.592 16.479 8.019 19.555 11.023 5.136 5.014 12.346 12.337 19.039 19.029 6.692 6.692 19.327 4.172 27.012 7.408 7.685 3.236 10.966 2.117 17.44 16.023.506-8.82-12.356-22.208-22.431-23.806-8.613-1.366-13.417-4.918-21.518-13.988 1.327-.594 3.551-1.439 5.478-1.439 2.966 0 7.641.929 7.641.929s-3.776-3.154-7.552-3.154c-2.537 0-6.001.539-8.005.894a415.157 415.157 0 0 1-1.998-2.327c-11.03-12.923-36.565-26.601-42.963-29.186-20.659-8.346-40.881-5.803-61.065 1.403-4.727 1.687-9.265 3.947-14.052 5.413-13.617 4.169-27.237 8.931-42.592 3.067 17.876-5.027 59.347-21.358 77.587-24.889 18.24-3.531 32.566-16.396 46.755-22.79 14.189-6.394 25.293-16.978 41.195-25.193 18.151-9.378 43.526-8.748 53.971-3.081 3.205 1.738 9.831 5.573 17.706 10.964 3.384 5.183 6.256 12.078 5.63 20.13 0 0 2.687-5.828 4.903-12.468 15.682 12.143 32.478 28.77 36.981 46.574 0 0 25.068 49.843 36.463 51.172 14.403 1.679 27.392-1.313 41.926-.817 5.36.183 15.262-.173 20.319-.589 19.702-1.619 23.168-6.087 38.475-10.786 7.293-2.238 14.895-3.465 22.809-5.253l5.912.87s15.642 6.943 21.925 10.671c14.9 8.841 33.151 5.485 44.218-9.957l-8.295 4.47z" fill="#771f00" fill-rule="nonzero"/><clipPath id="aK"><path d="M618.855 287.236c8.737-3.58 14.786-12.181 14.786-12.181-12.263 2.187-14.734 11.972-14.786 12.181z"/></clipPath><g clip-path="url(#aK)"><path d="M617.339 277.627l16.302-2.572 1.516 9.609-16.302 2.572-1.516-9.609z" fill="url(#aL)" fill-rule="nonzero"/></g><clipPath id="aM"><path d="M618.855 287.236l-.002.01s11.371-.786 14.788-12.191c0 0-6.049 8.601-14.786 12.181z"/></clipPath><g clip-path="url(#aM)"><path d="M617.335 277.628l16.306-2.573 1.673 10.602-16.306 2.573-1.673-10.602z" fill="url(#aN)" fill-rule="nonzero"/></g><path d="M615.245 288.368c10.637-2.273 18.397-13.312 18.397-13.312" fill="none" stroke="#f16248" stroke-width=".16"/><clipPath id="aO"><path d="M598.537 299.483s-.756-4.586-3.326-7.071c-.016.103-.755 4.913 3.326 7.071z"/></clipPath><g clip-path="url(#aO)"><path d="M593.054 296.77l5.483 2.713 2.156-4.358-5.482-2.713-2.157 4.358z" fill="url(#aP)" fill-rule="nonzero"/></g><clipPath id="aQ"><path d="M598.537 299.483c.669-5.655-3.323-7.071-3.326-7.071 2.218 2.341 3.326 7.071 3.326 7.071z"/></clipPath><g clip-path="url(#aQ)"><path d="M593.054 296.77l5.483 2.713 2.379-4.808-5.482-2.713-2.38 4.808z" fill="url(#aR)" fill-rule="nonzero"/></g><path d="M594.091 291.548c3.353 2.162 4.363 8.01 4.446 7.935" fill="none" stroke="#f16248" stroke-width=".07"/><path d="M168.162 130.296c3.764-4.507 7.552-8.993 11.284-13.526 3.33-4.045 4.528-8.976 4.797-13.973.069-1.28-2.272-3.32-3.915-3.96-10.153-3.954-20.238-2.374-30.23.935-.705.234-1.488.233-2.446-.407 3.169-1.05 6.286-2.303 9.515-3.112 12.199-3.058 24.461-5.867 36.64-8.999 3.689-.949 7.275-2.447 10.751-4.038 5.531-2.533 6.068-6.943 1.522-11.382-2.042-1.993-4.132-3.962-6.37-5.725-4.112-3.238-8.441-6.203-12.507-9.493-3.487-2.821-6.734-5.939-10.825-9.583l1.215-.643-10.437-12.801 2.333-.594-7.052-6.517 3.135-.559c-1.026-1.111-1.966-1.876-2.57-2.849-.702-1.13-3.854-1.744-1.071-3.943.082-.064-1.098-1.64-1.611-2.555-2.136-3.815-4.241-7.648-6.72-12.128l3.128.815-1.121-3.885c4.337 4.844 8.338 9.888 12.925 14.326 14.545 14.073 31.176 25.515 47.623 37.185 3.113 2.209 5.764 5.06 8.731 7.489 1.116.913 3.042 2.37 3.695 1.997 1.44-.822 2.652-2.503 3.329-4.1 1.153-2.723 1.816-5.652 2.701-8.49.155-.497.385-1.39.587-1.392 4.024-.038 3.033-3.722 4.265-5.765.203-.336.421-.663.749-1.177l2.801.67c1.273-2.692.849-6.002 4.677-7.221 1.205-.383 1.333-3.803 2.189-5.728.846-1.903 1.617-4.616 4.414-1.331.908-2.402 1.469-4.482 2.466-6.326.719-1.329 2.182-2.238 3.017-3.526.955-1.475 1.512-3.201 2.371-4.746.974-1.75.282-5.264 4.252-4.106.319.093 1.221-1.507 1.715-2.396.955-1.721 1.813-3.496 2.916-5.648l2.927 3.176L275.897 0c3.969 5.319 4.573 11.057 3.68 16.803-3.046 19.587-6.712 34.173-28.398 51.95 8.623 3.441 2.671 10.156 4.07 16.242-5.074-5.573-9.582-4.78-14.65-1.029-5.067 3.749-10.568 6.949-16.062 10.069-2.836 1.611-6.069 2.526-9.123 3.755-1.41-4.035-3.481-4.852-6.576-2.151-10.489 9.153-20.864 18.436-31.254 27.7-2.864 2.555-5.631 5.219-8.442 7.832l-.98-.875M751.782 374.88c-4.136.277-8.117-.321-12.279-2.116.572-.403.752-.642.926-.637 3.655.091 3.7.059 1.831-3.323-.621-1.123-1.499-2.101-2.203-3.182-.905-1.391-1.704-2.801-.457-4.455.402-.533.624-1.2 1.205-2.356-1.349.214-2.248.482-3.143.471-1.552-.02-3.106-.34-4.651-.285-.937.033-2.09.276-2.742.869-1.905 1.733-2.768 8.231-1.335 10.424.554.849 1.832 1.224 2.836 1.851-1.91 1.017-7.204.285-8.627-1.298 2.982.808 3.159-1.477 3.553-3.122.498-2.072.565-4.248.858-6.722-3.777 1.071-5.925 4.55-9.809 4.041-3.555-.467-6.15-2.612-9.183-4.892 1.65-.992 3.149-2.301 4.889-2.868 6.283-2.049 9.664-7.239 13.502-11.968.192-.236.389-.505.469-.791 1.822-6.511 6.347-11.263 11.378-15.093 3.547-2.7 6.796-5.716 10.326-8.379 3.507-2.645 7.667-4.426 12.152-2.734 3.806 1.436 7.441 3.363 11.044 5.276 1.141.606 1.935 1.867 2.888 2.829l-.283.738c-1.601-.19-3.207-.347-4.803-.576-6.058-.868-10.658 1.7-12.395 7.2-.468 1.483-.547 3.234-.28 4.77.394 2.266-.12 4.122-1.502 5.826-3.667 4.522-5.846 10.136-10.646 13.881-1.506 1.175-2.232 3.474-3.026 5.38-.319.765-.073 1.947.29 2.775.617 1.404 1.7 2.607 2.283 4.02.966 2.339 2.649 3.336 5.074 3.395.645.016 1.285.198 1.928.304l-.068.747" fill="#00a99d" fill-rule="nonzero"/><defs><linearGradient id="b" x2="1" gradientUnits="userSpaceOnUse" gradientTransform="scale(14.95878) rotate(-22.262 99.273 -97.172)"><stop offset="0" stop-color="#f6916b"/><stop offset="1" stop-color="#f16248"/></linearGradient><linearGradient id="d" x2="1" gradientUnits="userSpaceOnUse" gradientTransform="scale(-14.95876) rotate(-33.815 -72.462 57.792)"><stop offset="0" stop-color="#f6916b"/><stop offset="1" stop-color="#f16248"/></linearGradient><linearGradient id="f" x2="1" gradientUnits="userSpaceOnUse" gradientTransform="matrix(-14.6095 17.415 -19.8106 -16.6192 439.252 496.255)"><stop offset="0" stop-color="#f6916b"/><stop offset="1" stop-color="#f16248"/></linearGradient><linearGradient id="h" x2="1" gradientUnits="userSpaceOnUse" gradientTransform="matrix(-14.613 17.4192 -19.8154 -16.6233 439.227 496.227)"><stop offset="0" stop-color="#f16248"/><stop offset="1" stop-color="#f6916b"/></linearGradient><linearGradient id="j" x2="1" gradientUnits="userSpaceOnUse" gradientTransform="matrix(-10.001 .47434 1.17693 11.7173 643.816 492.82)"><stop offset="0" stop-color="#f6916b"/><stop offset="1" stop-color="#f16248"/></linearGradient><linearGradient id="l" x2="1" gradientUnits="userSpaceOnUse" gradientTransform="matrix(10.034 1.88203 .84991 -11.5749 642.883 495.799)"><stop offset="0" stop-color="#f6916b"/><stop offset="1" stop-color="#f16248"/></linearGradient><linearGradient id="n" x2="1" gradientUnits="userSpaceOnUse" gradientTransform="matrix(13.5134 19.0634 -19.5638 13.8682 486.035 325.451)"><stop offset="0" stop-color="#f6916b"/><stop offset="1" stop-color="#f16248"/></linearGradient><linearGradient id="p" x2="1" gradientUnits="userSpaceOnUse" gradientTransform="matrix(13.5167 19.068 -19.5686 13.8715 486.006 325.465)"><stop offset="0" stop-color="#f16248"/><stop offset="1" stop-color="#f6916b"/></linearGradient><linearGradient id="r" x2="1" gradientUnits="userSpaceOnUse" gradientTransform="matrix(20.5475 14.0955 -18.0619 26.3294 328.077 462.526)"><stop offset="0" stop-color="#f6916b"/><stop offset="1" stop-color="#f16248"/></linearGradient><linearGradient id="t" x2="1" gradientUnits="userSpaceOnUse" gradientTransform="matrix(20.5524 14.0989 -18.0662 26.3358 328.046 462.56)"><stop offset="0" stop-color="#f16248"/><stop offset="1" stop-color="#f6916b"/></linearGradient><linearGradient id="v" x2="1" gradientUnits="userSpaceOnUse" gradientTransform="matrix(8.33853 2.3032 -2.61376 9.46285 575.6 120.98)"><stop offset="0" stop-color="#f6916b"/><stop offset="1" stop-color="#f16248"/></linearGradient><linearGradient id="x" x2="1" gradientUnits="userSpaceOnUse" gradientTransform="matrix(8.34054 2.30376 -2.61439 9.46513 575.594 120.993)"><stop offset="0" stop-color="#f16248"/><stop offset="1" stop-color="#f6916b"/></linearGradient><linearGradient id="z" x2="1" gradientUnits="userSpaceOnUse" gradientTransform="matrix(.2137 -23.3662 23.9796 .21932 422.243 92.147)"><stop offset="0" stop-color="#f6916b"/><stop offset="1" stop-color="#f16248"/></linearGradient><linearGradient id="B" x2="1" gradientUnits="userSpaceOnUse" gradientTransform="matrix(.21376 -23.3718 23.9854 .21937 422.274 92.153)"><stop offset="0" stop-color="#f16248"/><stop offset="1" stop-color="#f6916b"/></linearGradient><linearGradient id="D" x2="1" gradientUnits="userSpaceOnUse" gradientTransform="matrix(3.77226 21.8294 28.3315 -4.89586 487.234 427.181)"><stop offset="0" stop-color="#f6916b"/><stop offset="1" stop-color="#f16248"/></linearGradient><linearGradient id="F" x2="1" gradientUnits="userSpaceOnUse" gradientTransform="matrix(3.77317 21.8347 28.3383 -4.89704 487.27 427.17)"><stop offset="0" stop-color="#f16248"/><stop offset="1" stop-color="#f6916b"/></linearGradient><linearGradient id="H" x2="1" gradientUnits="userSpaceOnUse" gradientTransform="matrix(22.9663 -4.7322 4.80308 23.3103 674.153 55.12)"><stop offset="0" stop-color="#f6916b"/><stop offset="1" stop-color="#f16248"/></linearGradient><linearGradient id="J" x2="1" gradientUnits="userSpaceOnUse" gradientTransform="matrix(22.9718 -4.73334 4.80424 23.3159 674.154 55.15)"><stop offset="0" stop-color="#f16248"/><stop offset="1" stop-color="#f6916b"/></linearGradient><linearGradient id="L" x2="1" gradientUnits="userSpaceOnUse" gradientTransform="matrix(6.50806 4.94235 4.88284 -6.42971 607.23 372.706)"><stop offset="0" stop-color="#f6916b"/><stop offset="1" stop-color="#f16248"/></linearGradient><linearGradient id="N" x2="1" gradientUnits="userSpaceOnUse" gradientTransform="matrix(6.50963 4.94353 4.88402 -6.43126 607.234 372.697)"><stop offset="0" stop-color="#f16248"/><stop offset="1" stop-color="#f6916b"/></linearGradient><linearGradient id="P" x2="1" gradientUnits="userSpaceOnUse" gradientTransform="matrix(16.1435 -5.66274 -3.59835 -10.2583 496.619 221.792)"><stop offset="0" stop-color="#f6916b"/><stop offset="1" stop-color="#f16248"/></linearGradient><linearGradient id="R" x2="1" gradientUnits="userSpaceOnUse" gradientTransform="matrix(16.1474 -5.6641 -3.59921 -10.2608 496.61 221.779)"><stop offset="0" stop-color="#f16248"/><stop offset="1" stop-color="#f6916b"/></linearGradient><linearGradient id="T" x2="1" gradientUnits="userSpaceOnUse" gradientTransform="matrix(1.40265 -14.414 -22.441 -2.18377 315.392 171.363)"><stop offset="0" stop-color="#f6916b"/><stop offset="1" stop-color="#f16248"/></linearGradient><linearGradient id="V" x2="1" gradientUnits="userSpaceOnUse" gradientTransform="matrix(1.40299 -14.4174 -22.4464 -2.1843 315.362 171.363)"><stop offset="0" stop-color="#f16248"/><stop offset="1" stop-color="#f6916b"/></linearGradient><linearGradient id="X" x2="1" gradientUnits="userSpaceOnUse" gradientTransform="matrix(17.044 -.14566 -.08183 -9.5753 661.231 335.21)"><stop offset="0" stop-color="#f6916b"/><stop offset="1" stop-color="#f16248"/></linearGradient><linearGradient id="Z" x2="1" gradientUnits="userSpaceOnUse" gradientTransform="matrix(17.0481 -.1457 -.08185 -9.5776 661.227 335.196)"><stop offset="0" stop-color="#f16248"/><stop offset="1" stop-color="#f6916b"/></linearGradient><linearGradient id="ab" x2="1" gradientUnits="userSpaceOnUse" gradientTransform="matrix(12.3184 -.10527 .06275 7.34296 679.093 342.885)"><stop offset="0" stop-color="#f6916b"/><stop offset="1" stop-color="#f16248"/></linearGradient><linearGradient id="ad" x2="1" gradientUnits="userSpaceOnUse" gradientTransform="matrix(12.3214 -.1053 .06277 7.34473 679.09 342.896)"><stop offset="0" stop-color="#f16248"/><stop offset="1" stop-color="#f6916b"/></linearGradient><linearGradient id="af" x2="1" gradientUnits="userSpaceOnUse" gradientTransform="matrix(11.817 -5.49876 5.70794 12.2665 806.008 375.657)"><stop offset="0" stop-color="#f6916b"/><stop offset="1" stop-color="#f16248"/></linearGradient><linearGradient id="ah" x2="1" gradientUnits="userSpaceOnUse" gradientTransform="matrix(11.8198 -5.50009 5.70932 12.2695 806.013 375.675)"><stop offset="0" stop-color="#f16248"/><stop offset="1" stop-color="#f6916b"/></linearGradient><linearGradient id="aj" x2="1" gradientUnits="userSpaceOnUse" gradientTransform="matrix(4.58921 -5.05468 -5.65355 -5.13292 578.506 80.491)"><stop offset="0" stop-color="#f6916b"/><stop offset="1" stop-color="#f16248"/></linearGradient><linearGradient id="al" x2="1" gradientUnits="userSpaceOnUse" gradientTransform="matrix(4.59032 -5.0559 -5.65491 -5.13416 578.497 80.485)"><stop offset="0" stop-color="#f16248"/><stop offset="1" stop-color="#f6916b"/></linearGradient><linearGradient id="an" x2="1" gradientUnits="userSpaceOnUse" gradientTransform="matrix(3.82049 -4.30835 -4.41035 -3.91094 441.266 104.519)"><stop offset="0" stop-color="#f6916b"/><stop offset="1" stop-color="#f16248"/></linearGradient><linearGradient id="ap" x2="1" gradientUnits="userSpaceOnUse" gradientTransform="matrix(3.82141 -4.30938 -4.41141 -3.91188 441.259 104.515)"><stop offset="0" stop-color="#f16248"/><stop offset="1" stop-color="#f6916b"/></linearGradient><linearGradient id="ar" x2="1" gradientUnits="userSpaceOnUse" gradientTransform="matrix(.98318 10.8603 11.6732 -1.05678 410.117 374.547)"><stop offset="0" stop-color="#f6916b"/><stop offset="1" stop-color="#f16248"/></linearGradient><linearGradient id="at" x2="1" gradientUnits="userSpaceOnUse" gradientTransform="matrix(.99387 10.9783 11.8001 -1.06826 410.105 374.43)"><stop offset="0" stop-color="#f16248"/><stop offset="1" stop-color="#f6916b"/></linearGradient><linearGradient id="av" x2="1" gradientUnits="userSpaceOnUse" gradientTransform="matrix(8.97127 1.81843 2.51455 -12.4056 468.388 387.483)"><stop offset="0" stop-color="#f6916b"/><stop offset="1" stop-color="#f16248"/></linearGradient><linearGradient id="ax" x2="1" gradientUnits="userSpaceOnUse" gradientTransform="matrix(8.97127 1.81843 2.51455 -12.4056 468.394 387.452)"><stop offset="0" stop-color="#f16248"/><stop offset="1" stop-color="#f6916b"/></linearGradient><linearGradient id="az" x2="1" gradientUnits="userSpaceOnUse" gradientTransform="matrix(1.01915 11.2576 12.034 -1.08944 527.217 316.138)"><stop offset="0" stop-color="#f6916b"/><stop offset="1" stop-color="#f16248"/></linearGradient><linearGradient id="aB" x2="1" gradientUnits="userSpaceOnUse" gradientTransform="matrix(1.03023 11.3799 12.1648 -1.10128 527.204 316.016)"><stop offset="0" stop-color="#f16248"/><stop offset="1" stop-color="#f6916b"/></linearGradient><linearGradient id="aD" x2="1" gradientUnits="userSpaceOnUse" gradientTransform="matrix(3.49995 4.61357 5.15855 -3.91338 509.373 158.154)"><stop offset="0" stop-color="#f6916b"/><stop offset="1" stop-color="#f16248"/></linearGradient><linearGradient id="aF" x2="1" gradientUnits="userSpaceOnUse" gradientTransform="matrix(3.53797 4.66369 5.21459 -3.9559 509.334 158.105)"><stop offset="0" stop-color="#f16248"/><stop offset="1" stop-color="#f6916b"/></linearGradient><linearGradient id="aH" x2="1" gradientUnits="userSpaceOnUse" gradientTransform="matrix(5.15774 5.68287 5.12394 -4.65045 660.305 79.4)"><stop offset="0" stop-color="#f6916b"/><stop offset="1" stop-color="#f16248"/></linearGradient><linearGradient id="aJ" x2="1" gradientUnits="userSpaceOnUse" gradientTransform="matrix(5.15898 5.68424 5.12517 -4.65157 660.311 79.392)"><stop offset="0" stop-color="#f16248"/><stop offset="1" stop-color="#f6916b"/></linearGradient><linearGradient id="aL" x2="1" gradientUnits="userSpaceOnUse" gradientTransform="matrix(16.3021 -2.57205 1.82956 11.5961 618.097 282.432)"><stop offset="0" stop-color="#f6916b"/><stop offset="1" stop-color="#f16248"/></linearGradient><linearGradient id="aN" x2="1" gradientUnits="userSpaceOnUse" gradientTransform="matrix(16.306 -2.57267 1.83 11.5989 618.096 282.449)"><stop offset="0" stop-color="#f16248"/><stop offset="1" stop-color="#f6916b"/></linearGradient><linearGradient id="aP" x2="1" gradientUnits="userSpaceOnUse" gradientTransform="matrix(5.48249 2.71304 2.87069 -5.80107 594.133 294.591)"><stop offset="0" stop-color="#f6916b"/><stop offset="1" stop-color="#f16248"/></linearGradient><linearGradient id="aR" x2="1" gradientUnits="userSpaceOnUse" gradientTransform="matrix(5.48249 2.71304 2.87069 -5.80107 594.136 294.586)"><stop offset="0" stop-color="#f16248"/><stop offset="1" stop-color="#f6916b"/></linearGradient></defs></svg>